<?xml version="1.0" encoding="UTF-8" standalone="no"?>
<!-- Created with Inkscape (http://www.inkscape.org/) -->

<svg
   width="139.73488mm"
   height="80.773003mm"
   viewBox="0 0 139.73488 80.773002"
   version="1.1"
   id="svg1"
   inkscape:version="1.3.1 (9b9bdc1480, 2023-11-25, custom)"
   sodipodi:docname="book-frontcover.svg"
   xmlns:inkscape="http://www.inkscape.org/namespaces/inkscape"
   xmlns:sodipodi="http://sodipodi.sourceforge.net/DTD/sodipodi-0.dtd"
   xmlns="http://www.w3.org/2000/svg"
   xmlns:svg="http://www.w3.org/2000/svg">
  <sodipodi:namedview
     id="namedview1"
     pagecolor="#ffffff"
     bordercolor="#000000"
     borderopacity="0.25"
     inkscape:showpageshadow="2"
     inkscape:pageopacity="0.0"
     inkscape:pagecheckerboard="0"
     inkscape:deskcolor="#d1d1d1"
     inkscape:document-units="mm"
     showgrid="true"
     inkscape:zoom="1.0179639"
     inkscape:cx="271.62062"
     inkscape:cy="183.70002"
     inkscape:window-width="1854"
     inkscape:window-height="1011"
     inkscape:window-x="0"
     inkscape:window-y="0"
     inkscape:window-maximized="1"
     inkscape:current-layer="layer1">
    <inkscape:grid
       id="grid1"
       units="mm"
       originx="-16.268929"
       originy="-88.806633"
       spacingx="0.99999998"
       spacingy="1"
       empcolor="#0099e5"
       empopacity="0.30196078"
       color="#0099e5"
       opacity="0.14901961"
       empspacing="5"
       dotted="false"
       gridanglex="30"
       gridanglez="30"
       visible="true" />
  </sodipodi:namedview>
  <defs
     id="defs1" />
  <g
     inkscape:label="Calque 1"
     inkscape:groupmode="layer"
     id="layer1"
     transform="translate(-16.268927,-88.806631)">
    <path
       style="fill:none;stroke:#000000;stroke-width:0.265;stroke-dasharray:none;stroke-opacity:1"
       d="m 29.661294,96.793011 45.015118,-7.340087 -0.03572,71.377086 -44.433998,8.2198 z"
       id="path1"
       sodipodi:nodetypes="ccccc" />
    <path
       style="fill:none;stroke:#000000;stroke-width:0.1;stroke-dasharray:none;stroke-dashoffset:0;stroke-opacity:1"
       d="m 34.50804,100.09278 35.851617,-6.42203 0.06902,63.57589 -35.73528,7.15654 z"
       id="path1-2-5"
       sodipodi:nodetypes="ccccc" />
    <path
       style="font-size:4.9389px;font-family:'Libertinus Serif';-inkscape-font-specification:'Libertinus Serif';stroke-width:0.2"
       d="m 87.039136,93.615214 v -0.982841 c 0,-0.246945 0.01976,-0.563035 0.01976,-0.563035 0,-0.01976 -0.02469,-0.03457 -0.06421,-0.03457 -0.138289,0.05433 -0.335845,0.09878 -0.676629,0.143228 -0.0099,0.02963 0,0.108656 0.0099,0.138289 0.27164,0.02469 0.321029,0.05433 0.321029,0.335845 v 0.963086 c 0,0.409928 -0.05433,0.424745 -0.355601,0.44944 -0.02963,0.02963 -0.02963,0.13335 0,0.162983 0.162984,-0.0049 0.355601,-0.0099 0.553157,-0.0099 0.197556,0 0.385234,0.0049 0.548218,0.0099 0.02963,-0.02963 0.02963,-0.13335 0,-0.162983 -0.301273,-0.01976 -0.355601,-0.03951 -0.355601,-0.44944 z m -0.44944,-2.355856 c 0,0.128412 0.118534,0.256823 0.237067,0.256823 0.138289,0 0.256823,-0.13335 0.256823,-0.237067 0,-0.118534 -0.103717,-0.256823 -0.237067,-0.256823 -0.118534,0 -0.256823,0.118534 -0.256823,0.237067 z m 1.733553,1.190275 c -0.0049,-0.148167 -0.01482,-0.325967 -0.03951,-0.375356 -0.0099,-0.0247 -0.01976,-0.03951 -0.05927,-0.03951 -0.138289,0.05433 -0.2667,0.09878 -0.607484,0.143228 -0.0099,0.02963 0,0.108656 0.0099,0.138289 0.2667,0.02469 0.321028,0.04939 0.321028,0.335845 v 0.963086 c 0,0.404989 -0.06421,0.429684 -0.335845,0.44944 -0.02963,0.02963 -0.02963,0.13335 0,0.162983 0.148167,-0.0049 0.335845,-0.0099 0.533401,-0.0099 0.197556,0 0.350662,0.0049 0.498829,0.0099 0.02963,-0.02963 0.02963,-0.13335 0,-0.162983 -0.251884,-0.02469 -0.306212,-0.04445 -0.306212,-0.44944 v -0.80998 c 0,-0.103717 0.04445,-0.162984 0.08396,-0.207434 0.197556,-0.192617 0.380296,-0.291395 0.533402,-0.291395 0.187678,0 0.325967,0.118534 0.325967,0.44944 v 0.859369 c 0,0.404989 -0.03951,0.429684 -0.306212,0.44944 -0.02469,0.02963 -0.02469,0.13335 0,0.162983 0.123473,-0.0049 0.306212,-0.0099 0.503768,-0.0099 0.197556,0 0.36054,0.0049 0.484012,0.0099 0.02469,-0.02963 0.02469,-0.13335 0,-0.162983 -0.246945,-0.01976 -0.291395,-0.04445 -0.291395,-0.44944 V 92.82993 c 0,-0.06915 0,-0.13829 -0.0049,-0.197556 0.237067,-0.261762 0.459318,-0.325968 0.651935,-0.325968 0.187678,0 0.296334,0.108656 0.296334,0.439562 v 0.869247 c 0,0.404989 -0.04939,0.429684 -0.306212,0.44944 -0.02469,0.02963 -0.02469,0.13335 0,0.162983 0.123473,-0.0049 0.306212,-0.0099 0.503768,-0.0099 0.197556,0 0.370418,0.0049 0.508707,0.0099 0.02469,-0.02963 0.02469,-0.13335 0,-0.162983 -0.27164,-0.01976 -0.31609,-0.04445 -0.31609,-0.44944 v -0.780347 c 0,-0.439562 -0.07408,-0.785285 -0.508707,-0.785285 -0.251883,0 -0.558095,0.09384 -0.814918,0.365479 -0.01482,0.01482 -0.04445,0.03951 -0.05433,-0.0049 -0.04445,-0.202495 -0.237067,-0.36054 -0.49389,-0.36054 -0.286456,0 -0.543279,0.167923 -0.750713,0.400051 -0.02469,0.02469 -0.05433,0.05927 -0.05927,0 z m 4.509211,1.531059 c 0.02963,0.153106 0.08396,0.286456 0.330907,0.286456 0.187678,0 0.365478,-0.08396 0.469195,-0.182739 -0.0099,-0.05927 -0.02963,-0.103717 -0.08396,-0.13335 -0.03457,0.02963 -0.118534,0.07902 -0.182739,0.07902 -0.143229,0 -0.148167,-0.192617 -0.148167,-0.419806 v -0.726019 c 0,-0.701323 -0.385235,-0.834674 -0.745774,-0.834674 -0.40499,0 -0.814919,0.266701 -0.814919,0.548218 0,0.118534 0.05927,0.177801 0.172862,0.177801 0.143228,0 0.232128,-0.103717 0.232128,-0.167923 0,-0.03457 -0.0049,-0.06915 -0.01482,-0.0889 -0.0049,-0.01482 -0.0099,-0.04445 -0.0099,-0.09878 0,-0.153106 0.207434,-0.207434 0.395112,-0.207434 0.167923,0 0.400051,0.08396 0.400051,0.642057 0,0.03457 -0.01482,0.05433 -0.02963,0.05927 l -0.424745,0.103717 c -0.474135,0.118533 -0.814919,0.380295 -0.814919,0.71614 0,0.40499 0.276578,0.533401 0.622301,0.533401 0.172862,0 0.321029,-0.03951 0.538341,-0.207433 l 0.09878,-0.07902 z m 0,-0.913696 v 0.651935 c 0,0.06421 -0.02963,0.09878 -0.06914,0.128411 -0.128412,0.103717 -0.296334,0.217312 -0.434623,0.217312 -0.246945,0 -0.355601,-0.197556 -0.355601,-0.350662 0,-0.222251 0.103717,-0.44944 0.469195,-0.543279 z m 3.002846,-0.760591 c 0.09384,0 0.182739,-0.0889 0.182739,-0.187678 0,-0.103717 -0.09384,-0.182739 -0.227189,-0.182739 -0.128412,0 -0.365479,0.08396 -0.49389,0.251884 -0.05927,-0.03951 -0.222251,-0.13829 -0.513646,-0.13829 -0.439562,0 -0.844552,0.296334 -0.844552,0.750713 0,0.266701 0.118534,0.419807 0.256823,0.553157 -0.138289,0.118534 -0.217312,0.330906 -0.217312,0.498829 0,0.1778 0.09878,0.316089 0.22719,0.380295 -0.266701,0.158045 -0.40499,0.385234 -0.40499,0.597607 0,0.429684 0.40499,0.563035 0.785285,0.563035 0.666752,0 1.387831,-0.321029 1.387831,-0.85443 0,-0.158045 -0.07408,-0.281517 -0.217312,-0.400051 -0.192617,-0.158045 -0.53834,-0.162984 -0.721079,-0.162984 -0.0889,0 -0.212373,0.0099 -0.330906,0.02469 -0.07408,0.0049 -0.123473,0.0099 -0.148167,0.0099 -0.143228,0 -0.31609,-0.06915 -0.31609,-0.281518 0,-0.09878 0.02963,-0.202495 0.0889,-0.286456 0.118534,0.06914 0.256823,0.103717 0.44944,0.103717 0.434623,0 0.834674,-0.271639 0.834674,-0.755652 0,-0.232128 -0.06914,-0.365478 -0.212372,-0.513645 0.03457,-0.04939 0.13335,-0.118534 0.197556,-0.118534 0.03457,0 0.06914,0.01482 0.09878,0.05927 0.01976,0.03951 0.08396,0.0889 0.138289,0.0889 z m -1.540937,1.960743 c 0.05433,0.01482 0.13335,0.02469 0.197556,0.02469 0.153106,0 0.291395,-0.01482 0.36054,-0.01482 0.246945,0 0.454378,0.0049 0.597607,0.08396 0.192617,0.108655 0.251883,0.1778 0.251883,0.306211 0,0.355601 -0.523523,0.543279 -0.968024,0.543279 -0.1778,0 -0.592668,-0.143228 -0.592668,-0.479073 0,-0.167923 0.0099,-0.291395 0.153106,-0.464257 z m 0.923574,-1.427342 c 0,0.459318 -0.232128,0.553157 -0.414867,0.553157 -0.414868,0 -0.459318,-0.350662 -0.459318,-0.666751 0,-0.345723 0.123472,-0.523524 0.395112,-0.523524 0.311151,0 0.479073,0.22719 0.479073,0.637118 z m 2.800347,0.918636 c -0.182739,0.187678 -0.325967,0.2667 -0.612424,0.2667 -0.1778,0 -0.385234,-0.103717 -0.53834,-0.3556 -0.09878,-0.162984 -0.158045,-0.390174 -0.158045,-0.67663 l 1.313748,0.0099 c 0.05927,0 0.09384,-0.02963 0.09384,-0.08396 0,-0.414868 -0.148167,-0.859369 -0.834674,-0.859369 -0.429684,0 -0.98778,0.409929 -0.98778,1.160642 0,0.276578 0.06914,0.543279 0.232128,0.730957 0.167923,0.197556 0.400051,0.316089 0.755652,0.316089 0.375356,0 0.642057,-0.172861 0.839613,-0.429684 -0.01482,-0.04939 -0.04445,-0.07408 -0.103717,-0.07902 z M 96.724298,92.82499 c 0.09384,-0.558096 0.439562,-0.602546 0.558096,-0.602546 0.187678,0 0.409929,0.103717 0.409929,0.518584 0,0.04445 -0.01976,0.06915 -0.07408,0.06915 z m 3.032469,0.380295 c 0,0.503768 0.335843,1.061863 1.037173,1.061863 0.31609,0 0.55809,-0.113594 0.72601,-0.276578 0.22225,-0.217312 0.32103,-0.528462 0.32103,-0.829735 0,-0.513646 -0.28151,-1.111253 -1.03717,-1.111253 -0.32596,0 -0.59266,0.133351 -0.7754,0.345723 -0.177804,0.212373 -0.271643,0.498829 -0.271643,0.80998 z m 0.972963,-0.982841 c 0.42475,0 0.68651,0.385234 0.68651,1.096436 0,0.622301 -0.32103,0.775407 -0.55316,0.775407 -0.51365,0 -0.68157,-0.622301 -0.68157,-1.002597 0,-0.429684 0.10372,-0.869246 0.54822,-0.869246 z m 2.18299,0.227189 c -0.01,-0.197556 -0.0148,-0.325967 -0.0395,-0.375356 -0.01,-0.0247 -0.0198,-0.03951 -0.0593,-0.03951 -0.13828,0.05433 -0.2667,0.09878 -0.60748,0.143228 -0.01,0.02963 0,0.108656 0.01,0.138289 0.2667,0.02469 0.32103,0.04939 0.32103,0.335845 v 0.963086 c 0,0.409928 -0.0593,0.429684 -0.36548,0.44944 -0.0296,0.02963 -0.0296,0.13335 0,0.162983 0.17286,-0.0049 0.36548,-0.0099 0.56303,-0.0099 0.19756,0 0.42475,0.0049 0.59761,0.0099 0.0296,-0.02963 0.0296,-0.13335 0,-0.162983 -0.34572,-0.02469 -0.40499,-0.03951 -0.40499,-0.44944 v -0.686507 c 0,-0.128412 0.0593,-0.242007 0.11853,-0.330907 0.0543,-0.07902 0.16793,-0.242006 0.22719,-0.242006 0.0445,0 0.0889,0.0099 0.12841,0.06421 0.0346,0.04939 0.0938,0.113595 0.1778,0.113595 0.11854,0 0.23213,-0.123473 0.23213,-0.246945 0,-0.09384 -0.0889,-0.237068 -0.29633,-0.237068 -0.23213,0 -0.43462,0.217312 -0.54822,0.409929 -0.0296,0.05433 -0.0543,0.01482 -0.0543,-0.0099 z m 3.02754,-0.1778 c -0.0296,0.02963 -0.0494,0.01976 -0.0494,-0.02469 v -0.908762 c 0,-0.321029 0.0197,-0.518585 0.0197,-0.518585 0,-0.03457 -0.0197,-0.04939 -0.0642,-0.04939 -0.12347,0.04939 -0.49389,0.118534 -0.69145,0.133351 -0.01,0.03951 0,0.118533 0.0296,0.148167 0.0148,0 0.0296,0 0.0444,0 0.21731,0.01482 0.27164,0.01482 0.27164,0.404989 v 2.410184 c 0,0.192617 -0.005,0.281517 -0.0198,0.350661 0.0247,0.03951 0.0494,0.05927 0.10866,0.05927 0.0296,-0.02963 0.079,-0.07408 0.11853,-0.118533 0.0494,-0.05927 0.079,-0.05927 0.13335,-0.01482 0.11359,0.09384 0.26176,0.123472 0.43462,0.123472 0.50377,0 1.0915,-0.459317 1.0915,-1.244602 0,-0.602546 -0.4445,-0.972964 -0.87419,-0.972964 -0.21237,0 -0.40005,0.08396 -0.55315,0.222251 z m 0.0346,0.153106 c 0.12841,-0.113595 0.27658,-0.158045 0.41981,-0.158045 0.30127,0 0.54821,0.365479 0.54821,0.844552 0,0.563034 -0.22719,0.98778 -0.69638,0.98778 -0.15311,0 -0.25682,-0.108656 -0.3556,-0.232128 v -1.234725 c 0,-0.103717 0.0197,-0.153106 0.084,-0.207434 z m 3.0226,1.555753 c 0.0296,0.153106 0.084,0.286456 0.3309,0.286456 0.18768,0 0.36548,-0.08396 0.4692,-0.182739 -0.01,-0.05927 -0.0296,-0.103717 -0.084,-0.13335 -0.0346,0.02963 -0.11854,0.07902 -0.18274,0.07902 -0.14323,0 -0.14817,-0.192617 -0.14817,-0.419806 v -0.726019 c 0,-0.701323 -0.38523,-0.834674 -0.74577,-0.834674 -0.40499,0 -0.81492,0.266701 -0.81492,0.548218 0,0.118534 0.0593,0.177801 0.17286,0.177801 0.14323,0 0.23213,-0.103717 0.23213,-0.167923 0,-0.03457 -0.005,-0.06915 -0.0148,-0.0889 -0.005,-0.01482 -0.01,-0.04445 -0.01,-0.09878 0,-0.153106 0.20744,-0.207434 0.39512,-0.207434 0.16792,0 0.40005,0.08396 0.40005,0.642057 0,0.03457 -0.0148,0.05433 -0.0296,0.05927 l -0.42474,0.103717 c -0.47414,0.118533 -0.81492,0.380295 -0.81492,0.71614 0,0.40499 0.27658,0.533401 0.6223,0.533401 0.17286,0 0.32103,-0.03951 0.53834,-0.207433 l 0.0988,-0.07902 z m 0,-0.913696 v 0.651935 c 0,0.06421 -0.0296,0.09878 -0.0691,0.128411 -0.12841,0.103717 -0.29633,0.217312 -0.43462,0.217312 -0.24695,0 -0.3556,-0.197556 -0.3556,-0.350662 0,-0.222251 0.10372,-0.44944 0.46919,-0.543279 z m 2.77565,0.701324 c -0.0197,-0.04445 -0.0593,-0.06421 -0.10371,-0.06914 -0.16793,0.217312 -0.3803,0.325967 -0.59267,0.325967 -0.36054,0 -0.66182,-0.365478 -0.66182,-0.94333 0,-0.543279 0.23707,-0.869246 0.56304,-0.869246 0.29139,0 0.33091,0.172862 0.35066,0.345723 0.0148,0.13335 0.084,0.1778 0.18768,0.1778 0.10372,0 0.24201,-0.06421 0.24201,-0.217311 0,-0.27164 -0.28152,-0.469196 -0.75566,-0.469196 -0.48895,0 -1.01247,0.439562 -1.01247,1.140886 0,0.637118 0.3556,1.07668 0.9779,1.07668 0.29634,0 0.5581,-0.09384 0.80504,-0.498828 z m 0.57291,-0.153106 c 0,0.409928 -0.0543,0.429684 -0.3309,0.44944 -0.0296,0.02963 -0.0296,0.13335 0,0.162983 0.16298,-0.0049 0.3309,-0.0099 0.52846,-0.0099 0.17286,0 0.33584,0.0049 0.44944,0.0099 0.0296,-0.02963 0.0296,-0.13335 0,-0.162983 -0.2025,-0.01976 -0.25682,-0.03951 -0.25682,-0.44944 v -0.429685 c 0.0938,0.0049 0.16298,0.0099 0.21237,0.0247 0.0543,0.03951 0.0988,0.08396 0.15804,0.162984 l 0.36054,0.484012 c 0.14323,0.192617 0.2025,0.286456 0.20744,0.345723 0,0.01482 0.005,0.02469 0.0198,0.02469 0.0988,-0.0049 0.20744,-0.0099 0.30621,-0.0099 0.15311,0 0.30622,0.0049 0.40499,0.0099 0.0296,-0.02963 0.0296,-0.13335 0,-0.162983 -0.16792,-0.01976 -0.29139,-0.03951 -0.42474,-0.207434 l -0.65194,-0.819858 c -0.0198,-0.02469 -0.0346,-0.04445 -0.0346,-0.06914 0,-0.01976 0,-0.02963 0.0198,-0.04939 l 0.43462,-0.44944 c 0.14817,-0.158045 0.32103,-0.197556 0.51858,-0.217312 0.0296,-0.02963 0.0296,-0.13335 0,-0.162983 -0.11359,0.0049 -0.25188,0.0099 -0.42968,0.0099 -0.18768,0 -0.37042,-0.0049 -0.48401,-0.0099 -0.0296,0.02963 -0.0296,0.13335 0,0.162983 0.27658,0.01976 0.15804,0.192617 0.11359,0.251884 -0.11359,0.143228 -0.2667,0.311151 -0.39511,0.40499 -0.10865,0.07902 -0.242,0.138289 -0.33584,0.153106 v -1.72368 c 0,-0.321029 0.0198,-0.518585 0.0198,-0.518585 0,-0.03457 -0.0198,-0.04939 -0.0642,-0.04939 -0.12348,0.04939 -0.49389,0.118534 -0.69145,0.133351 -0.01,0.03951 0,0.118533 0.0296,0.148167 0.0148,0 0.0296,0 0.0444,0 0.21731,0.01482 0.27164,0.01482 0.27164,0.404989 z m 4.29684,-1.308809 c 0.0938,0 0.18274,-0.0889 0.18274,-0.187678 0,-0.103717 -0.0938,-0.182739 -0.22719,-0.182739 -0.12841,0 -0.36548,0.08396 -0.49389,0.251884 -0.0593,-0.03951 -0.22225,-0.13829 -0.51364,-0.13829 -0.43957,0 -0.84456,0.296334 -0.84456,0.750713 0,0.266701 0.11854,0.419807 0.25683,0.553157 -0.13829,0.118534 -0.21731,0.330906 -0.21731,0.498829 0,0.1778 0.0988,0.316089 0.22719,0.380295 -0.26671,0.158045 -0.40499,0.385234 -0.40499,0.597607 0,0.429684 0.40499,0.563035 0.78528,0.563035 0.66675,0 1.38783,-0.321029 1.38783,-0.85443 0,-0.158045 -0.0741,-0.281517 -0.21731,-0.400051 -0.19262,-0.158045 -0.53834,-0.162984 -0.72108,-0.162984 -0.0889,0 -0.21237,0.0099 -0.33091,0.02469 -0.0741,0.0049 -0.12347,0.0099 -0.14816,0.0099 -0.14323,0 -0.31609,-0.06915 -0.31609,-0.281518 0,-0.09878 0.0296,-0.202495 0.0889,-0.286456 0.11853,0.06914 0.25682,0.103717 0.44944,0.103717 0.43462,0 0.83467,-0.271639 0.83467,-0.755652 0,-0.232128 -0.0691,-0.365478 -0.21237,-0.513645 0.0346,-0.04939 0.13335,-0.118534 0.19756,-0.118534 0.0346,0 0.0691,0.01482 0.0988,0.05927 0.0198,0.03951 0.084,0.0889 0.13829,0.0889 z m -1.54093,1.960743 c 0.0543,0.01482 0.13335,0.02469 0.19755,0.02469 0.15311,0 0.2914,-0.01482 0.36054,-0.01482 0.24695,0 0.45438,0.0049 0.59761,0.08396 0.19262,0.108655 0.25188,0.1778 0.25188,0.306211 0,0.355601 -0.52352,0.543279 -0.96802,0.543279 -0.1778,0 -0.59267,-0.143228 -0.59267,-0.479073 0,-0.167923 0.01,-0.291395 0.15311,-0.464257 z m 0.92357,-1.427342 c 0,0.459318 -0.23213,0.553157 -0.41487,0.553157 -0.41487,0 -0.45932,-0.350662 -0.45932,-0.666751 0,-0.345723 0.12348,-0.523524 0.39512,-0.523524 0.31115,0 0.47907,0.22719 0.47907,0.637118 z m 1.76318,-0.390173 c -0.01,-0.197556 -0.0148,-0.325967 -0.0395,-0.375356 -0.01,-0.0247 -0.0198,-0.03951 -0.0593,-0.03951 -0.13829,0.05433 -0.2667,0.09878 -0.60749,0.143228 -0.01,0.02963 0,0.108656 0.01,0.138289 0.2667,0.02469 0.32103,0.04939 0.32103,0.335845 v 0.963086 c 0,0.409928 -0.0593,0.429684 -0.36548,0.44944 -0.0296,0.02963 -0.0296,0.13335 0,0.162983 0.17286,-0.0049 0.36548,-0.0099 0.56304,-0.0099 0.19755,0 0.42474,0.0049 0.5976,0.0099 0.0296,-0.02963 0.0296,-0.13335 0,-0.162983 -0.34572,-0.02469 -0.40499,-0.03951 -0.40499,-0.44944 v -0.686507 c 0,-0.128412 0.0593,-0.242007 0.11854,-0.330907 0.0543,-0.07902 0.16792,-0.242006 0.22719,-0.242006 0.0444,0 0.0889,0.0099 0.12841,0.06421 0.0346,0.04939 0.0938,0.113595 0.1778,0.113595 0.11853,0 0.23213,-0.123473 0.23213,-0.246945 0,-0.09384 -0.0889,-0.237068 -0.29634,-0.237068 -0.23212,0 -0.43462,0.217312 -0.54821,0.409929 -0.0296,0.05433 -0.0543,0.01482 -0.0543,-0.0099 z m 1.131,0.755652 c 0,0.503768 0.33584,1.061863 1.03717,1.061863 0.31609,0 0.55809,-0.113594 0.72601,-0.276578 0.22225,-0.217312 0.32103,-0.528462 0.32103,-0.829735 0,-0.513646 -0.28151,-1.111253 -1.03717,-1.111253 -0.32596,0 -0.59266,0.133351 -0.7754,0.345723 -0.1778,0.212373 -0.27164,0.498829 -0.27164,0.80998 z m 0.97296,-0.982841 c 0.42475,0 0.68651,0.385234 0.68651,1.096436 0,0.622301 -0.32103,0.775407 -0.55316,0.775407 -0.51365,0 -0.68157,-0.622301 -0.68157,-1.002597 0,-0.429684 0.10372,-0.869246 0.54822,-0.869246 z m 2.38549,2.044704 c 0.19261,0 0.42474,-0.09878 0.66675,-0.296334 0.0247,-0.01976 0.0691,-0.02963 0.0741,0.0049 0.0148,0.123473 0.0543,0.291395 0.0543,0.291395 0.0395,0.01482 0.0642,0.0099 0.0938,0 0.10866,-0.0889 0.28152,-0.162983 0.58279,-0.197556 0.0296,-0.02963 0.0296,-0.103716 0,-0.13335 -0.31609,-0.02469 -0.36054,-0.118533 -0.36054,-0.36054 v -0.948268 c 0,-0.148167 0.0198,-0.508707 0.0198,-0.508707 0,-0.01482 -0.0148,-0.02963 -0.0395,-0.02963 -0.0247,0.0049 -0.0988,0.0099 -0.17286,0.0099 -0.15804,0 -0.33584,-0.0049 -0.50377,-0.0099 -0.0296,0.02963 -0.0296,0.13335 0,0.162983 0.24201,0.01482 0.30622,0.07408 0.30622,0.400051 V 93.6053 c 0,0.09384 -0.01,0.13335 -0.079,0.192617 -0.18273,0.158045 -0.37041,0.237067 -0.49389,0.237067 -0.14816,0 -0.39511,-0.06914 -0.39511,-0.508707 v -0.898879 c 0,-0.148167 0.0198,-0.508707 0.0198,-0.508707 0,-0.01482 -0.0148,-0.02963 -0.0395,-0.02963 -0.0247,0.0049 -0.0988,0.0099 -0.17286,0.0099 -0.15805,0 -0.33585,-0.0049 -0.50377,-0.0099 -0.0296,0.02963 -0.0296,0.13335 0,0.162983 0.23706,0.01976 0.30621,0.07408 0.30621,0.395112 v 0.948269 c 0,0.340784 0.14817,0.67169 0.63712,0.67169 z m 2.45956,-1.817515 c -0.0296,0.03457 -0.0593,0.04445 -0.0593,0 -0.005,-0.13335 -0.0148,-0.325967 -0.0395,-0.375356 -0.01,-0.0247 -0.0198,-0.03951 -0.0593,-0.03951 -0.13829,0.05433 -0.2667,0.09878 -0.60749,0.143228 -0.01,0.02963 0,0.108656 0.01,0.138289 0.2667,0.02469 0.32103,0.04939 0.32103,0.335845 v 0.963086 c 0,0.404989 -0.0494,0.424745 -0.34573,0.44944 -0.0296,0.02963 -0.0296,0.13335 0,0.162983 0.14817,-0.0049 0.34573,-0.0099 0.54328,-0.0099 0.19756,0 0.34573,0.0049 0.49389,0.0099 0.0296,-0.02963 0.0296,-0.13335 0,-0.162983 -0.25188,-0.02469 -0.30127,-0.04445 -0.30127,-0.44944 v -0.80998 c 0,-0.103717 0.0445,-0.162984 0.084,-0.207434 0.18768,-0.182739 0.40993,-0.291395 0.60255,-0.291395 0.0988,0 0.20249,0.06421 0.26176,0.177801 0.0494,0.09878 0.0593,0.232128 0.0593,0.380295 v 0.750713 c 0,0.404989 -0.0494,0.424745 -0.30622,0.44944 -0.0247,0.02963 -0.0247,0.13335 0,0.162983 0.14817,-0.0049 0.30622,-0.0099 0.50377,-0.0099 0.19756,0 0.37536,0.0049 0.52353,0.0099 0.0247,-0.02963 0.0247,-0.13335 0,-0.162983 -0.27658,-0.02469 -0.33091,-0.04445 -0.33091,-0.44944 v -0.735896 c 0,-0.27164 -0.0198,-0.508707 -0.13335,-0.661813 -0.084,-0.108656 -0.23707,-0.167923 -0.40993,-0.167923 -0.24201,0 -0.51858,0.06421 -0.80998,0.400051 z m 3.41772,1.521181 c 0.0247,-0.01976 0.0691,-0.02963 0.0741,0.0049 0.0148,0.118534 0.0543,0.291395 0.0543,0.291395 0.0395,0.01482 0.0642,0.0099 0.0938,0 0.10866,-0.0889 0.28152,-0.162983 0.58279,-0.197556 0.0296,-0.02963 0.0296,-0.103716 0,-0.13335 -0.31609,-0.02469 -0.36054,-0.118533 -0.36054,-0.36054 v -2.237282 c 0,-0.321029 0.0198,-0.518585 0.0198,-0.518585 0,-0.03457 -0.0198,-0.04939 -0.0642,-0.04939 -0.12347,0.04939 -0.49389,0.118534 -0.69145,0.133351 -0.01,0.03951 0,0.118533 0.0296,0.148167 0.0148,0 0.0296,0 0.0444,0 0.21731,0.01482 0.27164,0.01482 0.27164,0.404989 v 0.63218 c 0,0.03457 -0.01,0.04445 -0.0445,0.04445 -0.0198,0 -0.22225,-0.08396 -0.38524,-0.08396 -0.32596,0 -0.54328,0.108656 -0.74083,0.296334 -0.21237,0.212373 -0.34079,0.503768 -0.34079,0.869247 0,0.607484 0.30622,1.051985 0.83962,1.051985 0.19261,0 0.37535,-0.09878 0.61736,-0.296334 z m 0.0543,-0.365478 c 0,0.09384 -0.01,0.13335 -0.079,0.192617 -0.18273,0.158045 -0.34078,0.237067 -0.46425,0.237067 -0.2667,0 -0.54328,-0.291395 -0.54328,-0.908757 0,-0.355601 0.0691,-0.553157 0.14323,-0.656874 0.1531,-0.232128 0.36054,-0.246945 0.45932,-0.246945 0.1778,0 0.30127,0.06421 0.40005,0.1778 0.0691,0.07902 0.084,0.113595 0.084,0.266701 z m 3.99555,0.162984 c -0.0198,-0.04445 -0.0593,-0.06421 -0.10372,-0.06914 -0.16792,0.217312 -0.38029,0.325967 -0.59266,0.325967 -0.36054,0 -0.66182,-0.365478 -0.66182,-0.94333 0,-0.543279 0.23707,-0.869246 0.56304,-0.869246 0.29139,0 0.3309,0.172862 0.35066,0.345723 0.0148,0.13335 0.084,0.1778 0.18768,0.1778 0.10371,0 0.242,-0.06421 0.242,-0.217311 0,-0.27164 -0.28151,-0.469196 -0.75565,-0.469196 -0.48895,0 -1.01247,0.439562 -1.01247,1.140886 0,0.637118 0.3556,1.07668 0.9779,1.07668 0.29633,0 0.5581,-0.09384 0.80504,-0.498828 z m 0.35066,-0.563035 c 0,0.503768 0.33584,1.061863 1.03717,1.061863 0.31609,0 0.55809,-0.113594 0.72602,-0.276578 0.22225,-0.217312 0.32102,-0.528462 0.32102,-0.829735 0,-0.513646 -0.28151,-1.111253 -1.03716,-1.111253 -0.32597,0 -0.59267,0.133351 -0.77541,0.345723 -0.1778,0.212373 -0.27164,0.498829 -0.27164,0.80998 z m 0.97296,-0.982841 c 0.42475,0 0.68651,0.385234 0.68651,1.096436 0,0.622301 -0.32103,0.775407 -0.55316,0.775407 -0.51364,0 -0.68157,-0.622301 -0.68157,-1.002597 0,-0.429684 0.10372,-0.869246 0.54822,-0.869246 z m 1.78294,1.39277 c 0,0.409928 -0.0543,0.434623 -0.3556,0.44944 -0.0296,0.02963 -0.0296,0.13335 0,0.162983 0.17286,-0.0049 0.3556,-0.0099 0.55316,-0.0099 0.19756,0 0.38523,0.0049 0.54822,0.0099 0.0296,-0.02963 0.0296,-0.13335 0,-0.162983 -0.30128,-0.01482 -0.3556,-0.03951 -0.3556,-0.44944 v -2.276833 c 0,-0.321029 0.0197,-0.518585 0.0197,-0.518585 0,-0.03457 -0.0197,-0.04939 -0.0642,-0.04939 -0.12348,0.04939 -0.49389,0.118534 -0.69145,0.133351 -0.01,0.03951 0,0.118533 0.0296,0.148167 0.28646,0.01975 0.31609,0.03457 0.31609,0.404989 z m 1.03717,-0.409929 c 0,0.503768 0.33585,1.061863 1.03717,1.061863 0.31609,0 0.5581,-0.113594 0.72602,-0.276578 0.22225,-0.217312 0.32103,-0.528462 0.32103,-0.829735 0,-0.513646 -0.28152,-1.111253 -1.03717,-1.111253 -0.32597,0 -0.59267,0.133351 -0.77541,0.345723 -0.1778,0.212373 -0.27164,0.498829 -0.27164,0.80998 z m 0.97297,-0.982841 c 0.42474,0 0.6865,0.385234 0.6865,1.096436 0,0.622301 -0.32102,0.775407 -0.55315,0.775407 -0.51365,0 -0.68157,-0.622301 -0.68157,-1.002597 0,-0.429684 0.10372,-0.869246 0.54822,-0.869246 z m 2.18299,0.227189 c -0.01,-0.197556 -0.0148,-0.325967 -0.0395,-0.375356 -0.01,-0.0247 -0.0198,-0.03951 -0.0593,-0.03951 -0.13829,0.05433 -0.2667,0.09878 -0.60748,0.143228 -0.01,0.02963 0,0.108656 0.01,0.138289 0.2667,0.02469 0.32102,0.04939 0.32102,0.335845 v 0.963086 c 0,0.409928 -0.0593,0.429684 -0.36547,0.44944 -0.0296,0.02963 -0.0296,0.13335 0,0.162983 0.17286,-0.0049 0.36547,-0.0099 0.56303,-0.0099 0.19756,0 0.42475,0.0049 0.59761,0.0099 0.0296,-0.02963 0.0296,-0.13335 0,-0.162983 -0.34573,-0.02469 -0.40499,-0.03951 -0.40499,-0.44944 v -0.686507 c 0,-0.128412 0.0593,-0.242007 0.11853,-0.330907 0.0543,-0.07902 0.16792,-0.242006 0.22719,-0.242006 0.0445,0 0.0889,0.0099 0.12841,0.06421 0.0346,0.04939 0.0938,0.113595 0.1778,0.113595 0.11854,0 0.23213,-0.123473 0.23213,-0.246945 0,-0.09384 -0.0889,-0.237068 -0.29633,-0.237068 -0.23213,0 -0.43463,0.217312 -0.54822,0.409929 -0.0296,0.05433 -0.0543,0.01482 -0.0543,-0.0099 z"
       id="text1"
       aria-label="image or background color" />
    <path
       style="fill:#000000;fill-opacity:1;stroke:#000000;stroke-width:0.2;stroke-dasharray:none;stroke-dashoffset:0;stroke-opacity:1"
       d="M 84.569358,136.24266 70.46903,139.51039"
       id="path2"
       sodipodi:nodetypes="cc" />
    <path
       style="fill:#000000;fill-opacity:1;stroke:#000000;stroke-width:0.2;stroke-dasharray:none;stroke-dashoffset:0;stroke-opacity:1"
       d="m 83.961314,94.186702 -9.3271,2.012312"
       id="path2-1-8"
       sodipodi:nodetypes="cc" />
    <path
       style="font-size:4.93889px;font-family:'Libertinus Serif';-inkscape-font-specification:'Libertinus Serif';stroke-width:0.2"
       d="m 86.692943,134.74038 c 0,0.22225 0.01976,1.36314 1.047045,2.25214 0.04939,-0.01 0.0889,-0.0444 0.103716,-0.084 -0.162983,-0.18767 -0.740833,-0.86924 -0.740833,-2.16817 0,-1.29893 0.582789,-1.98049 0.740833,-2.15829 -0.01482,-0.0494 -0.04939,-0.084 -0.103716,-0.0889 -0.587728,0.50376 -1.047045,1.32856 -1.047045,2.24719 z m 1.466842,-0.87418 c -0.06914,0 -0.0889,0.0593 -0.0889,0.0988 v 0.0642 c 0,0.0247 0.0049,0.0296 0.02469,0.0296 h 0.291394 v 1.4866 c 0,0.35066 0.153106,0.48895 0.380295,0.48895 0.227189,0 0.474133,-0.10865 0.66675,-0.32597 -0.0099,-0.0494 -0.03951,-0.079 -0.0889,-0.084 -0.128411,0.0988 -0.276578,0.13829 -0.404989,0.13829 -0.13335,0 -0.162983,-0.14816 -0.162983,-0.45438 v -1.24953 h 0.513644 c 0.04939,0 0.118534,-0.0198 0.118534,-0.0642 v -0.0988 c 0,-0.0198 -0.01482,-0.0296 -0.03951,-0.0296 h -0.592667 v -0.19262 c 0,-0.32103 0.01976,-0.51858 0.01976,-0.51858 0,-0.0296 -0.01482,-0.0444 -0.03951,-0.0444 -0.01976,0 -0.06421,0.0198 -0.108655,0.0444 -0.05433,0.0296 -0.103717,0.0543 -0.167923,0.0691 -0.05927,0.0198 -0.108655,0.0346 -0.108655,0.0691 0,0.0593 0.01482,0.0247 0.01482,0.57291 z m 3.254729,1.65947 c -0.182739,0.18767 -0.325967,0.2667 -0.612422,0.2667 -0.1778,0 -0.385234,-0.10372 -0.538339,-0.3556 -0.09878,-0.16299 -0.158045,-0.39018 -0.158045,-0.67663 l 1.313745,0.01 c 0.05927,0 0.09384,-0.0296 0.09384,-0.084 0,-0.41486 -0.148167,-0.85936 -0.834673,-0.85936 -0.429683,0 -0.987778,0.40993 -0.987778,1.16064 0,0.27657 0.06914,0.54327 0.232128,0.73095 0.167922,0.19756 0.40005,0.31609 0.75565,0.31609 0.375356,0 0.642056,-0.17286 0.839612,-0.42968 -0.01482,-0.0494 -0.04445,-0.0741 -0.103717,-0.079 z m -1.293989,-0.93345 c 0.09384,-0.5581 0.439561,-0.60255 0.558094,-0.60255 0.187678,0 0.409928,0.10372 0.409928,0.51858 0,0.0444 -0.01976,0.0692 -0.07408,0.0692 z m 2.434866,-0.37536 c -0.0049,-0.14817 -0.01482,-0.32597 -0.03951,-0.37536 -0.0099,-0.0247 -0.01976,-0.0395 -0.05927,-0.0395 -0.138289,0.0543 -0.2667,0.0988 -0.607484,0.14323 -0.0099,0.0296 0,0.10866 0.0099,0.13829 0.2667,0.0247 0.321028,0.0494 0.321028,0.33584 v 0.96309 c 0,0.40499 -0.06421,0.42968 -0.335845,0.44944 -0.02963,0.0296 -0.02963,0.13335 0,0.16298 0.148167,-0.005 0.335845,-0.01 0.533401,-0.01 0.197555,0 0.350661,0.005 0.498827,0.01 0.02963,-0.0296 0.02963,-0.13335 0,-0.16298 -0.251883,-0.0247 -0.306211,-0.0445 -0.306211,-0.44944 v -0.80998 c 0,-0.10372 0.04445,-0.16298 0.08396,-0.20743 0.197556,-0.19262 0.380295,-0.2914 0.533401,-0.2914 0.187677,0 0.325966,0.11854 0.325966,0.44944 v 0.85937 c 0,0.40499 -0.03951,0.42968 -0.306211,0.44944 -0.02469,0.0296 -0.02469,0.13335 0,0.16298 0.123472,-0.005 0.306211,-0.01 0.503767,-0.01 0.197555,0 0.360539,0.005 0.484011,0.01 0.02469,-0.0296 0.02469,-0.13335 0,-0.16298 -0.246944,-0.0198 -0.291394,-0.0445 -0.291394,-0.44944 v -0.78529 c 0,-0.0691 0,-0.13828 -0.0049,-0.19755 0.237066,-0.26176 0.459316,-0.32597 0.651933,-0.32597 0.187678,0 0.296334,0.10866 0.296334,0.43956 v 0.86925 c 0,0.40499 -0.04939,0.42968 -0.306212,0.44944 -0.02469,0.0296 -0.02469,0.13335 0,0.16298 0.123473,-0.005 0.306212,-0.01 0.503767,-0.01 0.197556,0 0.370417,0.005 0.508706,0.01 0.02469,-0.0296 0.02469,-0.13335 0,-0.16298 -0.271639,-0.0198 -0.316089,-0.0445 -0.316089,-0.44944 v -0.78035 c 0,-0.43956 -0.07408,-0.78528 -0.508706,-0.78528 -0.251883,0 -0.558094,0.0938 -0.814917,0.36548 -0.01482,0.0148 -0.04445,0.0395 -0.05433,-0.005 -0.04445,-0.2025 -0.237067,-0.36054 -0.493889,-0.36054 -0.286456,0 -0.543278,0.16792 -0.750712,0.40005 -0.02469,0.0247 -0.05433,0.0593 -0.05927,0 z m 3.832573,-0.0494 c -0.0049,-0.14817 -0.01482,-0.27658 -0.03951,-0.32597 -0.0099,-0.0247 -0.01976,-0.0395 -0.05927,-0.0395 -0.138288,0.0543 -0.2667,0.0988 -0.607483,0.14323 -0.0099,0.0296 0,0.10866 0.0099,0.13829 0.2667,0.0247 0.321028,0.0494 0.321028,0.33584 v 2.10891 c 0,0.40993 -0.05433,0.43462 -0.3556,0.44944 -0.02963,0.0296 -0.02963,0.13335 0,0.16298 0.172861,-0.005 0.3556,-0.01 0.553155,-0.01 0.197556,0 0.434623,0.005 0.597606,0.01 0.02963,-0.0296 0.02963,-0.13335 0,-0.16298 -0.350661,-0.0198 -0.404989,-0.0395 -0.404989,-0.44944 v -0.5334 c 0,-0.0642 0.01976,-0.0593 0.06914,-0.0395 0.123473,0.0494 0.271639,0.079 0.429684,0.079 0.276578,0 0.523522,-0.084 0.726017,-0.27658 0.232127,-0.22719 0.365478,-0.5334 0.365478,-0.93345 0,-0.52352 -0.370417,-1.00753 -0.874184,-1.00753 -0.227189,0 -0.479072,0.14817 -0.676628,0.37042 -0.02963,0.0296 -0.04939,0.0296 -0.05433,-0.0198 z m 0.09384,0.18274 c 0.128411,-0.15804 0.3556,-0.30621 0.498828,-0.30621 0.316089,0 0.587728,0.3556 0.587728,0.91369 0,0.40499 -0.143228,0.90876 -0.696384,0.90876 -0.0889,0 -0.261761,-0.0247 -0.350661,-0.10372 -0.09878,-0.0889 -0.118533,-0.11853 -0.118533,-0.29633 v -0.89888 c 0,-0.10372 0.01976,-0.14817 0.07902,-0.21731 z m 2.168168,1.03223 c 0,0.40993 -0.05433,0.43462 -0.3556,0.44944 -0.02963,0.0296 -0.02963,0.13335 0,0.16298 0.172861,-0.005 0.3556,-0.01 0.553156,-0.01 0.197555,0 0.385233,0.005 0.548217,0.01 0.02963,-0.0296 0.02963,-0.13335 0,-0.16298 -0.301273,-0.0148 -0.355601,-0.0395 -0.355601,-0.44944 v -2.27683 c 0,-0.32103 0.01976,-0.51858 0.01976,-0.51858 0,-0.0346 -0.01976,-0.0494 -0.06421,-0.0494 -0.123472,0.0494 -0.493889,0.11853 -0.691444,0.13335 -0.0099,0.0395 0,0.11853 0.02963,0.14816 0.286456,0.0198 0.316089,0.0346 0.316089,0.40499 z m 2.281768,0.36548 c 0.0296,0.1531 0.084,0.28645 0.3309,0.28645 0.18768,0 0.36548,-0.084 0.4692,-0.18274 -0.01,-0.0593 -0.0296,-0.10371 -0.084,-0.13335 -0.0346,0.0296 -0.11854,0.079 -0.18274,0.079 -0.14323,0 -0.14817,-0.19261 -0.14817,-0.4198 v -0.72602 c 0,-0.70132 -0.38523,-0.83467 -0.74577,-0.83467 -0.40499,0 -0.814916,0.2667 -0.814916,0.54822 0,0.11853 0.05927,0.1778 0.172861,0.1778 0.143225,0 0.232125,-0.10372 0.232125,-0.16793 0,-0.0346 -0.005,-0.0691 -0.0148,-0.0889 -0.005,-0.0148 -0.01,-0.0444 -0.01,-0.0988 0,-0.15311 0.20743,-0.20744 0.39511,-0.20744 0.16792,0 0.40005,0.084 0.40005,0.64206 0,0.0346 -0.0148,0.0543 -0.0296,0.0593 l -0.42475,0.10371 c -0.47413,0.11854 -0.814915,0.3803 -0.814915,0.71614 0,0.40499 0.276578,0.5334 0.622295,0.5334 0.17287,0 0.32103,-0.0395 0.53834,-0.20743 l 0.0988,-0.079 z m 0,-0.9137 v 0.65193 c 0,0.0642 -0.0296,0.0988 -0.0692,0.12842 -0.12841,0.10371 -0.29633,0.21731 -0.43462,0.21731 -0.24694,0 -0.3556,-0.19756 -0.3556,-0.35066 0,-0.22225 0.10372,-0.44944 0.4692,-0.54328 z m 1.02234,-0.96802 c -0.0691,0 -0.0889,0.0593 -0.0889,0.0988 v 0.0642 c 0,0.0247 0.005,0.0296 0.0247,0.0296 h 0.29139 v 1.4866 c 0,0.35066 0.15311,0.48895 0.3803,0.48895 0.22719,0 0.47413,-0.10865 0.66675,-0.32597 -0.01,-0.0494 -0.0395,-0.079 -0.0889,-0.084 -0.12841,0.0988 -0.27658,0.13829 -0.40499,0.13829 -0.13335,0 -0.16299,-0.14816 -0.16299,-0.45438 v -1.24953 h 0.51365 c 0.0494,0 0.11853,-0.0198 0.11853,-0.0642 v -0.0988 c 0,-0.0198 -0.0148,-0.0296 -0.0395,-0.0296 h -0.59267 v -0.19262 c 0,-0.32103 0.0198,-0.51858 0.0198,-0.51858 0,-0.0296 -0.0148,-0.0444 -0.0395,-0.0444 -0.0198,0 -0.0642,0.0198 -0.10866,0.0444 -0.0543,0.0296 -0.10371,0.0543 -0.16792,0.0691 -0.0593,0.0198 -0.10865,0.0346 -0.10865,0.0691 0,0.0593 0.0148,0.0247 0.0148,0.57291 z m 3.25473,1.65947 c -0.18274,0.18767 -0.32597,0.2667 -0.61242,0.2667 -0.1778,0 -0.38524,-0.10372 -0.53834,-0.3556 -0.0988,-0.16298 -0.15805,-0.39017 -0.15805,-0.67662 l 1.31375,0.01 c 0.0593,0 0.0938,-0.0296 0.0938,-0.084 0,-0.41486 -0.14817,-0.85936 -0.83467,-0.85936 -0.42969,0 -0.98778,0.40993 -0.98778,1.16064 0,0.27657 0.0691,0.54327 0.23213,0.73095 0.16792,0.19756 0.40005,0.31609 0.75565,0.31609 0.37535,0 0.64205,-0.17286 0.83961,-0.42968 -0.0148,-0.0494 -0.0444,-0.0741 -0.10372,-0.079 z m -1.29399,-0.93345 c 0.0938,-0.5581 0.43956,-0.60255 0.5581,-0.60255 0.18767,0 0.40992,0.10372 0.40992,0.51858 0,0.0444 -0.0198,0.0692 -0.0741,0.0692 z m 3.65476,-0.55316 c -0.0296,0.0296 -0.0494,0.0198 -0.0494,-0.0247 v -0.90876 c 0,-0.32103 0.0198,-0.51858 0.0198,-0.51858 0,-0.0346 -0.0198,-0.0494 -0.0642,-0.0494 -0.12347,0.0494 -0.49388,0.11853 -0.69144,0.13335 -0.01,0.0395 0,0.11853 0.0296,0.14816 0.0148,0 0.0296,0 0.0444,0 0.21731,0.0148 0.27164,0.0148 0.27164,0.40499 v 2.41018 c 0,0.19262 -0.005,0.28152 -0.0198,0.35066 0.0247,0.0395 0.0494,0.0593 0.10865,0.0593 0.0296,-0.0296 0.079,-0.0741 0.11854,-0.11853 0.0494,-0.0593 0.079,-0.0593 0.13335,-0.0148 0.11359,0.0938 0.26176,0.12347 0.43462,0.12347 0.50377,0 1.09149,-0.45932 1.09149,-1.2446 0,-0.60254 -0.4445,-0.97296 -0.87418,-0.97296 -0.21237,0 -0.40005,0.084 -0.55316,0.22225 z m 0.0346,0.15311 c 0.12841,-0.1136 0.27657,-0.15805 0.4198,-0.15805 0.30127,0 0.54822,0.36548 0.54822,0.84455 0,0.56303 -0.22719,0.98778 -0.69639,0.98778 -0.1531,0 -0.25682,-0.10866 -0.3556,-0.23213 v -1.23472 c 0,-0.10372 0.0198,-0.15311 0.084,-0.20743 z m 2.04469,1.19027 c 0,0.40993 -0.0543,0.43462 -0.3556,0.44944 -0.0296,0.0296 -0.0296,0.13335 0,0.16298 0.17286,-0.005 0.3556,-0.01 0.55315,-0.01 0.19756,0 0.38524,0.005 0.54822,0.01 0.0296,-0.0296 0.0296,-0.13335 0,-0.16298 -0.30127,-0.0148 -0.3556,-0.0395 -0.3556,-0.44944 v -2.27683 c 0,-0.32103 0.0198,-0.51858 0.0198,-0.51858 0,-0.0346 -0.0198,-0.0494 -0.0642,-0.0494 -0.12347,0.0494 -0.49389,0.11853 -0.69144,0.13335 -0.01,0.0395 0,0.11853 0.0296,0.14816 0.28645,0.0198 0.31609,0.0346 0.31609,0.40499 z m 1.03716,-0.40993 c 0,0.50377 0.33585,1.06186 1.03717,1.06186 0.31609,0 0.5581,-0.11359 0.72602,-0.27658 0.22225,-0.21731 0.32103,-0.52846 0.32103,-0.82973 0,-0.51364 -0.28152,-1.11125 -1.03717,-1.11125 -0.32597,0 -0.59267,0.13335 -0.77541,0.34572 -0.1778,0.21237 -0.27164,0.49883 -0.27164,0.80998 z m 0.97297,-0.98284 c 0.42474,0 0.6865,0.38523 0.6865,1.09643 0,0.6223 -0.32103,0.77541 -0.55315,0.77541 -0.51365,0 -0.68157,-0.6223 -0.68157,-1.00259 0,-0.42969 0.10372,-0.86925 0.54822,-0.86925 z m 3.31399,1.54587 c -0.0198,-0.0445 -0.0593,-0.0642 -0.10372,-0.0691 -0.16792,0.21731 -0.38029,0.32597 -0.59266,0.32597 -0.36054,0 -0.66181,-0.36548 -0.66181,-0.94333 0,-0.54328 0.23706,-0.86925 0.56303,-0.86925 0.29139,0 0.3309,0.17286 0.35066,0.34573 0.0148,0.13335 0.084,0.1778 0.18768,0.1778 0.10371,0 0.242,-0.0642 0.242,-0.21732 0,-0.27163 -0.28151,-0.46919 -0.75565,-0.46919 -0.48895,0 -1.01247,0.43956 -1.01247,1.14088 0,0.63712 0.3556,1.07668 0.9779,1.07668 0.29633,0 0.5581,-0.0938 0.80504,-0.49883 z m 0.57291,-0.1531 c 0,0.40993 -0.0543,0.42968 -0.33091,0.44944 -0.0296,0.0296 -0.0296,0.13335 0,0.16298 0.16299,-0.005 0.33091,-0.01 0.52846,-0.01 0.17287,0 0.33585,0.005 0.44944,0.01 0.0296,-0.0296 0.0296,-0.13335 0,-0.16298 -0.20249,-0.0198 -0.25682,-0.0395 -0.25682,-0.44944 v -0.42969 c 0.0938,0.005 0.16298,0.01 0.21237,0.0247 0.0543,0.0395 0.0988,0.084 0.15805,0.16298 l 0.36054,0.48401 c 0.14322,0.19262 0.20249,0.28646 0.20743,0.34573 0,0.0148 0.005,0.0247 0.0198,0.0247 0.0988,-0.005 0.20743,-0.01 0.30621,-0.01 0.1531,0 0.30621,0.005 0.40499,0.01 0.0296,-0.0296 0.0296,-0.13335 0,-0.16298 -0.16793,-0.0198 -0.2914,-0.0395 -0.42475,-0.20744 l -0.65193,-0.81985 c -0.0198,-0.0247 -0.0346,-0.0444 -0.0346,-0.0691 0,-0.0198 0,-0.0296 0.0198,-0.0494 l 0.43462,-0.44943 c 0.14817,-0.15805 0.32103,-0.19756 0.51859,-0.21732 0.0296,-0.0296 0.0296,-0.13335 0,-0.16298 -0.1136,0.005 -0.25189,0.01 -0.42969,0.01 -0.18767,0 -0.37041,-0.005 -0.48401,-0.01 -0.0296,0.0296 -0.0296,0.13335 0,0.16298 0.27658,0.0198 0.15805,0.19262 0.1136,0.25189 -0.1136,0.14323 -0.2667,0.31115 -0.39511,0.40499 -0.10866,0.079 -0.24201,0.13829 -0.33585,0.1531 v -1.72367 c 0,-0.32103 0.0198,-0.51858 0.0198,-0.51858 0,-0.0346 -0.0198,-0.0494 -0.0642,-0.0494 -0.12347,0.0494 -0.49389,0.11853 -0.69144,0.13335 -0.01,0.0395 0,0.11853 0.0296,0.14816 0.0148,0 0.0296,0 0.0445,0 0.21731,0.0148 0.27164,0.0148 0.27164,0.40499 z m 3.35844,-0.64206 c 0,-0.22225 -0.0198,-1.36313 -1.04705,-2.25213 -0.0494,0.01 -0.0889,0.0444 -0.10371,0.084 0.16298,0.18768 0.74083,0.86924 0.74083,2.16817 0,1.29893 -0.58279,1.9805 -0.74083,2.1583 0.0148,0.0494 0.0494,0.084 0.10371,0.0889 0.58773,-0.50377 1.04705,-1.32856 1.04705,-2.2472 z"
       id="text2"
       aria-label="(template block)" />
    <circle
       id="path4"
       style="fill:#000000;stroke:#636363;stroke-width:0.264583;stroke-opacity:1"
       cx="43.526138"
       cy="107.09274"
       r="0.018504769" />
    <circle
       id="path5"
       style="fill:#000000;stroke:#636363;stroke-width:0.264583;stroke-opacity:1"
       cx="43.241123"
       cy="107.37057"
       r="0.018504769" />
    <path
       style="fill:none;fill-opacity:1;stroke:#636363;stroke-width:0.2;stroke-dasharray:none;stroke-dashoffset:0;stroke-opacity:1"
       d="m 43.692838,123.15446 c 0.0931,-0.71805 0.590194,-0.92027 1.051169,-1.4726 0.0083,-0.01 0.202851,-0.32615 0.37067,-0.26223 0.176769,0.0674 0.06084,0.29849 0.06084,0.45426 0,0.39342 -0.267131,0.68176 -0.665564,1.02457 -0.06371,0.0547 -0.102604,0.13675 -0.191124,0.16448 -0.205334,0.0643 -0.71138,0.23619 -0.625995,0.0915 0.149079,-0.25258 0.652125,-0.35647 0.91268,-0.57726 0.122477,-0.10383 0.107816,-0.24143 0.191119,-0.35813 0.109946,-0.15403 0.433741,-0.50937 0.668928,-0.64013 0.21752,-0.121 1.466584,0.16755 1.697326,0.20281 0.221244,0.0338 0.87723,0.0636 1.082527,0.065 0.113755,5e-4 1.033583,0.04 1.318069,-0.10248 0.364954,-0.18271 -0.259925,-0.75835 -0.498711,-0.79745 -0.221034,-0.0362 -0.853474,0.299 -1.033624,0.381 -0.458322,0.2086 -0.860794,0.32279 -0.860794,0.67588 0,0.0425 -0.02818,0.0947 0,0.12759 0.06,0.0701 0.204294,0.0819 0.284817,0.13947 0.0051,0.004 0.115123,0.16975 0.19112,0.15834 0.04059,-0.007 0.04985,-0.0552 0.08623,-0.0742 0.493865,-0.25778 0.719095,-0.32082 0.949355,-0.83007 0.0764,-0.16895 0.716078,-0.36393 0.852114,-0.52585 0.10053,-0.11967 0.275941,0.10734 0.393067,0.17823 0.170189,0.10303 0.504178,0.17171 0.573365,0.34588 0.05367,0.13511 -0.143066,0.458 0.09557,0.49878 0.132285,0.023 0.29302,-0.0945 0.439729,-0.14101 1.292372,-0.41044 2.613366,-0.74383 3.879924,-1.22202 0.137168,-0.0517 0.449846,-0.274 0.307958,-0.25769 -0.103636,0.0123 -0.168276,0.11497 -0.260179,0.16511 -0.358453,0.19559 -0.682119,0.44179 -1.07282,0.58949 -1.00622,0.38041 -1.247806,0.33999 -2.070985,0.32542 -0.09791,-0.001 -0.215186,0.0205 -0.29079,-0.0117 -0.0045,-0.002 0.118094,-0.0689 0.174699,-0.20958 0.103147,-0.25653 0.214843,-0.51375 0.286685,-0.76968 0.08894,-0.31692 -0.116976,-0.18434 0.344915,-0.003 0.111711,0.0438 0.26279,0.0402 0.394189,0.0603 0.161508,0.0573 0.327447,0.11039 0.484524,0.17217 0.294162,0.11579 0.295618,0.31903 0.55582,0.45454 0.04687,0.0245 0.23239,-0.36027 0.198478,-0.39364 -0.09072,-0.0894 -0.460188,0.10159 -0.572131,0.0258 -0.265623,-0.1795 -0.589918,-0.16141 -0.86005,-0.29286 -0.217548,-0.10586 1.331107,-0.28448 1.647306,-0.12935 0.190492,0.0935 0.78536,0.69093 0.856318,0.67837 0.06296,-0.0111 -0.01996,-0.0836 0,-0.12761 0.113491,-0.25053 0.253082,-0.50945 0.481536,-0.73812 0.52663,-0.52712 1.085885,-1.06045 1.880235,-1.03685 l 1.150837,0.15894 c -0.156866,0.30519 -0.378489,0.9155 -0.686094,1.18624 -0.285721,0.25146 -0.993026,0.12549 -1.155694,0.0826 -0.09661,-0.0254 -0.120888,-0.1119 -0.19336,-0.15968 -0.04162,-0.0276 -0.270455,-0.13934 -0.280713,-0.20202 -0.0091,-0.0558 -0.0882,-0.70204 0.191124,-0.86197 0.101344,-0.058 0.214385,0.20636 0.559183,0.47054 0.08789,0.0673 0.37813,-0.56645 0.655862,-0.43017 0.244353,0.11991 0.518635,0.18989 0.762993,0.30979 0.25479,0.12501 0.568627,0.54526 0.605469,-0.0161 0.02408,-0.36681 0,-0.72542 0,-1.08812 l 0.124401,0.47402 c 0.397243,0.69524 -0.515875,-1.04762 0.352284,0.3167 0.38569,0.6061 -0.187843,0.8058 0.825708,0.62199 0.423183,-0.0764 0.847248,-0.13222 1.269541,-0.22879 0.06498,-0.0149 -0.08128,-0.0539 -0.127285,-0.0765 -0.217139,-0.10673 -0.467359,-0.18802 -0.651754,-0.32001 -0.06044,-0.0432 -0.05051,-0.12348 -0.09557,-0.17601 -0.182505,-0.21282 -0.191123,-0.28692 -0.191123,-0.0546 0,0.1572 -0.09306,0.47079 0.09557,0.56333 0.0244,0.0124 -0.05694,-0.0184 -0.07317,-0.0359 -0.01,-0.011 0,-0.0289 0,-0.0434 -0.09518,-0.0466 -0.201497,-0.0848 -0.285564,-0.1401 -0.156126,-0.10307 -0.29381,-0.20873 -0.476683,-0.29846"
       id="path8"
       sodipodi:nodetypes="ccssscccscscscssscccssssccscssccssccssssssccsccsccsccsssccscccssssccsc" />
    <path
       style="fill:none;fill-opacity:1;stroke:#636363;stroke-width:0.15;stroke-dasharray:none;stroke-dashoffset:0;stroke-opacity:1"
       d="m 47.707221,130.421 c 0.0633,-0.71625 0.40131,-0.88502 0.71476,-1.40876 0.006,-0.009 0.13793,-0.31409 0.25204,-0.23801 0.1202,0.0801 0.0414,0.30469 0.0414,0.46149 0,0.39599 -0.18164,0.66753 -0.45256,0.98474 -0.0433,0.0507 -0.0698,0.13045 -0.12996,0.15217 -0.13962,0.0504 -0.48371,0.18801 -0.42566,0.0483 0.10137,-0.24382 0.44343,-0.31322 0.6206,-0.51724 0.0833,-0.0959 0.0733,-0.23546 0.12995,-0.34711 0.0748,-0.14734 0.29494,-0.48237 0.45486,-0.59755 0.1479,-0.10657 0.99723,0.27113 1.15413,0.32286 0.15044,0.0496 0.59649,0.12529 0.73608,0.14123 0.0773,0.009 0.70281,0.11243 0.89625,-0.011 0.24816,-0.15837 -0.17674,-0.78148 -0.33911,-0.83753 -0.1503,-0.0519 -0.58034,0.24128 -0.70283,0.31122 -0.31165,0.17794 -0.58532,0.26472 -0.58532,0.62012 0,0.0428 -0.0192,0.0934 0,0.12843 0.0408,0.0746 0.13892,0.0967 0.19367,0.16031 0.004,0.004 0.0783,0.1789 0.12996,0.17273 0.0276,-0.004 0.0339,-0.0521 0.0586,-0.0686 0.33581,-0.22493 0.48896,-0.27264 0.64553,-0.76912 0.052,-0.16473 0.48691,-0.31625 0.57941,-0.46971 0.0684,-0.11343 0.18763,0.12731 0.26728,0.20687 0.11572,0.11562 0.34282,0.20809 0.38987,0.38823 0.0365,0.13975 -0.0973,0.451 0.065,0.50872 0.09,0.032 0.19924,-0.0746 0.299,-0.11119 0.87877,-0.32275 1.77701,-0.56596 2.63823,-0.95874 0.0933,-0.0425 0.30588,-0.24433 0.2094,-0.23783 -0.0705,0.005 -0.11442,0.10396 -0.17691,0.14801 -0.24374,0.1718 -0.46382,0.39698 -0.72949,0.51834 -0.68419,0.31254 -0.84847,0.25495 -1.4082,0.18274 -0.0666,-0.009 -0.14632,0.006 -0.19773,-0.0324 -0.003,-0.002 0.0803,-0.061 0.11879,-0.19874 0.0701,-0.25098 0.14609,-0.50208 0.19494,-0.75467 0.0605,-0.31277 -0.0795,-0.19374 0.23453,0.0208 0.076,0.0519 0.17869,0.0588 0.26803,0.0882 0.10982,0.069 0.22266,0.13396 0.32947,0.20717 0.20002,0.1371 0.20101,0.34178 0.37794,0.49636 0.0319,0.0279 0.15802,-0.34636 0.13496,-0.38233 -0.0617,-0.0962 -0.31292,0.0701 -0.38904,-0.0139 -0.18061,-0.19925 -0.40112,-0.20371 -0.5848,-0.35492 -0.14793,-0.12178 0.90511,-0.19327 1.12011,-0.015 0.12953,0.10739 0.53403,0.75035 0.58228,0.74268 0.0428,-0.007 -0.0136,-0.0855 0,-0.12844 0.0772,-0.24424 0.17208,-0.49511 0.32743,-0.7093 0.35809,-0.49373 0.73836,-0.99146 1.2785,-0.91216 l 0.78253,0.24038 c -0.10666,0.29622 -0.25736,0.89504 -0.46652,1.14603 -0.19428,0.23313 -0.67523,0.0569 -0.78584,0.002 -0.0657,-0.0324 -0.0822,-0.12108 -0.13148,-0.17424 -0.0283,-0.0306 -0.1839,-0.15916 -0.19087,-0.22298 -0.006,-0.0569 -0.06,-0.7128 0.12996,-0.85424 0.0689,-0.0513 0.14577,0.2227 0.38022,0.51273 0.0598,0.0739 0.25712,-0.54372 0.44597,-0.38714 0.16615,0.13775 0.35266,0.22741 0.51881,0.36517 0.17325,0.14364 0.38665,0.58857 0.4117,0.0262 0.0164,-0.36752 0,-0.73017 0,-1.09525 l 0.0846,0.48583 c 0.27012,0.72756 -0.35078,-1.09056 0.23954,0.3434 0.26226,0.63705 -0.12772,0.79794 0.56146,0.68379 0.28775,-0.0472 0.5761,-0.0738 0.86325,-0.14152 0.0442,-0.0106 -0.0553,-0.06 -0.0866,-0.086 -0.14765,-0.12265 -0.31779,-0.22193 -0.44317,-0.36769 -0.0411,-0.0478 -0.0344,-0.1278 -0.065,-0.18383 -0.1241,-0.22698 -0.12996,-0.30217 -0.12996,-0.0684 0,0.15822 -0.0633,0.46737 0.065,0.5737 0.0166,0.0138 -0.0387,-0.0225 -0.0498,-0.0413 -0.007,-0.0116 0,-0.0291 0,-0.0437 -0.0647,-0.0536 -0.13701,-0.0993 -0.19418,-0.16098 -0.10616,-0.11464 -0.19978,-0.23062 -0.32413,-0.33372"
       id="path8-3"
       sodipodi:nodetypes="ccssscccscscscssscccssssccscssccssccssssssccsccsccsccsssccscccssssccsc" />
    <path
       style="fill:none;fill-opacity:1;stroke:#636363;stroke-width:0.1;stroke-dasharray:none;stroke-dashoffset:0;stroke-opacity:1"
       d="m 46.036255,102.29303 c 0.0633,-0.71776 0.40131,-0.89451 0.71476,-1.42565 0.006,-0.009 0.13793,-0.31734 0.25204,-0.24396 0.1202,0.0773 0.0414,0.30371 0.0414,0.46051 0,0.39599 -0.18164,0.67182 -0.45256,0.99543 -0.0433,0.0517 -0.0698,0.1321 -0.12996,0.15524 -0.13962,0.0537 -0.48371,0.19943 -0.42566,0.0584 0.10137,-0.24621 0.44343,-0.32369 0.6206,-0.5319 0.0833,-0.0979 0.0733,-0.23718 0.12995,-0.35017 0.0748,-0.14911 0.29494,-0.48934 0.45486,-0.60829 0.1479,-0.11007 0.99723,0.24757 1.15413,0.2956 0.15044,0.046 0.59649,0.11121 0.73608,0.12385 0.0773,0.007 0.70281,0.0958 0.89625,-0.0322 0.24816,-0.16422 -0.17674,-0.7773 -0.33911,-0.82952 -0.1503,-0.0484 -0.58034,0.25499 -0.70283,0.32782 -0.31165,0.1853 -0.58532,0.27854 -0.58532,0.63394 0,0.0428 -0.0192,0.0938 0,0.12843 0.0408,0.0737 0.13892,0.0934 0.19367,0.15574 0.004,0.004 0.0783,0.17705 0.12996,0.16966 0.0276,-0.004 0.0339,-0.0529 0.0586,-0.07 0.33581,-0.23287 0.48896,-0.2842 0.64553,-0.78437 0.052,-0.16597 0.48691,-0.32775 0.57941,-0.4834 0.0684,-0.11504 0.18763,0.12289 0.26728,0.20056 0.11572,0.11289 0.34282,0.2 0.38987,0.37902 0.0365,0.13889 -0.0973,0.4533 0.065,0.50719 0.09,0.0299 0.19924,-0.0793 0.299,-0.11826 0.87877,-0.3435 1.77701,-0.60792 2.63823,-1.02104 0.0933,-0.0447 0.30588,-0.25155 0.2094,-0.24277 -0.0705,0.007 -0.11442,0.10666 -0.17691,0.15218 -0.24374,0.17756 -0.46382,0.40794 -0.72949,0.53557 -0.68419,0.3287 -0.84847,0.27499 -1.4082,0.216 -0.0666,-0.007 -0.14632,0.009 -0.19773,-0.0277 -0.003,-0.002 0.0803,-0.0629 0.11879,-0.20155 0.0701,-0.25263 0.14609,-0.50553 0.19494,-0.75927 0.0605,-0.314195 -0.0795,-0.191855 0.23453,0.0153 0.076,0.0501 0.17869,0.0545 0.26803,0.0819 0.10982,0.0664 0.22266,0.1287 0.32947,0.19938 0.20002,0.13239 0.20101,0.33704 0.37794,0.48744 0.0319,0.0271 0.15802,-0.35009 0.13496,-0.38552 -0.0617,-0.0947 -0.31292,0.0775 -0.38904,-0.005 -0.18061,-0.19498 -0.40112,-0.19423 -0.5848,-0.3411 -0.14793,-0.118285 0.90511,-0.214645 1.12011,-0.0415 0.12953,0.10433 0.53403,0.73774 0.58228,0.72893 0.0428,-0.008 -0.0136,-0.0852 0,-0.12844 0.0772,-0.24607 0.17208,-0.49917 0.32743,-0.717025 0.35809,-0.502186 0.73836,-1.008896 1.2785,-0.942355 l 0.78253,0.221903 c -0.10666,0.298736 -0.25736,0.901117 -0.46652,1.157047 -0.19428,0.23772 -0.67523,0.0728 -0.78584,0.0209 -0.0657,-0.0308 -0.0822,-0.11915 -0.13148,-0.17114 -0.0283,-0.0299 -0.1839,-0.15482 -0.19087,-0.21848 -0.006,-0.05669 -0.06,-0.711372 0.12996,-0.857296 0.0689,-0.0529 0.14577,0.219254 0.38022,0.503743 0.0598,0.07247 0.25712,-0.549791 0.44597,-0.397672 0.16615,0.133833 0.35266,0.219086 0.51881,0.35292 0.17325,0.13955 0.38665,0.579445 0.4117,0.01642 0.0164,-0.36791 0,-0.73017 0,-1.095247 l 0.0846,0.483832 c 0.27012,0.721182 -0.35078,-1.082269 0.23954,0.337739 0.26226,0.630863 -0.12772,0.800961 0.56146,0.670531 0.28775,-0.054 0.5761,-0.0875 0.86325,-0.161898 0.0442,-0.0116 -0.0553,-0.0587 -0.0866,-0.0839 -0.14765,-0.11916 -0.31779,-0.214428 -0.44317,-0.357221 -0.0411,-0.04681 -0.0344,-0.126989 -0.065,-0.182297 -0.1241,-0.224053 -0.12996,-0.299103 -0.12996,-0.06532 0,0.15822 -0.0633,0.468862 0.065,0.572171 0.0166,0.0134 -0.0387,-0.0216 -0.0498,-0.0401 -0.007,-0.0114 0,-0.0291 0,-0.0437 -0.0647,-0.05212 -0.13701,-0.09603 -0.19418,-0.156402 -0.10616,-0.112131 -0.19978,-0.225902 -0.32413,-0.326066"
       id="path8-6"
       sodipodi:nodetypes="ccssscccscscscssscccssssccscssccssccssssssccsccsccsccsssccscccssssccsc" />
    <path
       style="fill:none;fill-opacity:1;stroke:#636363;stroke-width:0.1;stroke-dasharray:none;stroke-dashoffset:0;stroke-opacity:1"
       d="m 46.604277,160.22963 c 0.0633,-0.71776 0.40131,-0.89451 0.71476,-1.42565 0.006,-0.009 0.13793,-0.31734 0.25204,-0.24396 0.1202,0.0773 0.0414,0.30371 0.0414,0.46051 0,0.39599 -0.18164,0.67182 -0.45256,0.99543 -0.0433,0.0517 -0.0698,0.1321 -0.12996,0.15524 -0.13962,0.0537 -0.48371,0.19943 -0.42566,0.0584 0.10137,-0.24621 0.44343,-0.32369 0.6206,-0.5319 0.0833,-0.0979 0.0733,-0.23718 0.12995,-0.35017 0.0748,-0.14911 0.29494,-0.48934 0.45486,-0.60829 0.1479,-0.11007 0.99723,0.24757 1.15413,0.2956 0.15044,0.046 0.59649,0.11121 0.73608,0.12385 0.0773,0.007 0.70281,0.0958 0.89625,-0.0322 0.24816,-0.16422 -0.17674,-0.7773 -0.33911,-0.82952 -0.1503,-0.0484 -0.58034,0.25499 -0.70283,0.32782 -0.31165,0.1853 -0.58532,0.27854 -0.58532,0.63394 0,0.0428 -0.0192,0.0938 0,0.12843 0.0408,0.0737 0.13892,0.0934 0.19367,0.15574 0.004,0.004 0.0783,0.17705 0.12996,0.16966 0.0276,-0.004 0.0339,-0.0529 0.0586,-0.07 0.33581,-0.23287 0.48896,-0.2842 0.64553,-0.78437 0.052,-0.16597 0.48691,-0.32775 0.57941,-0.4834 0.0684,-0.11504 0.18763,0.12289 0.26728,0.20056 0.11572,0.11289 0.34282,0.2 0.38987,0.37902 0.0365,0.13889 -0.0973,0.4533 0.065,0.50719 0.09,0.0299 0.19924,-0.0793 0.299,-0.11826 0.87877,-0.3435 1.77701,-0.60792 2.63823,-1.02104 0.0933,-0.0447 0.30588,-0.25154 0.2094,-0.24276 -0.0705,0.007 -0.11442,0.10665 -0.17691,0.15217 -0.24374,0.17756 -0.46382,0.40794 -0.72949,0.53557 -0.68419,0.3287 -0.84847,0.27499 -1.4082,0.216 -0.0666,-0.007 -0.14632,0.009 -0.19773,-0.0277 -0.003,-0.002 0.0803,-0.0629 0.11879,-0.20155 0.0701,-0.25263 0.14609,-0.50553 0.19494,-0.75926 0.0605,-0.3142 -0.0795,-0.19186 0.23453,0.0153 0.076,0.0501 0.17869,0.0545 0.26803,0.0819 0.10982,0.0664 0.22266,0.12869 0.32947,0.19937 0.20002,0.13239 0.20101,0.33704 0.37794,0.48744 0.0319,0.0271 0.15802,-0.35009 0.13496,-0.38552 -0.0617,-0.0947 -0.31292,0.0775 -0.38904,-0.005 -0.18061,-0.19498 -0.40112,-0.19423 -0.5848,-0.34109 -0.14793,-0.11829 0.90511,-0.21465 1.12011,-0.0415 0.12953,0.10433 0.53403,0.73773 0.58228,0.72892 0.0428,-0.008 -0.0136,-0.0852 0,-0.12844 0.0772,-0.24607 0.17208,-0.49916 0.32743,-0.71702 0.35809,-0.50219 0.73836,-1.0089 1.2785,-0.94236 l 0.78253,0.2219 c -0.10666,0.29874 -0.25736,0.90113 -0.46652,1.15705 -0.19428,0.23772 -0.67523,0.0728 -0.78584,0.0209 -0.0657,-0.0308 -0.0822,-0.11915 -0.13148,-0.17114 -0.0283,-0.0299 -0.1839,-0.15481 -0.19087,-0.21847 -0.006,-0.0567 -0.06,-0.71138 0.12996,-0.8573 0.0689,-0.0529 0.14577,0.21925 0.38022,0.50374 0.0598,0.0725 0.25712,-0.54979 0.44597,-0.39767 0.16615,0.13383 0.35266,0.21908 0.51881,0.35292 0.17325,0.13955 0.38665,0.57945 0.4117,0.0164 0.0164,-0.36791 0,-0.73017 0,-1.09525 l 0.0846,0.48383 c 0.27012,0.72118 -0.35078,-1.08227 0.23954,0.33774 0.26226,0.63086 -0.12772,0.80096 0.56146,0.67053 0.28775,-0.054 0.5761,-0.0875 0.86325,-0.1619 0.0442,-0.0116 -0.0553,-0.0587 -0.0866,-0.0839 -0.14765,-0.11916 -0.31779,-0.21442 -0.44317,-0.35722 -0.0411,-0.0468 -0.0344,-0.12699 -0.065,-0.18229 -0.1241,-0.22406 -0.12996,-0.29911 -0.12996,-0.0653 0,0.15822 -0.0633,0.46886 0.065,0.57217 0.0166,0.0134 -0.0387,-0.0216 -0.0498,-0.0401 -0.007,-0.0114 0,-0.0291 0,-0.0437 -0.0647,-0.0521 -0.13701,-0.096 -0.19418,-0.15641 -0.10616,-0.11213 -0.19978,-0.2259 -0.32413,-0.32606"
       id="path8-6-6"
       sodipodi:nodetypes="ccssscccscscscssscccssssccscssccssccssssssccsccsccsccsssccscccssssccsc" />
  </g>
</svg>
