<?xml version="1.0" encoding="UTF-8" standalone="no"?>
<!-- Created with Inkscape (http://www.inkscape.org/) -->

<svg
   width="141.54845mm"
   height="99.764946mm"
   viewBox="0 0 141.54845 99.764946"
   version="1.1"
   id="svg5"
   xml:space="preserve"
   inkscape:export-filename="book-anatomy.png"
   inkscape:export-xdpi="96"
   inkscape:export-ydpi="96"
   inkscape:version="1.3.1 (9b9bdc1480, 2023-11-25, custom)"
   sodipodi:docname="book-anatomy.svg"
   xmlns:inkscape="http://www.inkscape.org/namespaces/inkscape"
   xmlns:sodipodi="http://sodipodi.sourceforge.net/DTD/sodipodi-0.dtd"
   xmlns="http://www.w3.org/2000/svg"
   xmlns:svg="http://www.w3.org/2000/svg"><sodipodi:namedview
     id="namedview7"
     pagecolor="#ffffff"
     bordercolor="#666666"
     borderopacity="1.0"
     inkscape:showpageshadow="2"
     inkscape:pageopacity="0.0"
     inkscape:pagecheckerboard="0"
     inkscape:deskcolor="#d1d1d1"
     inkscape:document-units="mm"
     showgrid="false"
     inkscape:zoom="1.4142136"
     inkscape:cx="353.19984"
     inkscape:cy="296.98485"
     inkscape:window-width="1854"
     inkscape:window-height="1011"
     inkscape:window-x="0"
     inkscape:window-y="0"
     inkscape:window-maximized="1"
     inkscape:current-layer="layer1" /><defs
     id="defs2"><marker
       style="overflow:visible"
       id="marker4169"
       refX="0"
       refY="0"
       orient="auto-start-reverse"
       inkscape:stockid="Arrow1L"
       markerWidth="8.75"
       markerHeight="5"
       viewBox="0 0 8.75 5"
       inkscape:isstock="true"
       inkscape:collect="always"
       preserveAspectRatio="xMidYMid"><path
         style="fill:context-stroke;fill-rule:evenodd;stroke:none"
         d="M 0,0 5,-5 -12.5,0 5,5 Z"
         id="path4167"
         transform="scale(-0.5)" /></marker><marker
       style="overflow:visible"
       id="marker3947"
       refX="0"
       refY="0"
       orient="auto-start-reverse"
       inkscape:stockid="Arrow1L"
       markerWidth="8.75"
       markerHeight="5"
       viewBox="0 0 8.75 5"
       inkscape:isstock="true"
       inkscape:collect="always"
       preserveAspectRatio="xMidYMid"><path
         style="fill:context-stroke;fill-rule:evenodd;stroke:none"
         d="M 0,0 5,-5 -12.5,0 5,5 Z"
         id="path3945"
         transform="scale(-0.5)" /></marker><marker
       style="overflow:visible"
       id="Arrow1L"
       refX="0"
       refY="0"
       orient="auto-start-reverse"
       inkscape:stockid="Arrow1L"
       markerWidth="8.75"
       markerHeight="5"
       viewBox="0 0 8.75 5"
       inkscape:isstock="true"
       inkscape:collect="always"
       preserveAspectRatio="xMidYMid"><path
         style="fill:context-stroke;fill-rule:evenodd;stroke:none"
         d="M 0,0 5,-5 -12.5,0 5,5 Z"
         id="arrow1L"
         transform="scale(-0.5)" /></marker></defs><g
     inkscape:label="Layer 1"
     inkscape:groupmode="layer"
     id="layer1"
     transform="translate(-36.27196,-48.160572)"><path
       style="fill:none;stroke:#000000;stroke-width:0.264583px;stroke-linecap:butt;stroke-linejoin:miter;stroke-opacity:1"
       d="M 62.165002,77.209763 93.434626,64.72153"
       id="path925" /><path
       style="fill:none;stroke:#000000;stroke-width:0.264583px;stroke-linecap:butt;stroke-linejoin:miter;stroke-opacity:1"
       d="M 95.995468,65.053371 63.129305,77.873489"
       id="path927" /><path
       style="fill:none;stroke:#000000;stroke-width:0.264583px;stroke-linecap:butt;stroke-linejoin:miter;stroke-opacity:1"
       d="m 62.218508,77.161077 1.078511,0.705503"
       id="path931" /><path
       style="fill:none;stroke:#000000;stroke-width:0.264583px;stroke-linecap:butt;stroke-linejoin:miter;stroke-opacity:1"
       d="M 63.183565,77.742763 V 132.8146"
       id="path933" /><path
       style="fill:none;stroke:#000000;stroke-width:0.264583px;stroke-linecap:butt;stroke-linejoin:miter;stroke-opacity:1"
       d="m 63.217414,132.70712 -1.145292,-0.30688"
       id="path935" /><path
       style="fill:none;stroke:#000000;stroke-width:0.264583px;stroke-linecap:butt;stroke-linejoin:miter;stroke-opacity:1"
       d="m 62.187227,77.156621 v 55.249699 c -2.33e-4,0.0274 -1.76e-4,0.0548 -1.76e-4,0.0823"
       id="path937" /><path
       style="fill:none;stroke:#000000;stroke-width:0.264583px;stroke-linecap:butt;stroke-linejoin:miter;stroke-opacity:1"
       d="m 63.204812,132.75342 10.501643,-4.29824"
       id="path939" /><path
       style="fill:none;stroke:#000000;stroke-width:0.264583px;stroke-linecap:butt;stroke-linejoin:miter;stroke-opacity:1"
       d="M 105.06448,60.345319 135.08445,48.67308"
       id="path941" /><path
       style="fill:none;stroke:#000000;stroke-width:0.264583px;stroke-linecap:butt;stroke-linejoin:miter;stroke-opacity:1"
       d="M 105.48227,61.270139 136.02284,49.176352"
       id="path943" /><path
       style="fill:none;stroke:#000000;stroke-width:0.277872px;stroke-linecap:butt;stroke-linejoin:miter;stroke-opacity:1"
       d="m 135.02903,48.675473 0.90814,0.610119 v 16.181531"
       id="path945" /><path
       style="fill:none;stroke:#000000;stroke-width:0.264583px;stroke-linecap:butt;stroke-linejoin:miter;stroke-opacity:1"
       d="M 95.871928,64.988897 93.43559,64.697636"
       id="path947" /><path
       style="fill:none;stroke:#000000;stroke-width:0.264583px;stroke-linecap:butt;stroke-linejoin:miter;stroke-opacity:1"
       d="m 105.57604,61.211681 -0.63332,-1.085307"
       id="path949" /><path
       style="fill:none;stroke:#000000;stroke-width:0.264583px;stroke-linecap:butt;stroke-linejoin:miter;stroke-opacity:1"
       d="m 73.758423,90.748554 27.977107,-14.36544 -15.271684,17.615601 0.361598,53.564045 14.838676,-17.82555 0.0379,-53.097012"
       id="path951" /><path
       style="fill:none;stroke:#000000;stroke-width:0.264583px;stroke-linecap:butt;stroke-linejoin:miter;stroke-opacity:1"
       d="m 86.760351,137.36008 -12.873575,6.73756 V 90.700143"
       id="path953"
       sodipodi:nodetypes="ccc" /><path
       style="fill:none;stroke:#808080;stroke-width:0.260684px;stroke-linecap:butt;stroke-linejoin:miter;stroke-opacity:1"
       d="m 142.42243,88.75498 -30.36166,-13.618012 12.68458,-5.274782 30.3458,13.573491 -12.7999,5.330603"
       id="path1681" /><path
       style="fill:none;stroke:#808080;stroke-width:0.264631px;stroke-linecap:butt;stroke-linejoin:miter;stroke-opacity:1"
       d="M 142.37046,88.691672 V 142.45725 L 111.92987,127.29732 V 75.011422"
       id="path1685" /><path
       style="fill:none;stroke:#808080;stroke-width:0.264583px;stroke-linecap:butt;stroke-linejoin:miter;stroke-opacity:1"
       d="M 155.13738,83.414454 V 137.48655"
       id="path1687" /><path
       style="fill:none;stroke:#808080;stroke-width:0.264583px;stroke-linecap:butt;stroke-linejoin:miter;stroke-opacity:1"
       d="m 155.18154,137.41963 -12.67513,5.01509"
       id="path1689" /><path
       style="fill:none;stroke:#000000;stroke-width:0.264583px;stroke-linecap:butt;stroke-linejoin:miter;stroke-opacity:1"
       d="m 155.27511,117.20412 4.14092,-0.98393 V 62.103433 l -31.04239,4.570061 v 4.741514"
       id="path3143"
       sodipodi:nodetypes="ccccc" /><path
       style="fill:none;stroke:#000000;stroke-width:0.264583px;stroke-linecap:butt;stroke-linejoin:miter;stroke-opacity:1"
       d="M 95.797893,64.974906 V 79.299135"
       id="path3145" /><path
       style="fill:none;stroke:#000000;stroke-width:0.274166px;stroke-linecap:butt;stroke-linejoin:miter;stroke-opacity:1"
       d="m 105.10623,60.291044 0.14762,56.250936 6.63639,-2.90162"
       id="path3147"
       sodipodi:nodetypes="ccc" /><path
       style="fill:none;stroke:#000000;stroke-width:0.264583px;stroke-linecap:butt;stroke-linejoin:miter;stroke-opacity:1"
       d="M 105.59175,61.188597 V 116.56273"
       id="path3149" /><path
       style="fill:none;fill-rule:evenodd;stroke:#000000;stroke-width:0.264583px;stroke-linecap:butt;stroke-linejoin:miter;stroke-dasharray:none;stroke-dashoffset:0;stroke-opacity:1;marker-end:url(#Arrow1L)"
       d="m 74.715552,59.78196 4.32589,8.764762"
       id="path3749" /><path
       style="fill:none;fill-rule:evenodd;stroke:#000000;stroke-width:0.264583px;stroke-linecap:butt;stroke-linejoin:miter;stroke-opacity:1"
       d="m 77.655168,61.44126 v 0"
       id="path3937" /><path
       style="display:inline;fill:none;fill-rule:evenodd;stroke:#000000;stroke-width:0.264583px;stroke-linecap:butt;stroke-linejoin:miter;stroke-opacity:1;marker-end:url(#marker3947)"
       d="m 65.94742,140.27205 7.123544,-6.5118"
       id="path3943" /><path
       style="display:inline;fill:none;fill-rule:evenodd;stroke:#000000;stroke-width:0.264583px;stroke-linecap:butt;stroke-linejoin:miter;stroke-opacity:1;marker-end:url(#Arrow1L)"
       d="m 105.60623,140.8981 -6.143503,-5.87068"
       id="path3979" /><path
       style="display:inline;fill:none;fill-rule:evenodd;stroke:#000000;stroke-width:0.264583px;stroke-linecap:butt;stroke-linejoin:miter;stroke-opacity:1;marker-end:url(#marker4169)"
       d="m 159.98448,56.957376 -2.17831,3.968342"
       id="path4165" /><path
       style="display:inline;fill:none;fill-rule:evenodd;stroke:#000000;stroke-width:0.264583px;stroke-linecap:butt;stroke-linejoin:miter;stroke-opacity:1;marker-end:url(#marker3947)"
       d="m 101.9819,52.960317 12.11775,2.880626"
       id="path4213" /><g
       aria-label="Front cover"
       id="text4277"
       style="font-size:10.5833px;line-height:1.25;font-family:'Libertinus Serif';-inkscape-font-specification:'Libertinus Serif';letter-spacing:0px;stroke-width:0.264583"><path
         d="m 61.786195,57.066005 c 0.419805,0 0.434622,0.113594 0.449439,0.335844 0.02963,0.02963 0.13335,0.02963 0.162983,0 -0.0049,-0.123472 -0.0099,-0.2667 -0.0099,-0.434622 0,-0.167922 0.0049,-0.296333 0.0099,-0.424744 -0.02963,-0.02963 -0.13335,-0.02963 -0.162983,0 -0.01482,0.271638 -0.02963,0.335844 -0.449439,0.335844 h -0.459317 v -0.889 c 0,-0.2667 0.05927,-0.316089 0.276578,-0.316089 h 0.22225 c 0.523522,0 0.646994,0.197555 0.75565,0.538339 0.05927,0 0.113594,-0.0099 0.153106,-0.0247 -0.0247,-0.202494 -0.09878,-0.676627 -0.108656,-0.716139 0,-0.0099 -0.0049,-0.01482 -0.01976,-0.01482 -0.08396,0.01482 -0.108655,0.01975 -0.232127,0.01975 h -1.259417 c -0.158045,0 -0.439562,-0.0049 -0.637117,-0.0099 -0.02963,0.02963 -0.02963,0.13335 0,0.162983 0.345722,0.01482 0.429683,0.03951 0.429683,0.449439 v 1.980495 c 0,0.409928 -0.08396,0.434622 -0.429683,0.449439 -0.02963,0.02963 -0.02963,0.13335 0,0.162983 0.172861,-0.0049 0.419805,-0.0099 0.642055,-0.0099 0.222251,0 0.464256,0.0049 0.637117,0.0099 0.02963,-0.02963 0.02963,-0.13335 0,-0.162983 -0.345722,-0.01482 -0.429683,-0.03951 -0.429683,-0.449439 v -0.992717 z"
         style="font-size:4.93889px;-inkscape-font-specification:'Libertinus Serif, Normal';opacity:1"
         id="path4421" /><path
         d="m 63.653089,56.893144 c -0.0099,-0.197556 -0.01482,-0.325967 -0.03951,-0.375356 -0.0099,-0.02469 -0.01976,-0.03951 -0.05927,-0.03951 -0.138289,0.05433 -0.2667,0.09878 -0.607484,0.143228 -0.0099,0.02963 0,0.108655 0.0099,0.138289 0.2667,0.02469 0.321028,0.04939 0.321028,0.335844 v 0.963084 c 0,0.409928 -0.05927,0.429683 -0.365478,0.449439 -0.02963,0.02963 -0.02963,0.13335 0,0.162983 0.172861,-0.0049 0.365478,-0.0099 0.563034,-0.0099 0.197555,0 0.424744,0.0049 0.597605,0.0099 0.02963,-0.02963 0.02963,-0.13335 0,-0.162983 -0.345722,-0.0247 -0.404989,-0.03951 -0.404989,-0.449439 v -0.686506 c 0,-0.128411 0.05927,-0.242006 0.118534,-0.330906 0.05433,-0.07902 0.167922,-0.242005 0.227189,-0.242005 0.04445,0 0.0889,0.0099 0.128411,0.06421 0.03457,0.04939 0.09384,0.113595 0.1778,0.113595 0.118533,0 0.232128,-0.123472 0.232128,-0.246945 0,-0.09384 -0.0889,-0.237066 -0.296334,-0.237066 -0.232128,0 -0.434622,0.217311 -0.548217,0.409927 -0.02963,0.05433 -0.05433,0.01482 -0.05433,-0.0099 z"
         style="font-size:4.93889px;-inkscape-font-specification:'Libertinus Serif, Normal';opacity:1"
         id="path4423" /><path
         d="m 64.784087,57.648794 c 0,0.503767 0.335844,1.061861 1.037166,1.061861 0.316089,0 0.558095,-0.113594 0.726017,-0.276578 0.22225,-0.217311 0.321028,-0.528461 0.321028,-0.829733 0,-0.513645 -0.281517,-1.11125 -1.037167,-1.11125 -0.325966,0 -0.592667,0.13335 -0.775405,0.345722 -0.177801,0.212372 -0.271639,0.498828 -0.271639,0.809978 z m 0.972961,-0.982839 c 0.424744,0 0.686506,0.385233 0.686506,1.096433 0,0.6223 -0.321028,0.775406 -0.553156,0.775406 -0.513645,0 -0.681567,-0.6223 -0.681567,-1.002595 0,-0.429683 0.103717,-0.869244 0.548217,-0.869244 z"
         style="font-size:4.93889px;-inkscape-font-specification:'Libertinus Serif, Normal';opacity:1"
         id="path4425" /><path
         d="m 67.979547,56.893144 c -0.02963,0.03457 -0.05927,0.04445 -0.05927,0 -0.0049,-0.13335 -0.01482,-0.325967 -0.03951,-0.375356 -0.0099,-0.02469 -0.01976,-0.03951 -0.05927,-0.03951 -0.138289,0.05433 -0.266701,0.09878 -0.607484,0.143228 -0.0099,0.02963 0,0.108655 0.0099,0.138289 0.2667,0.02469 0.321028,0.04939 0.321028,0.335844 v 0.963084 c 0,0.404989 -0.04939,0.424744 -0.345723,0.449439 -0.02963,0.02963 -0.02963,0.13335 0,0.162983 0.148167,-0.0049 0.345723,-0.0099 0.543278,-0.0099 0.197556,0 0.345723,0.0049 0.493889,0.0099 0.02963,-0.02963 0.02963,-0.13335 0,-0.162983 -0.251883,-0.0247 -0.301272,-0.04445 -0.301272,-0.449439 v -0.809978 c 0,-0.103717 0.04445,-0.162984 0.08396,-0.207434 0.187678,-0.182739 0.409928,-0.291394 0.602545,-0.291394 0.09878,0 0.202494,0.06421 0.261761,0.1778 0.04939,0.09878 0.05927,0.232128 0.05927,0.380294 v 0.750712 c 0,0.404989 -0.04939,0.424744 -0.306212,0.449439 -0.02469,0.02963 -0.02469,0.13335 0,0.162983 0.148167,-0.0049 0.306212,-0.0099 0.503767,-0.0099 0.197556,0 0.375356,0.0049 0.523522,0.0099 0.02469,-0.02963 0.02469,-0.13335 0,-0.162983 -0.276577,-0.0247 -0.330905,-0.04445 -0.330905,-0.449439 v -0.735895 c 0,-0.271639 -0.01976,-0.508706 -0.13335,-0.661811 -0.08396,-0.108656 -0.237067,-0.167922 -0.409928,-0.167922 -0.242006,0 -0.518583,0.06421 -0.809978,0.40005 z"
         style="font-size:4.93889px;-inkscape-font-specification:'Libertinus Serif, Normal';opacity:1"
         id="path4427" /><path
         d="m 69.960041,56.542483 c -0.06914,0 -0.0889,0.05927 -0.0889,0.09878 v 0.06421 c 0,0.02469 0.0049,0.02963 0.0247,0.02963 h 0.291394 v 1.486606 c 0,0.350661 0.153106,0.48895 0.380295,0.48895 0.227189,0 0.474133,-0.108655 0.66675,-0.325967 -0.0099,-0.04939 -0.03951,-0.07902 -0.0889,-0.08396 -0.128411,0.09878 -0.276578,0.138289 -0.404989,0.138289 -0.13335,0 -0.162983,-0.148166 -0.162983,-0.454378 v -1.249539 h 0.513644 c 0.04939,0 0.118534,-0.01975 0.118534,-0.06421 v -0.09878 c 0,-0.01976 -0.01482,-0.02963 -0.03951,-0.02963 h -0.592667 v -0.192617 c 0,-0.321028 0.01975,-0.518584 0.01975,-0.518584 0,-0.02963 -0.01482,-0.04445 -0.03951,-0.04445 -0.01976,0 -0.06421,0.01976 -0.108655,0.04445 -0.05433,0.02963 -0.103717,0.05433 -0.167923,0.06914 -0.05927,0.01975 -0.108655,0.03457 -0.108655,0.06914 0,0.05927 0.01482,0.0247 0.01482,0.572912 z"
         style="font-size:4.93889px;-inkscape-font-specification:'Libertinus Serif, Normal';opacity:1"
         id="path4429" /><path
         d="m 74.508749,58.211827 c -0.01976,-0.04445 -0.05927,-0.06421 -0.103717,-0.06914 -0.167922,0.217311 -0.380294,0.325967 -0.592666,0.325967 -0.360539,0 -0.661812,-0.365478 -0.661812,-0.943328 0,-0.543278 0.237067,-0.869245 0.563034,-0.869245 0.291394,0 0.330905,0.172861 0.350661,0.345722 0.01482,0.13335 0.08396,0.1778 0.187678,0.1778 0.103716,0 0.242005,-0.06421 0.242005,-0.217311 0,-0.271639 -0.281516,-0.469194 -0.75565,-0.469194 -0.48895,0 -1.012472,0.439561 -1.012472,1.140883 0,0.637117 0.3556,1.076678 0.9779,1.076678 0.296333,0 0.558095,-0.09384 0.805039,-0.498828 z"
         style="font-size:4.93889px;-inkscape-font-specification:'Libertinus Serif, Normal';opacity:1"
         id="path4431" /><path
         d="m 74.859408,57.648794 c 0,0.503767 0.335845,1.061861 1.037167,1.061861 0.316089,0 0.558095,-0.113594 0.726017,-0.276578 0.22225,-0.217311 0.321028,-0.528461 0.321028,-0.829733 0,-0.513645 -0.281517,-1.11125 -1.037167,-1.11125 -0.325967,0 -0.592667,0.13335 -0.775406,0.345722 -0.1778,0.212372 -0.271639,0.498828 -0.271639,0.809978 z m 0.972962,-0.982839 c 0.424744,0 0.686505,0.385233 0.686505,1.096433 0,0.6223 -0.321028,0.775406 -0.553155,0.775406 -0.513645,0 -0.681567,-0.6223 -0.681567,-1.002595 0,-0.429683 0.103716,-0.869244 0.548217,-0.869244 z"
         style="font-size:4.93889px;-inkscape-font-specification:'Libertinus Serif, Normal';opacity:1"
         id="path4433" /><path
         d="m 78.71667,56.695588 c 0.2667,0.01976 0.296333,0.07902 0.192616,0.330906 l -0.40005,0.968022 c -0.07902,0.192617 -0.103717,0.192617 -0.182739,-0.01482 l -0.3556,-0.953206 c -0.0889,-0.237067 -0.108655,-0.296334 0.153106,-0.330906 0.02963,-0.02963 0.02963,-0.13335 0,-0.162983 -0.162984,0.0049 -0.335845,0.0099 -0.498828,0.0099 -0.162984,0 -0.31115,-0.0049 -0.459317,-0.0099 -0.02963,0.02963 -0.02963,0.13335 0,0.162983 0.261761,0.02963 0.296333,0.108656 0.395111,0.360539 l 0.632178,1.560689 c 0.02963,0.07408 0.05927,0.103717 0.123472,0.103717 0.04939,0 0.08396,-0.02963 0.118534,-0.113594 l 0.656872,-1.545873 c 0.09384,-0.217311 0.148167,-0.340783 0.424745,-0.365478 0.02963,-0.02963 0.02963,-0.13335 0,-0.162983 -0.09878,0.0049 -0.217311,0.0099 -0.345723,0.0099 -0.162983,0 -0.330905,-0.0049 -0.454377,-0.0099 -0.02963,0.02963 -0.02963,0.13335 0,0.162983 z"
         style="font-size:4.93889px;-inkscape-font-specification:'Libertinus Serif, Normal';opacity:1"
         id="path4435" /><path
         d="m 81.433051,58.20195 c -0.182738,0.187677 -0.325966,0.2667 -0.612422,0.2667 -0.1778,0 -0.385233,-0.103717 -0.538339,-0.3556 -0.09878,-0.162984 -0.158044,-0.390173 -0.158044,-0.676628 l 1.313744,0.0099 c 0.05927,0 0.09384,-0.02963 0.09384,-0.08396 0,-0.414866 -0.148166,-0.859367 -0.834672,-0.859367 -0.429684,0 -0.987778,0.409928 -0.987778,1.16064 0,0.276577 0.06914,0.543277 0.232128,0.730955 0.167922,0.197556 0.40005,0.316089 0.75565,0.316089 0.375356,0 0.642056,-0.172861 0.839611,-0.429683 -0.01482,-0.04939 -0.04445,-0.07408 -0.103717,-0.07902 z m -1.293989,-0.933451 c 0.09384,-0.558094 0.439562,-0.602544 0.558095,-0.602544 0.187678,0 0.409928,0.103716 0.409928,0.518583 0,0.04445 -0.01976,0.06914 -0.07408,0.06914 z"
         style="font-size:4.93889px;-inkscape-font-specification:'Libertinus Serif, Normal';opacity:1"
         id="path4437" /><path
         d="m 82.603562,56.893144 c -0.0099,-0.197556 -0.01482,-0.325967 -0.03951,-0.375356 -0.0099,-0.02469 -0.01976,-0.03951 -0.05927,-0.03951 -0.138289,0.05433 -0.2667,0.09878 -0.607484,0.143228 -0.0099,0.02963 0,0.108655 0.0099,0.138289 0.2667,0.02469 0.321028,0.04939 0.321028,0.335844 v 0.963084 c 0,0.409928 -0.05927,0.429683 -0.365478,0.449439 -0.02963,0.02963 -0.02963,0.13335 0,0.162983 0.172861,-0.0049 0.365478,-0.0099 0.563033,-0.0099 0.197556,0 0.424745,0.0049 0.597606,0.0099 0.02963,-0.02963 0.02963,-0.13335 0,-0.162983 -0.345722,-0.0247 -0.404989,-0.03951 -0.404989,-0.449439 v -0.686506 c 0,-0.128411 0.05927,-0.242006 0.118533,-0.330906 0.05433,-0.07902 0.167923,-0.242005 0.227189,-0.242005 0.04445,0 0.0889,0.0099 0.128412,0.06421 0.03457,0.04939 0.09384,0.113595 0.1778,0.113595 0.118533,0 0.232127,-0.123472 0.232127,-0.246945 0,-0.09384 -0.0889,-0.237066 -0.296333,-0.237066 -0.232128,0 -0.434622,0.217311 -0.548217,0.409927 -0.02963,0.05433 -0.05433,0.01482 -0.05433,-0.0099 z"
         style="font-size:4.93889px;-inkscape-font-specification:'Libertinus Serif, Normal';opacity:1"
         id="path4439" /></g><g
       aria-label="End-paper page"
       id="text4277-2"
       style="font-size:10.5833px;line-height:1.25;font-family:'Libertinus Serif';-inkscape-font-specification:'Libertinus Serif';letter-spacing:0px;stroke-width:0.264583"><path
         d="m 147.61427,53.32058 h -0.44944 v -0.889 c 0,-0.217311 0.0593,-0.316089 0.32597,-0.316089 h 0.37041 c 0.37042,0 0.44944,0.197556 0.5581,0.538339 0.0593,0.0099 0.11359,0 0.16298,-0.02469 -0.0247,-0.202495 -0.0988,-0.676628 -0.10865,-0.716139 0,-0.0099 -0.005,-0.01482 -0.0198,-0.01482 -0.084,0.01482 -0.12347,0.01975 -0.24201,0.01975 h -1.25941 c -0.14817,0 -0.43956,-0.0049 -0.63712,-0.0099 -0.0296,0.02963 -0.0296,0.13335 0,0.162983 0.34572,0.01482 0.42968,0.03951 0.42968,0.449439 v 1.980495 c 0,0.409928 -0.084,0.434622 -0.42968,0.449439 -0.0296,0.02963 -0.0296,0.13335 0,0.162983 0.18274,-0.0049 0.47907,-0.0099 0.64206,-0.0099 h 1.06186 c 0.23706,0 0.63218,0.0099 0.63218,0.0099 0.0691,-0.246944 0.14322,-0.572911 0.18273,-0.824794 -0.0494,-0.02963 -0.10865,-0.03951 -0.17286,-0.0247 -0.0988,0.3556 -0.27164,0.646995 -0.64699,0.646995 h -0.57291 c -0.20744,0 -0.27658,-0.07902 -0.27658,-0.31115 v -1.091495 h 0.44944 c 0.4198,0 0.43462,0.113594 0.44944,0.335844 0.0296,0.02963 0.13335,0.02963 0.16298,0 -0.005,-0.128411 -0.01,-0.2667 -0.01,-0.434622 0,-0.138289 0.005,-0.306211 0.01,-0.424744 -0.0296,-0.02963 -0.13335,-0.02963 -0.16298,0 -0.0148,0.271639 -0.0296,0.335844 -0.44944,0.335844 z"
         style="font-size:4.93889px;-inkscape-font-specification:'Libertinus Serif, Normal';opacity:1"
         id="path4442" /><path
         d="m 149.88615,53.335397 c -0.0296,0.03457 -0.0593,0.04445 -0.0593,0 -0.005,-0.13335 -0.0148,-0.325967 -0.0395,-0.375356 -0.01,-0.02469 -0.0198,-0.03951 -0.0593,-0.03951 -0.13829,0.05433 -0.2667,0.09878 -0.60748,0.143228 -0.01,0.02963 0,0.108655 0.01,0.138289 0.2667,0.02469 0.32103,0.04939 0.32103,0.335844 v 0.963084 c 0,0.404989 -0.0494,0.424744 -0.34572,0.449439 -0.0296,0.02963 -0.0296,0.13335 0,0.162983 0.14817,-0.0049 0.34572,-0.0099 0.54328,-0.0099 0.19755,0 0.34572,0.0049 0.49389,0.0099 0.0296,-0.02963 0.0296,-0.13335 0,-0.162983 -0.25189,-0.0247 -0.30128,-0.04445 -0.30128,-0.449439 v -0.809978 c 0,-0.103717 0.0444,-0.162983 0.084,-0.207433 0.18767,-0.182739 0.40992,-0.291395 0.60254,-0.291395 0.0988,0 0.20249,0.06421 0.26176,0.1778 0.0494,0.09878 0.0593,0.232128 0.0593,0.380295 v 0.750711 c 0,0.404989 -0.0494,0.424744 -0.30621,0.449439 -0.0247,0.02963 -0.0247,0.13335 0,0.162983 0.14816,-0.0049 0.30621,-0.0099 0.50376,-0.0099 0.19756,0 0.37536,0.0049 0.52353,0.0099 0.0247,-0.02963 0.0247,-0.13335 0,-0.162983 -0.27658,-0.0247 -0.33091,-0.04445 -0.33091,-0.449439 V 53.76508 c 0,-0.271639 -0.0198,-0.508705 -0.13335,-0.661811 -0.084,-0.108656 -0.23707,-0.167922 -0.40993,-0.167922 -0.242,0 -0.51858,0.06421 -0.80998,0.40005 z"
         style="font-size:4.93889px;-inkscape-font-specification:'Libertinus Serif, Normal';opacity:1"
         id="path4444" /><path
         d="m 153.30387,54.856575 c 0.0247,-0.01976 0.0691,-0.02963 0.0741,0.0049 0.0148,0.118533 0.0543,0.291394 0.0543,0.291394 0.0395,0.01482 0.0642,0.0099 0.0938,0 0.10865,-0.0889 0.28151,-0.162983 0.58278,-0.197555 0.0296,-0.02963 0.0296,-0.103717 0,-0.13335 -0.31608,-0.0247 -0.36053,-0.118534 -0.36053,-0.360539 v -2.237317 c 0,-0.321028 0.0198,-0.518584 0.0198,-0.518584 0,-0.03457 -0.0198,-0.04939 -0.0642,-0.04939 -0.12348,0.04939 -0.49389,0.118534 -0.69145,0.13335 -0.01,0.03951 0,0.118534 0.0296,0.148167 0.0148,0 0.0296,0 0.0444,0 0.21732,0.01482 0.27164,0.01482 0.27164,0.404989 v 0.632178 c 0,0.03457 -0.01,0.04445 -0.0445,0.04445 -0.0197,0 -0.22225,-0.08396 -0.38523,-0.08396 -0.32597,0 -0.54328,0.108655 -0.74083,0.296333 -0.21238,0.212372 -0.34079,0.503767 -0.34079,0.869245 0,0.607483 0.30621,1.051983 0.83961,1.051983 0.19262,0 0.37536,-0.09878 0.61737,-0.296333 z m 0.0543,-0.365478 c 0,0.09384 -0.01,0.13335 -0.079,0.192617 -0.18274,0.158044 -0.34078,0.237067 -0.46425,0.237067 -0.26671,0 -0.54328,-0.291395 -0.54328,-0.908756 0,-0.3556 0.0691,-0.553156 0.14322,-0.656873 0.15311,-0.232127 0.36054,-0.246944 0.45932,-0.246944 0.1778,0 0.30127,0.06421 0.40005,0.1778 0.0692,0.07902 0.084,0.113594 0.084,0.2667 z"
         style="font-size:4.93889px;-inkscape-font-specification:'Libertinus Serif, Normal';opacity:1"
         id="path4446" /><path
         d="m 155.49179,54.002147 c 0.0642,0 0.13335,-0.138289 0.13335,-0.197556 0,-0.04939 -0.0198,-0.09878 -0.0691,-0.09878 h -1.08162 c -0.0593,0 -0.12347,0.113594 -0.12347,0.202494 0,0.04939 0.0296,0.09384 0.0741,0.09384 z"
         style="font-size:4.93889px;-inkscape-font-specification:'Libertinus Serif, Normal';opacity:1"
         id="path4448" /><path
         d="m 156.59316,53.286008 c -0.005,-0.148167 -0.0148,-0.276578 -0.0395,-0.325967 -0.01,-0.02469 -0.0197,-0.03951 -0.0593,-0.03951 -0.13829,0.05433 -0.2667,0.09878 -0.60749,0.143228 -0.01,0.02963 0,0.108655 0.01,0.138289 0.2667,0.02469 0.32103,0.04939 0.32103,0.335844 v 2.108906 c 0,0.409928 -0.0543,0.434623 -0.3556,0.449439 -0.0296,0.02963 -0.0296,0.13335 0,0.162984 0.17286,-0.0049 0.3556,-0.0099 0.55316,-0.0099 0.19755,0 0.43462,0.0049 0.5976,0.0099 0.0296,-0.02963 0.0296,-0.13335 0,-0.162984 -0.35066,-0.01975 -0.40499,-0.03951 -0.40499,-0.449439 v -0.5334 c 0,-0.06421 0.0198,-0.05927 0.0692,-0.03951 0.12347,0.04939 0.27164,0.07902 0.42968,0.07902 0.27658,0 0.52352,-0.08396 0.72602,-0.276577 0.23213,-0.227189 0.36548,-0.533401 0.36548,-0.933451 0,-0.523522 -0.37042,-1.007533 -0.87419,-1.007533 -0.22719,0 -0.47907,0.148166 -0.67663,0.370416 -0.0296,0.02963 -0.0494,0.02963 -0.0543,-0.01975 z m 0.0938,0.182739 c 0.12842,-0.158045 0.3556,-0.306211 0.49883,-0.306211 0.31609,0 0.58773,0.3556 0.58773,0.913694 0,0.404989 -0.14323,0.908756 -0.69638,0.908756 -0.0889,0 -0.26176,-0.02469 -0.35066,-0.103717 -0.0988,-0.0889 -0.11854,-0.118533 -0.11854,-0.296333 v -0.898878 c 0,-0.103717 0.0198,-0.148167 0.079,-0.217311 z"
         style="font-size:4.93889px;-inkscape-font-specification:'Libertinus Serif, Normal';opacity:1"
         id="path4450" /><path
         d="m 159.83306,54.866453 c 0.0296,0.153105 0.084,0.286455 0.33091,0.286455 0.18768,0 0.36548,-0.08396 0.46919,-0.182739 -0.01,-0.05927 -0.0296,-0.103716 -0.084,-0.13335 -0.0346,0.02963 -0.11853,0.07902 -0.18274,0.07902 -0.14322,0 -0.14816,-0.192617 -0.14816,-0.419806 v -0.726017 c 0,-0.701322 -0.38524,-0.834672 -0.74578,-0.834672 -0.40498,0 -0.81491,0.2667 -0.81491,0.548217 0,0.118533 0.0593,0.1778 0.17286,0.1778 0.14323,0 0.23213,-0.103717 0.23213,-0.167923 0,-0.03457 -0.005,-0.06914 -0.0148,-0.0889 -0.005,-0.01482 -0.01,-0.04445 -0.01,-0.09878 0,-0.153105 0.20744,-0.207433 0.39511,-0.207433 0.16793,0 0.40005,0.08396 0.40005,0.642056 0,0.03457 -0.0148,0.05433 -0.0296,0.05927 l -0.42474,0.103717 c -0.47414,0.118534 -0.81492,0.380295 -0.81492,0.716139 0,0.404989 0.27658,0.5334 0.6223,0.5334 0.17286,0 0.32103,-0.03951 0.53834,-0.207433 l 0.0988,-0.07902 z m 0,-0.913695 v 0.651934 c 0,0.06421 -0.0296,0.09878 -0.0691,0.128411 -0.12841,0.103716 -0.29633,0.217311 -0.43462,0.217311 -0.24695,0 -0.3556,-0.197556 -0.3556,-0.350661 0,-0.22225 0.10371,-0.449439 0.46919,-0.543278 z"
         style="font-size:4.93889px;-inkscape-font-specification:'Libertinus Serif, Normal';opacity:1"
         id="path4452" /><path
         d="m 161.4135,53.286008 c -0.005,-0.148167 -0.0148,-0.276578 -0.0395,-0.325967 -0.01,-0.02469 -0.0197,-0.03951 -0.0593,-0.03951 -0.13828,0.05433 -0.2667,0.09878 -0.60748,0.143228 -0.01,0.02963 0,0.108655 0.01,0.138289 0.2667,0.02469 0.32103,0.04939 0.32103,0.335844 v 2.108906 c 0,0.409928 -0.0543,0.434623 -0.3556,0.449439 -0.0296,0.02963 -0.0296,0.13335 0,0.162984 0.17286,-0.0049 0.3556,-0.0099 0.55315,-0.0099 0.19756,0 0.43462,0.0049 0.59761,0.0099 0.0296,-0.02963 0.0296,-0.13335 0,-0.162984 -0.35066,-0.01975 -0.40499,-0.03951 -0.40499,-0.449439 v -0.5334 c 0,-0.06421 0.0197,-0.05927 0.0691,-0.03951 0.12348,0.04939 0.27164,0.07902 0.42969,0.07902 0.27657,0 0.52352,-0.08396 0.72601,-0.276577 0.23213,-0.227189 0.36548,-0.533401 0.36548,-0.933451 0,-0.523522 -0.37042,-1.007533 -0.87418,-1.007533 -0.22719,0 -0.47907,0.148166 -0.67663,0.370416 -0.0296,0.02963 -0.0494,0.02963 -0.0543,-0.01975 z m 0.0938,0.182739 c 0.12841,-0.158045 0.3556,-0.306211 0.49883,-0.306211 0.31609,0 0.58773,0.3556 0.58773,0.913694 0,0.404989 -0.14323,0.908756 -0.69639,0.908756 -0.0889,0 -0.26176,-0.02469 -0.35066,-0.103717 -0.0988,-0.0889 -0.11853,-0.118533 -0.11853,-0.296333 v -0.898878 c 0,-0.103717 0.0197,-0.148167 0.079,-0.217311 z"
         style="font-size:4.93889px;-inkscape-font-specification:'Libertinus Serif, Normal';opacity:1"
         id="path4454" /><path
         d="m 165.1473,54.644203 c -0.18274,0.187677 -0.32597,0.2667 -0.61242,0.2667 -0.1778,0 -0.38524,-0.103717 -0.53834,-0.3556 -0.0988,-0.162984 -0.15805,-0.390173 -0.15805,-0.676628 l 1.31375,0.0099 c 0.0593,0 0.0938,-0.02963 0.0938,-0.08396 0,-0.414866 -0.14817,-0.859366 -0.83468,-0.859366 -0.42968,0 -0.98777,0.409927 -0.98777,1.160639 0,0.276578 0.0691,0.543278 0.23212,0.730955 0.16793,0.197556 0.40005,0.316089 0.75565,0.316089 0.37536,0 0.64206,-0.172861 0.83961,-0.429683 -0.0148,-0.04939 -0.0445,-0.07408 -0.10371,-0.07902 z m -1.29399,-0.933451 c 0.0938,-0.558094 0.43956,-0.602544 0.55809,-0.602544 0.18768,0 0.40993,0.103717 0.40993,0.518583 0,0.04445 -0.0197,0.06915 -0.0741,0.06915 z"
         style="font-size:4.93889px;-inkscape-font-specification:'Libertinus Serif, Normal';opacity:1"
         id="path4456" /><path
         d="m 166.31781,53.335397 c -0.01,-0.197556 -0.0148,-0.325967 -0.0395,-0.375356 -0.01,-0.02469 -0.0198,-0.03951 -0.0593,-0.03951 -0.13829,0.05433 -0.2667,0.09878 -0.60748,0.143228 -0.01,0.02963 0,0.108655 0.01,0.138289 0.2667,0.02469 0.32103,0.04939 0.32103,0.335844 v 0.963084 c 0,0.409928 -0.0593,0.429683 -0.36548,0.449439 -0.0296,0.02963 -0.0296,0.13335 0,0.162983 0.17286,-0.0049 0.36548,-0.0099 0.56304,-0.0099 0.19755,0 0.42474,0.0049 0.5976,0.0099 0.0296,-0.02963 0.0296,-0.13335 0,-0.162983 -0.34572,-0.0247 -0.40499,-0.03951 -0.40499,-0.449439 V 53.81447 c 0,-0.128411 0.0593,-0.242005 0.11854,-0.330905 0.0543,-0.07902 0.16792,-0.242006 0.22719,-0.242006 0.0445,0 0.0889,0.0099 0.12841,0.06421 0.0346,0.04939 0.0938,0.113595 0.1778,0.113595 0.11853,0 0.23213,-0.123472 0.23213,-0.246945 0,-0.09384 -0.0889,-0.237066 -0.29634,-0.237066 -0.23213,0 -0.43462,0.217311 -0.54821,0.409928 -0.0296,0.05433 -0.0543,0.01482 -0.0543,-0.0099 z"
         style="font-size:4.93889px;-inkscape-font-specification:'Libertinus Serif, Normal';opacity:1"
         id="path4458" /><path
         d="m 169.29101,53.286008 c -0.005,-0.148167 -0.0148,-0.276578 -0.0395,-0.325967 -0.01,-0.02469 -0.0198,-0.03951 -0.0593,-0.03951 -0.13829,0.05433 -0.2667,0.09878 -0.60748,0.143228 -0.01,0.02963 0,0.108655 0.01,0.138289 0.2667,0.02469 0.32102,0.04939 0.32102,0.335844 v 2.108906 c 0,0.409928 -0.0543,0.434623 -0.3556,0.449439 -0.0296,0.02963 -0.0296,0.13335 0,0.162984 0.17286,-0.0049 0.3556,-0.0099 0.55316,-0.0099 0.19755,0 0.43462,0.0049 0.5976,0.0099 0.0296,-0.02963 0.0296,-0.13335 0,-0.162984 -0.35066,-0.01975 -0.40498,-0.03951 -0.40498,-0.449439 v -0.5334 c 0,-0.06421 0.0198,-0.05927 0.0691,-0.03951 0.12347,0.04939 0.27164,0.07902 0.42968,0.07902 0.27658,0 0.52353,-0.08396 0.72602,-0.276577 0.23213,-0.227189 0.36548,-0.533401 0.36548,-0.933451 0,-0.523522 -0.37042,-1.007533 -0.87419,-1.007533 -0.22718,0 -0.47907,0.148166 -0.67662,0.370416 -0.0296,0.02963 -0.0494,0.02963 -0.0543,-0.01975 z m 0.0938,0.182739 c 0.12841,-0.158045 0.3556,-0.306211 0.49883,-0.306211 0.31608,0 0.58772,0.3556 0.58772,0.913694 0,0.404989 -0.14322,0.908756 -0.69638,0.908756 -0.0889,0 -0.26176,-0.02469 -0.35066,-0.103717 -0.0988,-0.0889 -0.11853,-0.118533 -0.11853,-0.296333 v -0.898878 c 0,-0.103717 0.0198,-0.148167 0.079,-0.217311 z"
         style="font-size:4.93889px;-inkscape-font-specification:'Libertinus Serif, Normal';opacity:1"
         id="path4460" /><path
         d="m 172.53092,54.866453 c 0.0296,0.153105 0.084,0.286455 0.3309,0.286455 0.18768,0 0.36548,-0.08396 0.4692,-0.182739 -0.01,-0.05927 -0.0296,-0.103716 -0.084,-0.13335 -0.0346,0.02963 -0.11854,0.07902 -0.18274,0.07902 -0.14323,0 -0.14817,-0.192617 -0.14817,-0.419806 v -0.726017 c 0,-0.701322 -0.38523,-0.834672 -0.74577,-0.834672 -0.40499,0 -0.81492,0.2667 -0.81492,0.548217 0,0.118533 0.0593,0.1778 0.17286,0.1778 0.14323,0 0.23213,-0.103717 0.23213,-0.167923 0,-0.03457 -0.005,-0.06914 -0.0148,-0.0889 -0.005,-0.01482 -0.01,-0.04445 -0.01,-0.09878 0,-0.153105 0.20743,-0.207433 0.39511,-0.207433 0.16792,0 0.40005,0.08396 0.40005,0.642056 0,0.03457 -0.0148,0.05433 -0.0296,0.05927 l -0.42474,0.103717 c -0.47413,0.118534 -0.81492,0.380295 -0.81492,0.716139 0,0.404989 0.27658,0.5334 0.6223,0.5334 0.17286,0 0.32103,-0.03951 0.53834,-0.207433 l 0.0988,-0.07902 z m 0,-0.913695 v 0.651934 c 0,0.06421 -0.0296,0.09878 -0.0692,0.128411 -0.12841,0.103716 -0.29633,0.217311 -0.43462,0.217311 -0.24694,0 -0.3556,-0.197556 -0.3556,-0.350661 0,-0.22225 0.10372,-0.449439 0.46919,-0.543278 z"
         style="font-size:4.93889px;-inkscape-font-specification:'Libertinus Serif, Normal';opacity:1"
         id="path4462" /><path
         d="m 175.53376,53.192169 c 0.0938,0 0.18274,-0.0889 0.18274,-0.187678 0,-0.103716 -0.0938,-0.182739 -0.22719,-0.182739 -0.12842,0 -0.36548,0.08396 -0.49389,0.251884 -0.0593,-0.03951 -0.22225,-0.138289 -0.51365,-0.138289 -0.43956,0 -0.84455,0.296333 -0.84455,0.750711 0,0.2667 0.11854,0.419806 0.25682,0.553156 -0.13828,0.118533 -0.21731,0.330905 -0.21731,0.498828 0,0.1778 0.0988,0.316089 0.22719,0.380294 -0.2667,0.158045 -0.40499,0.385234 -0.40499,0.597606 0,0.429683 0.40499,0.563033 0.78529,0.563033 0.66675,0 1.38783,-0.321028 1.38783,-0.854428 0,-0.158044 -0.0741,-0.281516 -0.21732,-0.40005 -0.19261,-0.158044 -0.53834,-0.162983 -0.72107,-0.162983 -0.0889,0 -0.21238,0.0099 -0.33091,0.02469 -0.0741,0.0049 -0.12347,0.0099 -0.14817,0.0099 -0.14322,0 -0.31609,-0.06914 -0.31609,-0.281517 0,-0.09878 0.0296,-0.202494 0.0889,-0.286455 0.11854,0.06914 0.25683,0.103716 0.44944,0.103716 0.43463,0 0.83468,-0.271639 0.83468,-0.75565 0,-0.232128 -0.0692,-0.365478 -0.21238,-0.513644 0.0346,-0.04939 0.13335,-0.118534 0.19756,-0.118534 0.0346,0 0.0691,0.01482 0.0988,0.05927 0.0198,0.03951 0.084,0.0889 0.13829,0.0889 z m -1.54094,1.960739 c 0.0543,0.01482 0.13335,0.0247 0.19756,0.0247 0.1531,0 0.29139,-0.01482 0.36054,-0.01482 0.24694,0 0.45437,0.0049 0.5976,0.08396 0.19262,0.108656 0.25189,0.1778 0.25189,0.306211 0,0.355601 -0.52353,0.543278 -0.96803,0.543278 -0.1778,0 -0.59266,-0.143227 -0.59266,-0.479072 0,-0.167922 0.01,-0.291395 0.1531,-0.464257 z m 0.92357,-1.427339 c 0,0.459317 -0.23212,0.553156 -0.41486,0.553156 -0.41487,0 -0.45932,-0.350661 -0.45932,-0.66675 0,-0.345723 0.12347,-0.523523 0.39511,-0.523523 0.31115,0 0.47907,0.227189 0.47907,0.637117 z"
         style="font-size:4.93889px;-inkscape-font-specification:'Libertinus Serif, Normal';opacity:1"
         id="path4464" /><path
         d="m 177.71674,54.644203 c -0.18274,0.187677 -0.32597,0.2667 -0.61243,0.2667 -0.1778,0 -0.38523,-0.103717 -0.53834,-0.3556 -0.0988,-0.162984 -0.15804,-0.390173 -0.15804,-0.676628 l 1.31374,0.0099 c 0.0593,0 0.0938,-0.02963 0.0938,-0.08396 0,-0.414866 -0.14816,-0.859366 -0.83467,-0.859366 -0.42968,0 -0.98778,0.409927 -0.98778,1.160639 0,0.276578 0.0691,0.543278 0.23213,0.730955 0.16792,0.197556 0.40005,0.316089 0.75565,0.316089 0.37536,0 0.64206,-0.172861 0.83961,-0.429683 -0.0148,-0.04939 -0.0444,-0.07408 -0.10371,-0.07902 z m -1.29399,-0.933451 c 0.0938,-0.558094 0.43956,-0.602544 0.55809,-0.602544 0.18768,0 0.40993,0.103717 0.40993,0.518583 0,0.04445 -0.0198,0.06915 -0.0741,0.06915 z"
         style="font-size:4.93889px;-inkscape-font-specification:'Libertinus Serif, Normal';opacity:1"
         id="path4466" /></g><g
       aria-label="Title page"
       id="text4277-9"
       style="font-size:10.5833px;line-height:1.25;font-family:'Libertinus Serif';-inkscape-font-specification:'Libertinus Serif';letter-spacing:0px;stroke-width:0.264583"><path
         d="m 108.02953,141.59651 v -1.88666 c 0,-0.31609 0.0494,-0.50377 0.22719,-0.50377 h 0.10865 c 0.37042,0 0.60255,0.12841 0.68651,0.50871 0.0543,0 0.12347,-0.005 0.16792,-0.0247 -0.0346,-0.22718 -0.0593,-0.47907 -0.0642,-0.70132 0,-0.005 -0.01,-0.0148 -0.0148,-0.0148 -0.16792,0.0148 -0.71614,0.0395 -1.10631,0.0395 h -0.42475 c -0.38029,0 -0.96308,-0.0247 -1.15076,-0.0395 -0.01,0 -0.0198,0.01 -0.0198,0.0148 -0.0198,0.22225 -0.0692,0.47907 -0.12347,0.71614 0.0494,0.0198 0.10865,0.0247 0.16792,0.0247 0.0988,-0.39512 0.32596,-0.52353 0.65193,-0.52353 h 0.24201 c 0.18274,0 0.23212,0.18768 0.23212,0.48895 v 1.90148 c 0,0.40992 -0.084,0.43462 -0.47907,0.44944 -0.0296,0.0296 -0.0296,0.13335 0,0.16298 0.24201,-0.005 0.49389,-0.01 0.69145,-0.01 0.18767,0 0.43956,0.005 0.6865,0.01 0.0296,-0.0296 0.0296,-0.13335 0,-0.16298 -0.39511,-0.0148 -0.47907,-0.0395 -0.47907,-0.44944 z"
         style="font-size:4.93889px;-inkscape-font-specification:'Libertinus Serif, Normal';opacity:1"
         id="path4469" /><path
         d="m 110.14337,141.59651 v -0.98284 c 0,-0.24695 0.0198,-0.56304 0.0198,-0.56304 0,-0.0198 -0.0247,-0.0346 -0.0642,-0.0346 -0.13829,0.0543 -0.33585,0.0988 -0.67663,0.14323 -0.01,0.0296 0,0.10865 0.01,0.13829 0.27163,0.0247 0.32102,0.0543 0.32102,0.33584 v 0.96309 c 0,0.40992 -0.0543,0.42474 -0.3556,0.44944 -0.0296,0.0296 -0.0296,0.13335 0,0.16298 0.16299,-0.005 0.3556,-0.01 0.55316,-0.01 0.19756,0 0.38523,0.005 0.54822,0.01 0.0296,-0.0296 0.0296,-0.13335 0,-0.16298 -0.30128,-0.0198 -0.3556,-0.0395 -0.3556,-0.44944 z m -0.44944,-2.35585 c 0,0.12841 0.11853,0.25682 0.23706,0.25682 0.13829,0 0.25683,-0.13335 0.25683,-0.23707 0,-0.11853 -0.10372,-0.25682 -0.23707,-0.25682 -0.11853,0 -0.25682,0.11853 -0.25682,0.23707 z"
         style="font-size:4.93889px;-inkscape-font-specification:'Libertinus Serif, Normal';opacity:1"
         id="path4471" /><path
         d="m 110.80024,140.08027 c -0.0692,0 -0.0889,0.0593 -0.0889,0.0988 v 0.0642 c 0,0.0247 0.005,0.0296 0.0247,0.0296 h 0.2914 v 1.48661 c 0,0.35066 0.1531,0.48895 0.38029,0.48895 0.22719,0 0.47414,-0.10866 0.66675,-0.32597 -0.01,-0.0494 -0.0395,-0.079 -0.0889,-0.084 -0.12841,0.0988 -0.27658,0.13829 -0.40499,0.13829 -0.13335,0 -0.16298,-0.14817 -0.16298,-0.45438 v -1.24954 h 0.51364 c 0.0494,0 0.11854,-0.0197 0.11854,-0.0642 v -0.0988 c 0,-0.0198 -0.0148,-0.0296 -0.0395,-0.0296 h -0.59267 v -0.19262 c 0,-0.32103 0.0198,-0.51858 0.0198,-0.51858 0,-0.0296 -0.0148,-0.0444 -0.0395,-0.0444 -0.0198,0 -0.0642,0.0197 -0.10865,0.0444 -0.0543,0.0296 -0.10372,0.0543 -0.16792,0.0691 -0.0593,0.0198 -0.10866,0.0346 -0.10866,0.0692 0,0.0593 0.0148,0.0247 0.0148,0.57291 z"
         style="font-size:4.93889px;-inkscape-font-specification:'Libertinus Serif, Normal';opacity:1"
         id="path4473" /><path
         d="m 112.61775,141.59651 c 0,0.40992 -0.0543,0.43462 -0.3556,0.44944 -0.0296,0.0296 -0.0296,0.13335 0,0.16298 0.17286,-0.005 0.3556,-0.01 0.55315,-0.01 0.19756,0 0.38524,0.005 0.54822,0.01 0.0296,-0.0296 0.0296,-0.13335 0,-0.16298 -0.30127,-0.0148 -0.3556,-0.0395 -0.3556,-0.44944 v -2.27683 c 0,-0.32103 0.0198,-0.51859 0.0198,-0.51859 0,-0.0346 -0.0198,-0.0494 -0.0642,-0.0494 -0.12347,0.0494 -0.49389,0.11853 -0.69144,0.13335 -0.01,0.0395 0,0.11853 0.0296,0.14816 0.28646,0.0198 0.31609,0.0346 0.31609,0.40499 z"
         style="font-size:4.93889px;-inkscape-font-specification:'Libertinus Serif, Normal';opacity:1"
         id="path4475" /><path
         d="m 115.35883,141.73973 c -0.18274,0.18768 -0.32596,0.2667 -0.61242,0.2667 -0.1778,0 -0.38523,-0.10371 -0.53834,-0.3556 -0.0988,-0.16298 -0.15804,-0.39017 -0.15804,-0.67662 l 1.31374,0.01 c 0.0593,0 0.0938,-0.0296 0.0938,-0.084 0,-0.41486 -0.14817,-0.85936 -0.83467,-0.85936 -0.42968,0 -0.98778,0.40992 -0.98778,1.16064 0,0.27657 0.0692,0.54327 0.23213,0.73095 0.16792,0.19756 0.40005,0.31609 0.75565,0.31609 0.37535,0 0.64205,-0.17286 0.83961,-0.42968 -0.0148,-0.0494 -0.0444,-0.0741 -0.10372,-0.079 z m -1.29399,-0.93345 c 0.0938,-0.55809 0.43957,-0.60254 0.5581,-0.60254 0.18768,0 0.40993,0.10372 0.40993,0.51858 0,0.0445 -0.0198,0.0692 -0.0741,0.0692 z"
         style="font-size:4.93889px;-inkscape-font-specification:'Libertinus Serif, Normal';opacity:1"
         id="path4477" /><path
         d="m 117.66528,140.38154 c -0.005,-0.14817 -0.0148,-0.27658 -0.0395,-0.32597 -0.01,-0.0247 -0.0198,-0.0395 -0.0593,-0.0395 -0.13829,0.0543 -0.2667,0.0988 -0.60748,0.14323 -0.01,0.0296 0,0.10865 0.01,0.13829 0.26671,0.0247 0.32103,0.0494 0.32103,0.33584 v 2.10891 c 0,0.40993 -0.0543,0.43462 -0.3556,0.44944 -0.0296,0.0296 -0.0296,0.13335 0,0.16298 0.17286,-0.005 0.3556,-0.01 0.55316,-0.01 0.19755,0 0.43462,0.005 0.5976,0.01 0.0296,-0.0296 0.0296,-0.13335 0,-0.16298 -0.35066,-0.0198 -0.40498,-0.0395 -0.40498,-0.44944 v -0.5334 c 0,-0.0642 0.0198,-0.0593 0.0691,-0.0395 0.12347,0.0494 0.27164,0.079 0.42968,0.079 0.27658,0 0.52353,-0.084 0.72602,-0.27658 0.23213,-0.22719 0.36548,-0.5334 0.36548,-0.93345 0,-0.52352 -0.37042,-1.00753 -0.87419,-1.00753 -0.22718,0 -0.47907,0.14816 -0.67662,0.37041 -0.0296,0.0296 -0.0494,0.0296 -0.0543,-0.0197 z m 0.0938,0.18274 c 0.12841,-0.15805 0.3556,-0.30621 0.49883,-0.30621 0.31608,0 0.58772,0.3556 0.58772,0.91369 0,0.40499 -0.14322,0.90876 -0.69638,0.90876 -0.0889,0 -0.26176,-0.0247 -0.35066,-0.10372 -0.0988,-0.0889 -0.11853,-0.11853 -0.11853,-0.29633 v -0.89888 c 0,-0.10372 0.0198,-0.14817 0.079,-0.21731 z"
         style="font-size:4.93889px;-inkscape-font-specification:'Libertinus Serif, Normal';opacity:1"
         id="path4479" /><path
         d="m 120.90519,141.96198 c 0.0296,0.15311 0.084,0.28646 0.3309,0.28646 0.18768,0 0.36548,-0.084 0.4692,-0.18274 -0.01,-0.0593 -0.0296,-0.10372 -0.084,-0.13335 -0.0346,0.0296 -0.11853,0.079 -0.18273,0.079 -0.14323,0 -0.14817,-0.19261 -0.14817,-0.4198 v -0.72602 c 0,-0.70132 -0.38523,-0.83467 -0.74577,-0.83467 -0.40499,0 -0.81492,0.2667 -0.81492,0.54821 0,0.11854 0.0593,0.17781 0.17286,0.17781 0.14323,0 0.23213,-0.10372 0.23213,-0.16793 0,-0.0346 -0.005,-0.0691 -0.0148,-0.0889 -0.005,-0.0148 -0.01,-0.0444 -0.01,-0.0988 0,-0.1531 0.20744,-0.20743 0.39512,-0.20743 0.16792,0 0.40005,0.084 0.40005,0.64206 0,0.0346 -0.0148,0.0543 -0.0296,0.0593 l -0.42474,0.10372 c -0.47414,0.11853 -0.81492,0.3803 -0.81492,0.71614 0,0.40499 0.27658,0.5334 0.6223,0.5334 0.17286,0 0.32103,-0.0395 0.53834,-0.20743 l 0.0988,-0.079 z m 0,-0.91369 v 0.65193 c 0,0.0642 -0.0296,0.0988 -0.0692,0.12841 -0.12841,0.10372 -0.29633,0.21732 -0.43462,0.21732 -0.24695,0 -0.3556,-0.19756 -0.3556,-0.35067 0,-0.22225 0.10372,-0.44943 0.46919,-0.54327 z"
         style="font-size:4.93889px;-inkscape-font-specification:'Libertinus Serif, Normal';opacity:1"
         id="path4481" /><path
         d="m 123.90803,140.2877 c 0.0938,0 0.18273,-0.0889 0.18273,-0.18768 0,-0.10371 -0.0938,-0.18274 -0.22718,-0.18274 -0.12842,0 -0.36548,0.084 -0.49389,0.25189 -0.0593,-0.0395 -0.22225,-0.13829 -0.51365,-0.13829 -0.43956,0 -0.84455,0.29633 -0.84455,0.75071 0,0.2667 0.11854,0.41981 0.25682,0.55316 -0.13828,0.11853 -0.21731,0.3309 -0.21731,0.49882 0,0.1778 0.0988,0.31609 0.22719,0.3803 -0.2667,0.15804 -0.40499,0.38523 -0.40499,0.5976 0,0.42969 0.40499,0.56304 0.78529,0.56304 0.66675,0 1.38782,-0.32103 1.38782,-0.85443 0,-0.15805 -0.0741,-0.28152 -0.21731,-0.40005 -0.19261,-0.15805 -0.53834,-0.16298 -0.72107,-0.16298 -0.0889,0 -0.21238,0.01 -0.33091,0.0247 -0.0741,0.005 -0.12347,0.01 -0.14817,0.01 -0.14322,0 -0.31609,-0.0692 -0.31609,-0.28152 0,-0.0988 0.0296,-0.20249 0.0889,-0.28645 0.11854,0.0691 0.25683,0.10371 0.44944,0.10371 0.43463,0 0.83468,-0.27164 0.83468,-0.75565 0,-0.23213 -0.0691,-0.36548 -0.21238,-0.51364 0.0346,-0.0494 0.13335,-0.11854 0.19756,-0.11854 0.0346,0 0.0691,0.0148 0.0988,0.0593 0.0198,0.0395 0.084,0.0889 0.13829,0.0889 z m -1.54094,1.96074 c 0.0543,0.0148 0.13335,0.0247 0.19756,0.0247 0.1531,0 0.29139,-0.0148 0.36054,-0.0148 0.24694,0 0.45437,0.005 0.5976,0.084 0.19262,0.10865 0.25189,0.1778 0.25189,0.30621 0,0.3556 -0.52353,0.54328 -0.96803,0.54328 -0.1778,0 -0.59266,-0.14323 -0.59266,-0.47907 0,-0.16793 0.01,-0.2914 0.1531,-0.46426 z m 0.92357,-1.42734 c 0,0.45932 -0.23212,0.55316 -0.41486,0.55316 -0.41487,0 -0.45932,-0.35066 -0.45932,-0.66675 0,-0.34573 0.12347,-0.52353 0.39511,-0.52353 0.31115,0 0.47907,0.22719 0.47907,0.63712 z"
         style="font-size:4.93889px;-inkscape-font-specification:'Libertinus Serif, Normal';opacity:1"
         id="path4483" /><path
         d="m 126.091,141.73973 c -0.18273,0.18768 -0.32596,0.2667 -0.61242,0.2667 -0.1778,0 -0.38523,-0.10371 -0.53834,-0.3556 -0.0988,-0.16298 -0.15804,-0.39017 -0.15804,-0.67662 l 1.31374,0.01 c 0.0593,0 0.0938,-0.0296 0.0938,-0.084 0,-0.41486 -0.14816,-0.85936 -0.83467,-0.85936 -0.42968,0 -0.98778,0.40992 -0.98778,1.16064 0,0.27657 0.0692,0.54327 0.23213,0.73095 0.16792,0.19756 0.40005,0.31609 0.75565,0.31609 0.37536,0 0.64206,-0.17286 0.83961,-0.42968 -0.0148,-0.0494 -0.0444,-0.0741 -0.10372,-0.079 z m -1.29398,-0.93345 c 0.0938,-0.55809 0.43956,-0.60254 0.55809,-0.60254 0.18768,0 0.40993,0.10372 0.40993,0.51858 0,0.0445 -0.0198,0.0692 -0.0741,0.0692 z"
         style="font-size:4.93889px;-inkscape-font-specification:'Libertinus Serif, Normal';opacity:1"
         id="path4485" /></g><g
       aria-label="Half-title page"
       id="text4277-3"
       style="font-size:10.5833px;line-height:1.25;font-family:'Libertinus Serif';-inkscape-font-specification:'Libertinus Serif';letter-spacing:0px;stroke-width:0.264583"><path
         d="m 39.252578,142.33172 v -1.98049 c 0,-0.40993 0.08396,-0.43463 0.429684,-0.44944 0.02963,-0.0296 0.02963,-0.13335 0,-0.16299 -0.202495,0.005 -0.454378,0.01 -0.642056,0.01 -0.182739,0 -0.419806,-0.005 -0.637117,-0.01 -0.02963,0.0296 -0.02963,0.13335 0,0.16299 0.345722,0.0148 0.429683,0.0395 0.429683,0.44944 v 0.79022 h -1.6891 v -0.79022 c 0,-0.40993 0.08396,-0.43463 0.429684,-0.44944 0.02963,-0.0296 0.02963,-0.13335 0,-0.16299 -0.187678,0.005 -0.390173,0.01 -0.642056,0.01 -0.246945,0 -0.449439,-0.005 -0.637117,-0.01 -0.02963,0.0296 -0.02963,0.13335 0,0.16299 0.345722,0.0148 0.429683,0.0395 0.429683,0.44944 v 1.98049 c 0,0.40993 -0.08396,0.43462 -0.429683,0.44944 -0.02963,0.0296 -0.02963,0.13335 0,0.16298 0.217311,-0.005 0.454378,-0.01 0.642056,-0.01 0.1778,0 0.419805,0.005 0.637117,0.01 0.02963,-0.0296 0.02963,-0.13335 0,-0.16298 -0.345723,-0.0148 -0.429684,-0.0395 -0.429684,-0.44944 v -0.98284 h 1.6891 v 0.98284 c 0,0.40993 -0.08396,0.43462 -0.429683,0.44944 -0.02963,0.0296 -0.02963,0.13335 0,0.16298 0.22225,-0.005 0.459317,-0.01 0.642056,-0.01 0.182739,0 0.419805,0.005 0.637117,0.01 0.02963,-0.0296 0.02963,-0.13335 0,-0.16298 -0.345723,-0.0148 -0.429684,-0.0395 -0.429684,-0.44944 z"
         style="font-size:4.93889px;-inkscape-font-specification:'Libertinus Serif, Normal';opacity:1"
         id="path4488" /><path
         d="m 41.252826,142.6972 c 0.02963,0.1531 0.08396,0.28645 0.330906,0.28645 0.187678,0 0.365478,-0.084 0.469194,-0.18273 -0.0099,-0.0593 -0.02963,-0.10372 -0.08396,-0.13335 -0.03457,0.0296 -0.118533,0.079 -0.182739,0.079 -0.143227,0 -0.148166,-0.19262 -0.148166,-0.41981 v -0.72602 c 0,-0.70132 -0.385234,-0.83467 -0.745773,-0.83467 -0.404989,0 -0.814917,0.2667 -0.814917,0.54822 0,0.11853 0.05927,0.1778 0.172862,0.1778 0.143227,0 0.232127,-0.10372 0.232127,-0.16792 0,-0.0346 -0.0049,-0.0691 -0.01482,-0.0889 -0.0049,-0.0148 -0.0099,-0.0444 -0.0099,-0.0988 0,-0.15311 0.207433,-0.20743 0.395111,-0.20743 0.167922,0 0.40005,0.084 0.40005,0.64205 0,0.0346 -0.01482,0.0543 -0.02963,0.0593 l -0.424745,0.10371 c -0.474133,0.11854 -0.814916,0.3803 -0.814916,0.71614 0,0.40499 0.276577,0.5334 0.6223,0.5334 0.172861,0 0.321028,-0.0395 0.538339,-0.20743 l 0.09878,-0.079 z m 0,-0.9137 v 0.65194 c 0,0.0642 -0.02963,0.0988 -0.06914,0.12841 -0.128411,0.10372 -0.296334,0.21731 -0.434622,0.21731 -0.246945,0 -0.355601,-0.19756 -0.355601,-0.35066 0,-0.22225 0.103717,-0.44944 0.469195,-0.54328 z"
         style="font-size:4.93889px;-inkscape-font-specification:'Libertinus Serif, Normal';opacity:1"
         id="path4490" /><path
         d="m 42.531993,142.33172 c 0,0.40993 -0.05433,0.43462 -0.3556,0.44944 -0.02963,0.0296 -0.02963,0.13335 0,0.16298 0.172861,-0.005 0.3556,-0.01 0.553156,-0.01 0.197555,0 0.385233,0.005 0.548216,0.01 0.02963,-0.0296 0.02963,-0.13335 0,-0.16298 -0.301272,-0.0148 -0.3556,-0.0395 -0.3556,-0.44944 v -2.27683 c 0,-0.32103 0.01976,-0.51858 0.01976,-0.51858 0,-0.0346 -0.01976,-0.0494 -0.06421,-0.0494 -0.123472,0.0494 -0.493889,0.11853 -0.691444,0.13335 -0.0099,0.0395 0,0.11853 0.02963,0.14817 0.286456,0.0197 0.316089,0.0346 0.316089,0.40499 z"
         style="font-size:4.93889px;-inkscape-font-specification:'Libertinus Serif, Normal';opacity:1"
         id="path4492" /><path
         d="m 44.230971,142.33172 v -1.32362 h 0.459316 c 0.04445,0 0.113595,-0.0198 0.113595,-0.0642 v -0.0988 c 0,-0.0198 -0.01482,-0.0296 -0.03951,-0.0296 h -0.5334 v -0.28152 c 0,-0.76058 0.227189,-0.87912 0.390172,-0.87912 0.148167,0 0.227189,0.0593 0.296333,0.23213 0.03951,0.0889 0.09384,0.15804 0.197556,0.15804 0.08396,0 0.202494,-0.10371 0.202494,-0.20249 0,-0.084 -0.05433,-0.17286 -0.158044,-0.25188 -0.128411,-0.0889 -0.256822,-0.10372 -0.4445,-0.10372 -0.414867,0 -0.874184,0.36054 -0.874184,1.13101 v 0.19755 h -0.251883 c -0.0889,0 -0.113595,0.0593 -0.113595,0.0988 v 0.0642 c 0,0.0247 0.0049,0.0296 0.02469,0.0296 h 0.340783 v 1.32362 c 0,0.40993 -0.07902,0.42968 -0.345722,0.44944 -0.02963,0.0296 -0.02963,0.13335 0,0.16298 0.172861,-0.005 0.345722,-0.01 0.543278,-0.01 0.197556,0 0.434622,0.005 0.607483,0.01 0.02963,-0.0296 0.02963,-0.13335 0,-0.16298 -0.385233,-0.0198 -0.414866,-0.0395 -0.414866,-0.44944 z"
         style="font-size:4.93889px;-inkscape-font-specification:'Libertinus Serif, Normal';opacity:1"
         id="path4494" /><path
         d="m 46.236158,141.83289 c 0.0642,0 0.13335,-0.13829 0.13335,-0.19755 0,-0.0494 -0.01976,-0.0988 -0.06915,-0.0988 h -1.081617 c -0.05927,0 -0.123472,0.11359 -0.123472,0.20249 0,0.0494 0.02963,0.0938 0.07408,0.0938 z"
         style="font-size:4.93889px;-inkscape-font-specification:'Libertinus Serif, Normal';opacity:1"
         id="path4496" /><path
         d="m 46.779433,140.81548 c -0.06914,0 -0.0889,0.0593 -0.0889,0.0988 v 0.0642 c 0,0.0247 0.0049,0.0296 0.02469,0.0296 h 0.291395 v 1.4866 c 0,0.35067 0.153105,0.48895 0.380294,0.48895 0.227189,0 0.474134,-0.10865 0.66675,-0.32596 -0.0099,-0.0494 -0.03951,-0.079 -0.0889,-0.084 -0.128411,0.0988 -0.276578,0.13829 -0.404989,0.13829 -0.13335,0 -0.162983,-0.14817 -0.162983,-0.45438 v -1.24954 h 0.513645 c 0.04939,0 0.118533,-0.0198 0.118533,-0.0642 v -0.0988 c 0,-0.0198 -0.01482,-0.0296 -0.03951,-0.0296 h -0.592667 v -0.19262 c 0,-0.32102 0.01976,-0.51858 0.01976,-0.51858 0,-0.0296 -0.01482,-0.0444 -0.03951,-0.0444 -0.01975,0 -0.06421,0.0198 -0.108655,0.0444 -0.05433,0.0296 -0.103717,0.0543 -0.167922,0.0692 -0.05927,0.0198 -0.108656,0.0346 -0.108656,0.0691 0,0.0593 0.01482,0.0247 0.01482,0.57291 z"
         style="font-size:4.93889px;-inkscape-font-specification:'Libertinus Serif, Normal';opacity:1"
         id="path4498" /><path
         d="m 49.021689,142.33172 v -0.98284 c 0,-0.24694 0.01975,-0.56303 0.01975,-0.56303 0,-0.0198 -0.02469,-0.0346 -0.06421,-0.0346 -0.138289,0.0543 -0.335845,0.0988 -0.676628,0.14322 -0.0099,0.0296 0,0.10866 0.0099,0.13829 0.271639,0.0247 0.321028,0.0543 0.321028,0.33585 v 0.96308 c 0,0.40993 -0.05433,0.42475 -0.3556,0.44944 -0.02963,0.0296 -0.02963,0.13335 0,0.16298 0.162984,-0.005 0.3556,-0.01 0.553156,-0.01 0.197555,0 0.385233,0.005 0.548217,0.01 0.02963,-0.0296 0.02963,-0.13335 0,-0.16298 -0.301273,-0.0198 -0.3556,-0.0395 -0.3556,-0.44944 z m -0.449439,-2.35585 c 0,0.12841 0.118533,0.25682 0.237066,0.25682 0.138289,0 0.256823,-0.13335 0.256823,-0.23706 0,-0.11854 -0.103717,-0.25683 -0.237067,-0.25683 -0.118534,0 -0.256822,0.11854 -0.256822,0.23707 z"
         style="font-size:4.93889px;-inkscape-font-specification:'Libertinus Serif, Normal';opacity:1"
         id="path4500" /><path
         d="m 49.678561,140.81548 c -0.06914,0 -0.0889,0.0593 -0.0889,0.0988 v 0.0642 c 0,0.0247 0.0049,0.0296 0.02469,0.0296 h 0.291395 v 1.4866 c 0,0.35067 0.153105,0.48895 0.380294,0.48895 0.227189,0 0.474134,-0.10865 0.66675,-0.32596 -0.0099,-0.0494 -0.03951,-0.079 -0.0889,-0.084 -0.128411,0.0988 -0.276578,0.13829 -0.404989,0.13829 -0.13335,0 -0.162983,-0.14817 -0.162983,-0.45438 v -1.24954 h 0.513645 c 0.04939,0 0.118533,-0.0198 0.118533,-0.0642 v -0.0988 c 0,-0.0198 -0.01482,-0.0296 -0.03951,-0.0296 h -0.592667 v -0.19262 c 0,-0.32102 0.01976,-0.51858 0.01976,-0.51858 0,-0.0296 -0.01482,-0.0444 -0.03951,-0.0444 -0.01976,0 -0.06421,0.0198 -0.108655,0.0444 -0.05433,0.0296 -0.103717,0.0543 -0.167922,0.0692 -0.05927,0.0198 -0.108656,0.0346 -0.108656,0.0691 0,0.0593 0.01482,0.0247 0.01482,0.57291 z"
         style="font-size:4.93889px;-inkscape-font-specification:'Libertinus Serif, Normal';opacity:1"
         id="path4502" /><path
         d="m 51.496072,142.33172 c 0,0.40993 -0.05433,0.43462 -0.3556,0.44944 -0.02963,0.0296 -0.02963,0.13335 0,0.16298 0.172861,-0.005 0.3556,-0.01 0.553156,-0.01 0.197555,0 0.385233,0.005 0.548216,0.01 0.02963,-0.0296 0.02963,-0.13335 0,-0.16298 -0.301272,-0.0148 -0.3556,-0.0395 -0.3556,-0.44944 v -2.27683 c 0,-0.32103 0.01976,-0.51858 0.01976,-0.51858 0,-0.0346 -0.01976,-0.0494 -0.06421,-0.0494 -0.123472,0.0494 -0.493889,0.11853 -0.691444,0.13335 -0.0099,0.0395 0,0.11853 0.02963,0.14817 0.286456,0.0197 0.316089,0.0346 0.316089,0.40499 z"
         style="font-size:4.93889px;-inkscape-font-specification:'Libertinus Serif, Normal';opacity:1"
         id="path4504" /><path
         d="m 54.237155,142.47495 c -0.182739,0.18768 -0.325966,0.2667 -0.612422,0.2667 -0.1778,0 -0.385233,-0.10372 -0.538339,-0.3556 -0.09878,-0.16299 -0.158045,-0.39017 -0.158045,-0.67663 l 1.313745,0.01 c 0.05927,0 0.09384,-0.0296 0.09384,-0.084 0,-0.41487 -0.148167,-0.85937 -0.834672,-0.85937 -0.429684,0 -0.987778,0.40993 -0.987778,1.16064 0,0.27658 0.06914,0.54328 0.232128,0.73096 0.167922,0.19755 0.40005,0.31608 0.75565,0.31608 0.375355,0 0.642055,-0.17286 0.839611,-0.42968 -0.01482,-0.0494 -0.04445,-0.0741 -0.103717,-0.079 z m -1.293989,-0.93345 c 0.09384,-0.5581 0.439561,-0.60255 0.558095,-0.60255 0.187678,0 0.409928,0.10372 0.409928,0.51859 0,0.0445 -0.01976,0.0691 -0.07408,0.0691 z"
         style="font-size:4.93889px;-inkscape-font-specification:'Libertinus Serif, Normal';opacity:1"
         id="path4506" /><path
         d="m 56.543601,141.11675 c -0.0049,-0.14816 -0.01482,-0.27657 -0.03951,-0.32596 -0.0099,-0.0247 -0.01976,-0.0395 -0.05927,-0.0395 -0.138289,0.0543 -0.2667,0.0988 -0.607483,0.14322 -0.0099,0.0296 0,0.10866 0.0099,0.13829 0.2667,0.0247 0.321027,0.0494 0.321027,0.33585 v 2.1089 c 0,0.40993 -0.05433,0.43463 -0.3556,0.44944 -0.02963,0.0296 -0.02963,0.13335 0,0.16299 0.172862,-0.005 0.3556,-0.01 0.553156,-0.01 0.197556,0 0.434622,0.005 0.597606,0.01 0.02963,-0.0296 0.02963,-0.13335 0,-0.16299 -0.350661,-0.0197 -0.404989,-0.0395 -0.404989,-0.44944 v -0.5334 c 0,-0.0642 0.01975,-0.0593 0.06914,-0.0395 0.123472,0.0494 0.271639,0.079 0.429684,0.079 0.276577,0 0.523522,-0.084 0.726016,-0.27657 0.232128,-0.22719 0.365478,-0.5334 0.365478,-0.93345 0,-0.52353 -0.370416,-1.00754 -0.874183,-1.00754 -0.227189,0 -0.479073,0.14817 -0.676628,0.37042 -0.02963,0.0296 -0.04939,0.0296 -0.05433,-0.0198 z m 0.09384,0.18274 c 0.128411,-0.15804 0.3556,-0.30621 0.498828,-0.30621 0.316089,0 0.587728,0.3556 0.587728,0.9137 0,0.40498 -0.143228,0.90875 -0.696384,0.90875 -0.0889,0 -0.261761,-0.0247 -0.350661,-0.10371 -0.09878,-0.0889 -0.118533,-0.11854 -0.118533,-0.29634 v -0.89888 c 0,-0.10371 0.01975,-0.14816 0.07902,-0.21731 z"
         style="font-size:4.93889px;-inkscape-font-specification:'Libertinus Serif, Normal';opacity:1"
         id="path4508" /><path
         d="m 59.783507,142.6972 c 0.02963,0.1531 0.08396,0.28645 0.330906,0.28645 0.187678,0 0.365478,-0.084 0.469194,-0.18273 -0.0099,-0.0593 -0.02963,-0.10372 -0.08396,-0.13335 -0.03457,0.0296 -0.118533,0.079 -0.182739,0.079 -0.143227,0 -0.148166,-0.19262 -0.148166,-0.41981 v -0.72602 c 0,-0.70132 -0.385234,-0.83467 -0.745773,-0.83467 -0.404989,0 -0.814917,0.2667 -0.814917,0.54822 0,0.11853 0.05927,0.1778 0.172862,0.1778 0.143227,0 0.232127,-0.10372 0.232127,-0.16792 0,-0.0346 -0.0049,-0.0691 -0.01482,-0.0889 -0.0049,-0.0148 -0.0099,-0.0444 -0.0099,-0.0988 0,-0.15311 0.207433,-0.20743 0.395111,-0.20743 0.167922,0 0.40005,0.084 0.40005,0.64205 0,0.0346 -0.01482,0.0543 -0.02963,0.0593 l -0.424745,0.10371 c -0.474133,0.11854 -0.814917,0.3803 -0.814917,0.71614 0,0.40499 0.276578,0.5334 0.622301,0.5334 0.172861,0 0.321027,-0.0395 0.538339,-0.20743 l 0.09878,-0.079 z m 0,-0.9137 v 0.65194 c 0,0.0642 -0.02963,0.0988 -0.06914,0.12841 -0.128411,0.10372 -0.296334,0.21731 -0.434623,0.21731 -0.246944,0 -0.3556,-0.19756 -0.3556,-0.35066 0,-0.22225 0.103717,-0.44944 0.469195,-0.54328 z"
         style="font-size:4.93889px;-inkscape-font-specification:'Libertinus Serif, Normal';opacity:1"
         id="path4510" /><path
         d="m 62.786346,141.02291 c 0.09384,0 0.182739,-0.0889 0.182739,-0.18767 0,-0.10372 -0.09384,-0.18274 -0.227189,-0.18274 -0.128411,0 -0.365478,0.084 -0.493889,0.25188 -0.05927,-0.0395 -0.22225,-0.13829 -0.513644,-0.13829 -0.439561,0 -0.84455,0.29634 -0.84455,0.75071 0,0.2667 0.118533,0.41981 0.256822,0.55316 -0.138289,0.11853 -0.217311,0.33091 -0.217311,0.49883 0,0.1778 0.09878,0.31609 0.227189,0.38029 -0.2667,0.15805 -0.404989,0.38524 -0.404989,0.59761 0,0.42968 0.404989,0.56303 0.785283,0.56303 0.66675,0 1.387828,-0.32103 1.387828,-0.85443 0,-0.15804 -0.07408,-0.28151 -0.217311,-0.40005 -0.192617,-0.15804 -0.538339,-0.16298 -0.721078,-0.16298 -0.0889,0 -0.212372,0.01 -0.330905,0.0247 -0.07408,0.005 -0.123473,0.01 -0.148167,0.01 -0.143228,0 -0.316089,-0.0691 -0.316089,-0.28151 0,-0.0988 0.02963,-0.2025 0.0889,-0.28646 0.118533,0.0691 0.256822,0.10372 0.449439,0.10372 0.434622,0 0.834672,-0.27164 0.834672,-0.75565 0,-0.23213 -0.06914,-0.36548 -0.212372,-0.51365 0.03457,-0.0494 0.13335,-0.11853 0.197556,-0.11853 0.03457,0 0.06914,0.0148 0.09878,0.0593 0.01976,0.0395 0.08396,0.0889 0.138289,0.0889 z m -1.540933,1.96074 c 0.05433,0.0148 0.13335,0.0247 0.197555,0.0247 0.153106,0 0.291395,-0.0148 0.360539,-0.0148 0.246945,0 0.454378,0.005 0.597606,0.084 0.192617,0.10866 0.251883,0.1778 0.251883,0.30621 0,0.3556 -0.523522,0.54328 -0.968022,0.54328 -0.1778,0 -0.592667,-0.14323 -0.592667,-0.47907 0,-0.16792 0.0099,-0.29139 0.153106,-0.46426 z m 0.923572,-1.42734 c 0,0.45932 -0.232128,0.55316 -0.414867,0.55316 -0.414866,0 -0.459316,-0.35066 -0.459316,-0.66675 0,-0.34572 0.123472,-0.52352 0.395111,-0.52352 0.31115,0 0.479072,0.22719 0.479072,0.63711 z"
         style="font-size:4.93889px;-inkscape-font-specification:'Libertinus Serif, Normal';opacity:1"
         id="path4512" /><path
         d="m 64.969327,142.47495 c -0.182739,0.18768 -0.325966,0.2667 -0.612422,0.2667 -0.1778,0 -0.385233,-0.10372 -0.538339,-0.3556 -0.09878,-0.16299 -0.158045,-0.39017 -0.158045,-0.67663 l 1.313745,0.01 c 0.05927,0 0.09384,-0.0296 0.09384,-0.084 0,-0.41487 -0.148167,-0.85937 -0.834672,-0.85937 -0.429684,0 -0.987778,0.40993 -0.987778,1.16064 0,0.27658 0.06914,0.54328 0.232128,0.73096 0.167922,0.19755 0.40005,0.31608 0.75565,0.31608 0.375355,0 0.642055,-0.17286 0.839611,-0.42968 -0.01482,-0.0494 -0.04445,-0.0741 -0.103717,-0.079 z m -1.293989,-0.93345 c 0.09384,-0.5581 0.439561,-0.60255 0.558095,-0.60255 0.187678,0 0.409928,0.10372 0.409928,0.51859 0,0.0445 -0.01976,0.0691 -0.07408,0.0691 z"
         style="font-size:4.93889px;-inkscape-font-specification:'Libertinus Serif, Normal';opacity:1"
         id="path4514" /></g><g
       aria-label="Back cover"
       id="text4277-1"
       style="font-size:10.5833px;line-height:1.25;font-family:'Libertinus Serif';-inkscape-font-specification:'Libertinus Serif';letter-spacing:0px;stroke-width:0.264583"><path
         d="m 91.302558,48.42233 c -0.1778,0 -0.444501,-0.0049 -0.637117,-0.0099 -0.02963,0.02963 -0.02963,0.13335 0,0.162984 0.345722,0.01482 0.429683,0.03951 0.429683,0.449439 v 1.980494 c 0,0.409928 -0.08396,0.434623 -0.429683,0.449439 -0.02963,0.02963 -0.02963,0.13335 0,0.162984 0.192616,-0.0049 0.459317,-0.0099 0.642055,-0.0099 0.177801,0 0.306212,0.0099 0.721078,0.0099 0.98284,0 1.244601,-0.493889 1.244601,-0.918634 0,-0.474133 -0.330906,-0.745772 -0.760589,-0.869244 v -0.0099 c 0.246944,-0.123472 0.469194,-0.380295 0.469194,-0.646995 0,-0.330905 -0.143228,-0.760589 -1.061861,-0.760589 -0.172861,0 -0.439561,0.0099 -0.617361,0.0099 z m 0.212372,1.545872 h 0.340783 c 0.676628,0 0.958145,0.380295 0.958145,0.824795 0,0.360539 -0.138289,0.661811 -0.889,0.661811 -0.345723,0 -0.409928,-0.128411 -0.409928,-0.429683 z m 0,-1.076678 c 0,-0.261761 0,-0.31115 0.429683,-0.31115 0.276578,0 0.637117,0.148167 0.637117,0.651934 0,0.419806 -0.291394,0.567972 -0.701322,0.567972 H 91.51493 Z"
         style="font-size:4.93889px;-inkscape-font-specification:'Libertinus Serif, Normal';opacity:1"
         id="path4517" /><path
         d="m 94.922761,51.370847 c 0.02963,0.153106 0.08396,0.286456 0.330905,0.286456 0.187678,0 0.365478,-0.08396 0.469195,-0.182739 -0.0099,-0.05927 -0.02963,-0.103717 -0.08396,-0.13335 -0.03457,0.02963 -0.118534,0.07902 -0.182739,0.07902 -0.143228,0 -0.148167,-0.192617 -0.148167,-0.419805 v -0.726017 c 0,-0.701323 -0.385233,-0.834673 -0.745772,-0.834673 -0.404989,0 -0.814917,0.2667 -0.814917,0.548217 0,0.118533 0.05927,0.1778 0.172861,0.1778 0.143228,0 0.232128,-0.103717 0.232128,-0.167922 0,-0.03457 -0.0049,-0.06914 -0.01482,-0.0889 -0.0049,-0.01482 -0.0099,-0.04445 -0.0099,-0.09878 0,-0.153106 0.207433,-0.207433 0.395111,-0.207433 0.167922,0 0.40005,0.08396 0.40005,0.642055 0,0.03457 -0.01482,0.05433 -0.02963,0.05927 l -0.424744,0.103717 c -0.474134,0.118533 -0.814917,0.380294 -0.814917,0.716139 0,0.404989 0.276578,0.5334 0.6223,0.5334 0.172861,0 0.321028,-0.03951 0.538339,-0.207434 l 0.09878,-0.07902 z m 0,-0.913694 v 0.651933 c 0,0.06421 -0.02963,0.09878 -0.06914,0.128411 -0.128411,0.103717 -0.296333,0.217311 -0.434622,0.217311 -0.246944,0 -0.3556,-0.197555 -0.3556,-0.350661 0,-0.22225 0.103717,-0.449439 0.469195,-0.543278 z"
         style="font-size:4.93889px;-inkscape-font-specification:'Libertinus Serif, Normal';opacity:1"
         id="path4519" /><path
         d="m 97.698411,51.158475 c -0.01976,-0.04445 -0.05927,-0.06421 -0.103717,-0.06914 -0.167922,0.217311 -0.380294,0.325966 -0.592667,0.325966 -0.360538,0 -0.661811,-0.365478 -0.661811,-0.943328 0,-0.543278 0.237067,-0.869244 0.563034,-0.869244 0.291394,0 0.330905,0.172861 0.350661,0.345722 0.01482,0.13335 0.08396,0.1778 0.187678,0.1778 0.103716,0 0.242005,-0.06421 0.242005,-0.217311 0,-0.271639 -0.281516,-0.469195 -0.75565,-0.469195 -0.48895,0 -1.012472,0.439561 -1.012472,1.140884 0,0.637117 0.3556,1.076678 0.9779,1.076678 0.296333,0 0.558094,-0.09384 0.805039,-0.498828 z"
         style="font-size:4.93889px;-inkscape-font-specification:'Libertinus Serif, Normal';opacity:1"
         id="path4521" /><path
         d="m 98.27132,51.005369 c 0,0.409928 -0.05433,0.429684 -0.330905,0.449439 -0.02963,0.02963 -0.02963,0.13335 0,0.162984 0.162983,-0.0049 0.330905,-0.0099 0.528461,-0.0099 0.172861,0 0.335844,0.0049 0.449439,0.0099 0.02963,-0.02963 0.02963,-0.13335 0,-0.162984 -0.202495,-0.01975 -0.256822,-0.03951 -0.256822,-0.449439 v -0.429683 c 0.09384,0.0049 0.162983,0.0099 0.212372,0.02469 0.05433,0.03951 0.09878,0.08396 0.158044,0.162984 l 0.360539,0.484011 c 0.143228,0.192617 0.202495,0.286456 0.207434,0.345722 0,0.01482 0.0049,0.0247 0.01976,0.0247 0.09878,-0.0049 0.207434,-0.0099 0.306211,-0.0099 0.153107,0 0.306217,0.0049 0.404997,0.0099 0.0296,-0.02963 0.0296,-0.13335 0,-0.162984 -0.16792,-0.01975 -0.2914,-0.03951 -0.424752,-0.207433 L 99.254164,50.42752 c -0.01976,-0.02469 -0.03457,-0.04445 -0.03457,-0.06914 0,-0.01976 0,-0.02963 0.01976,-0.04939 l 0.434622,-0.449439 c 0.148167,-0.158045 0.321028,-0.197556 0.518584,-0.217311 0.0296,-0.02963 0.0296,-0.13335 0,-0.162984 -0.1136,0.0049 -0.251884,0.0099 -0.429684,0.0099 -0.187678,0 -0.370417,-0.0049 -0.484011,-0.0099 -0.02963,0.02963 -0.02963,0.13335 0,0.162984 0.276578,0.01976 0.158044,0.192616 0.113594,0.251883 -0.113594,0.143228 -0.2667,0.31115 -0.395111,0.404989 -0.108655,0.07902 -0.242006,0.138289 -0.335844,0.153106 v -1.723673 c 0,-0.321028 0.01976,-0.518583 0.01976,-0.518583 0,-0.03457 -0.01976,-0.04939 -0.06421,-0.04939 -0.123473,0.04939 -0.493889,0.118533 -0.691445,0.13335 -0.0099,0.03951 0,0.118533 0.02963,0.148166 0.01482,0 0.02963,0 0.04445,0 0.217311,0.01482 0.271639,0.01482 0.271639,0.404989 z"
         style="font-size:4.93889px;-inkscape-font-specification:'Libertinus Serif, Normal';opacity:1"
         id="path4523" /><path
         d="m 103.57567,51.158475 c -0.0198,-0.04445 -0.0593,-0.06421 -0.10371,-0.06914 -0.16792,0.217311 -0.3803,0.325966 -0.59267,0.325966 -0.36054,0 -0.66181,-0.365478 -0.66181,-0.943328 0,-0.543278 0.23707,-0.869244 0.56303,-0.869244 0.2914,0 0.33091,0.172861 0.35066,0.345722 0.0148,0.13335 0.084,0.1778 0.18768,0.1778 0.10372,0 0.24201,-0.06421 0.24201,-0.217311 0,-0.271639 -0.28152,-0.469195 -0.75565,-0.469195 -0.48895,0 -1.01248,0.439561 -1.01248,1.140884 0,0.637117 0.3556,1.076678 0.9779,1.076678 0.29634,0 0.5581,-0.09384 0.80504,-0.498828 z"
         style="font-size:4.93889px;-inkscape-font-specification:'Libertinus Serif, Normal';opacity:1"
         id="path4525" /><path
         d="m 103.92633,50.595442 c 0,0.503766 0.33585,1.061861 1.03717,1.061861 0.31609,0 0.55809,-0.113595 0.72602,-0.276578 0.22225,-0.217311 0.32102,-0.528461 0.32102,-0.829733 0,-0.513645 -0.28151,-1.111251 -1.03716,-1.111251 -0.32597,0 -0.59267,0.13335 -0.77541,0.345723 -0.1778,0.212372 -0.27164,0.498827 -0.27164,0.809978 z m 0.97296,-0.98284 c 0.42475,0 0.68651,0.385234 0.68651,1.096434 0,0.6223 -0.32103,0.775406 -0.55316,0.775406 -0.51364,0 -0.68156,-0.6223 -0.68156,-1.002595 0,-0.429683 0.10371,-0.869245 0.54821,-0.869245 z"
         style="font-size:4.93889px;-inkscape-font-specification:'Libertinus Serif, Normal';opacity:1"
         id="path4527" /><path
         d="m 107.78359,49.642236 c 0.2667,0.01976 0.29634,0.07902 0.19262,0.330905 l -0.40005,0.968023 c -0.079,0.192617 -0.10372,0.192617 -0.18274,-0.01482 l -0.3556,-0.953206 c -0.0889,-0.237066 -0.10865,-0.296333 0.15311,-0.330905 0.0296,-0.02963 0.0296,-0.13335 0,-0.162984 -0.16299,0.0049 -0.33585,0.0099 -0.49883,0.0099 -0.16298,0 -0.31115,-0.0049 -0.45932,-0.0099 -0.0296,0.02963 -0.0296,0.13335 0,0.162984 0.26176,0.02963 0.29634,0.108655 0.39511,0.360539 l 0.63218,1.560689 c 0.0296,0.07408 0.0593,0.103717 0.12347,0.103717 0.0494,0 0.084,-0.02963 0.11854,-0.113595 l 0.65687,-1.545872 c 0.0938,-0.217312 0.14817,-0.340784 0.42474,-0.365478 0.0296,-0.02963 0.0296,-0.13335 0,-0.162984 -0.0988,0.0049 -0.21731,0.0099 -0.34572,0.0099 -0.16298,0 -0.3309,-0.0049 -0.45438,-0.0099 -0.0296,0.02963 -0.0296,0.13335 0,0.162984 z"
         style="font-size:4.93889px;-inkscape-font-specification:'Libertinus Serif, Normal';opacity:1"
         id="path4529" /><path
         d="m 110.49998,51.148597 c -0.18274,0.187678 -0.32597,0.2667 -0.61243,0.2667 -0.1778,0 -0.38523,-0.103716 -0.53833,-0.3556 -0.0988,-0.162983 -0.15805,-0.390172 -0.15805,-0.676628 l 1.31375,0.0099 c 0.0593,0 0.0938,-0.02963 0.0938,-0.08396 0,-0.414867 -0.14816,-0.859367 -0.83467,-0.859367 -0.42968,0 -0.98778,0.409928 -0.98778,1.160639 0,0.276578 0.0691,0.543278 0.23213,0.730956 0.16792,0.197556 0.40005,0.316089 0.75565,0.316089 0.37536,0 0.64206,-0.172861 0.83961,-0.429684 -0.0148,-0.04939 -0.0444,-0.07408 -0.10371,-0.07902 z m -1.29399,-0.93345 c 0.0938,-0.558095 0.43956,-0.602545 0.55809,-0.602545 0.18768,0 0.40993,0.103717 0.40993,0.518584 0,0.04445 -0.0198,0.06914 -0.0741,0.06914 z"
         style="font-size:4.93889px;-inkscape-font-specification:'Libertinus Serif, Normal';opacity:1"
         id="path4531" /><path
         d="m 111.67049,49.839791 c -0.01,-0.197555 -0.0148,-0.325966 -0.0395,-0.375355 -0.01,-0.0247 -0.0198,-0.03951 -0.0593,-0.03951 -0.13829,0.05433 -0.2667,0.09878 -0.60748,0.143227 -0.01,0.02963 0,0.108656 0.01,0.138289 0.2667,0.0247 0.32103,0.04939 0.32103,0.335845 v 0.963083 c 0,0.409928 -0.0593,0.429684 -0.36548,0.449439 -0.0296,0.02963 -0.0296,0.13335 0,0.162984 0.17287,-0.0049 0.36548,-0.0099 0.56304,-0.0099 0.19755,0 0.42474,0.0049 0.5976,0.0099 0.0296,-0.02963 0.0296,-0.13335 0,-0.162984 -0.34572,-0.02469 -0.40499,-0.03951 -0.40499,-0.449439 v -0.686505 c 0,-0.128411 0.0593,-0.242006 0.11854,-0.330906 0.0543,-0.07902 0.16792,-0.242006 0.22719,-0.242006 0.0444,0 0.0889,0.0099 0.12841,0.06421 0.0346,0.04939 0.0938,0.113594 0.1778,0.113594 0.11853,0 0.23213,-0.123472 0.23213,-0.246944 0,-0.09384 -0.0889,-0.237067 -0.29634,-0.237067 -0.23213,0 -0.43462,0.217311 -0.54821,0.409928 -0.0296,0.05433 -0.0543,0.01482 -0.0543,-0.0099 z"
         style="font-size:4.93889px;-inkscape-font-specification:'Libertinus Serif, Normal';opacity:1"
         id="path4533" /></g><text
       xml:space="preserve"
       style="font-size:10.5833px;line-height:1.25;font-family:'Libertinus Serif';-inkscape-font-specification:'Libertinus Serif';letter-spacing:0px;stroke-width:0.264583"
       x="97.000488"
       y="49.990963"
       id="text4331"><tspan
         sodipodi:role="line"
         id="tspan4329"
         style="stroke-width:0.264583"
         x="97.000488"
         y="49.990963" /></text></g></svg>
