<?xml version="1.0" encoding="UTF-8" standalone="no"?>
<!-- Created with Inkscape (http://www.inkscape.org/) -->

<svg
   width="141.54845mm"
   height="99.764946mm"
   viewBox="0 0 141.54845 99.764946"
   version="1.1"
   id="svg5"
   xml:space="preserve"
   inkscape:export-filename="book-anatomy.png"
   inkscape:export-xdpi="96"
   inkscape:export-ydpi="96"
   inkscape:version="1.3.1 (9b9bdc1480, 2023-11-25, custom)"
   sodipodi:docname="book-divisions.svg"
   xmlns:inkscape="http://www.inkscape.org/namespaces/inkscape"
   xmlns:sodipodi="http://sodipodi.sourceforge.net/DTD/sodipodi-0.dtd"
   xmlns="http://www.w3.org/2000/svg"
   xmlns:svg="http://www.w3.org/2000/svg"><sodipodi:namedview
     id="namedview7"
     pagecolor="#ffffff"
     bordercolor="#666666"
     borderopacity="1.0"
     inkscape:showpageshadow="2"
     inkscape:pageopacity="0.0"
     inkscape:pagecheckerboard="0"
     inkscape:deskcolor="#d1d1d1"
     inkscape:document-units="mm"
     showgrid="false"
     inkscape:zoom="1"
     inkscape:cx="366.5"
     inkscape:cy="247"
     inkscape:window-width="1854"
     inkscape:window-height="1011"
     inkscape:window-x="0"
     inkscape:window-y="0"
     inkscape:window-maximized="1"
     inkscape:current-layer="layer1" /><defs
     id="defs2"><linearGradient
       id="swatch10"
       inkscape:swatch="solid"><stop
         style="stop-color:#000000;stop-opacity:1;"
         offset="0"
         id="stop11" /></linearGradient><marker
       style="overflow:visible"
       id="marker4169"
       refX="0"
       refY="0"
       orient="auto-start-reverse"
       inkscape:stockid="Arrow1L"
       markerWidth="8.75"
       markerHeight="5"
       viewBox="0 0 8.75 5"
       inkscape:isstock="true"
       inkscape:collect="always"
       preserveAspectRatio="xMidYMid"><path
         style="fill:context-stroke;fill-rule:evenodd;stroke:none"
         d="M 0,0 5,-5 -12.5,0 5,5 Z"
         id="path4167"
         transform="scale(-0.5)" /></marker><marker
       style="overflow:visible"
       id="marker3947"
       refX="0"
       refY="0"
       orient="auto-start-reverse"
       inkscape:stockid="Arrow1L"
       markerWidth="8.75"
       markerHeight="5"
       viewBox="0 0 8.75 5"
       inkscape:isstock="true"
       inkscape:collect="always"
       preserveAspectRatio="xMidYMid"><path
         style="fill:context-stroke;fill-rule:evenodd;stroke:none"
         d="M 0,0 5,-5 -12.5,0 5,5 Z"
         id="path3945"
         transform="scale(-0.5)" /></marker><marker
       style="overflow:visible"
       id="Arrow1L"
       refX="0"
       refY="0"
       orient="auto-start-reverse"
       inkscape:stockid="Arrow1L"
       markerWidth="8.75"
       markerHeight="5"
       viewBox="0 0 8.75 5"
       inkscape:isstock="true"
       inkscape:collect="always"
       preserveAspectRatio="xMidYMid"><path
         style="fill:context-stroke;fill-rule:evenodd;stroke:none"
         d="M 0,0 5,-5 -12.5,0 5,5 Z"
         id="arrow1L"
         transform="scale(-0.5)" /></marker></defs><g
     inkscape:label="Layer 1"
     inkscape:groupmode="layer"
     id="layer1"
     transform="translate(-36.27196,-48.160572)"><path
       style="fill:none;stroke:#808080;stroke-width:0.264583px;stroke-linecap:butt;stroke-linejoin:miter;stroke-opacity:1"
       d="M 62.165002,77.209763 93.434626,64.72153"
       id="path925" /><path
       style="fill:none;stroke:#808080;stroke-width:0.264583px;stroke-linecap:butt;stroke-linejoin:miter;stroke-opacity:1"
       d="M 95.995468,65.053371 63.129305,77.873489"
       id="path927" /><path
       style="fill:none;stroke:#808080;stroke-width:0.264583px;stroke-linecap:butt;stroke-linejoin:miter;stroke-opacity:1"
       d="m 62.218508,77.161077 1.078511,0.705503"
       id="path931" /><path
       style="fill:none;stroke:#808080;stroke-width:0.264583px;stroke-linecap:butt;stroke-linejoin:miter;stroke-opacity:1"
       d="M 63.183565,77.742763 V 132.8146"
       id="path933" /><path
       style="fill:none;stroke:#808080;stroke-width:0.264583px;stroke-linecap:butt;stroke-linejoin:miter;stroke-opacity:1"
       d="m 63.217414,132.70712 -1.145292,-0.30688"
       id="path935" /><path
       style="fill:none;stroke:#808080;stroke-width:0.264583px;stroke-linecap:butt;stroke-linejoin:miter;stroke-opacity:1"
       d="m 62.187227,77.156621 v 55.249699 c -2.33e-4,0.0274 -1.76e-4,0.0548 -1.76e-4,0.0823"
       id="path937" /><path
       style="fill:none;stroke:#808080;stroke-width:0.264583px;stroke-linecap:butt;stroke-linejoin:miter;stroke-opacity:1"
       d="m 63.204812,132.75342 10.501643,-4.29824"
       id="path939" /><path
       style="fill:none;stroke:#808080;stroke-width:0.264583px;stroke-linecap:butt;stroke-linejoin:miter;stroke-opacity:1"
       d="M 105.06448,60.345319 135.08445,48.67308"
       id="path941" /><path
       style="fill:none;stroke:#808080;stroke-width:0.264583px;stroke-linecap:butt;stroke-linejoin:miter;stroke-opacity:1"
       d="M 105.48227,61.270139 136.02284,49.176352"
       id="path943" /><path
       style="fill:none;stroke:#808080;stroke-width:0.277872px;stroke-linecap:butt;stroke-linejoin:miter;stroke-opacity:1"
       d="m 135.02903,48.675473 0.90814,0.610119 v 16.181531"
       id="path945" /><path
       style="fill:none;stroke:#808080;stroke-width:0.264583px;stroke-linecap:butt;stroke-linejoin:miter;stroke-opacity:1"
       d="M 95.871928,64.988897 93.43559,64.697636"
       id="path947" /><path
       style="fill:none;stroke:#808080;stroke-width:0.264583px;stroke-linecap:butt;stroke-linejoin:miter;stroke-opacity:1"
       d="m 105.57604,61.211681 -0.63332,-1.085307"
       id="path949" /><path
       style="fill:none;stroke:#808080;stroke-width:0.264583px;stroke-linecap:butt;stroke-linejoin:miter;stroke-opacity:1"
       d="m 73.758423,90.748554 27.977107,-14.36544 -15.271684,17.615601 0.361598,53.564045 14.838676,-17.82555 0.0379,-53.097012"
       id="path951" /><path
       style="fill:none;stroke:#808080;stroke-width:0.264583px;stroke-linecap:butt;stroke-linejoin:miter;stroke-opacity:1"
       d="m 86.674506,137.21497 -12.78773,6.88267 V 90.700143"
       id="path953"
       sodipodi:nodetypes="ccc" /><path
       style="fill:none;stroke:#000000;stroke-width:0.260684px;stroke-linecap:butt;stroke-linejoin:miter;stroke-opacity:1"
       d="M 140.96154,91.164135 C 116.87804,80.518475 121.24339,80.210123 112.06077,75.136968 l 12.68458,-5.274782 c 10.36399,3.999977 20.01614,5.959694 31.11991,12.080042 l -2.90851,2.596403"
       id="path1681"
       sodipodi:nodetypes="ccccc" /><path
       style="fill:none;stroke:#000000;stroke-width:0.264631px;stroke-linecap:butt;stroke-linejoin:miter;stroke-opacity:1"
       d="m 140.70751,90.971119 -0.36432,49.622681 c -13.00521,-3.02511 -18.55283,-6.89367 -28.41332,-13.29648 V 75.011422"
       id="path1685"
       sodipodi:nodetypes="cccc" /><path
       style="fill:none;stroke:#000000;stroke-width:0.264583px;stroke-linecap:butt;stroke-linejoin:miter;stroke-opacity:1"
       d="m 156.01925,81.985343 -0.65542,49.899627"
       id="path1687"
       sodipodi:nodetypes="cc" /><path
       style="fill:none;stroke:#000000;stroke-width:0.264583px;stroke-linecap:butt;stroke-linejoin:miter;stroke-opacity:1"
       d="m 155.45866,131.77142 -2.72512,2.78156 0.31631,-50.028736"
       id="path1689"
       sodipodi:nodetypes="ccc" /><path
       style="fill:none;stroke:#808080;stroke-width:0.264583px;stroke-linecap:butt;stroke-linejoin:miter;stroke-opacity:1"
       d="m 155.66449,117.34072 3.75154,-1.12053 V 62.103433 l -31.04239,4.570061 v 4.741514"
       id="path3143"
       sodipodi:nodetypes="ccccc" /><path
       style="fill:none;stroke:#808080;stroke-width:0.264583px;stroke-linecap:butt;stroke-linejoin:miter;stroke-opacity:1"
       d="M 95.797893,64.974906 V 79.299135"
       id="path3145" /><path
       style="fill:none;stroke:#808080;stroke-width:0.274166px;stroke-linecap:butt;stroke-linejoin:miter;stroke-opacity:1"
       d="m 105.10623,60.291044 0.14762,56.250936 6.79353,-2.72488"
       id="path3147"
       sodipodi:nodetypes="ccc" /><path
       style="fill:none;stroke:#808080;stroke-width:0.264583px;stroke-linecap:butt;stroke-linejoin:miter;stroke-opacity:1"
       d="M 105.59175,61.188597 V 116.56273"
       id="path3149" /><path
       style="fill:none;fill-rule:evenodd;stroke:#777777;stroke-width:0.264583px;stroke-linecap:butt;stroke-linejoin:miter;stroke-opacity:1"
       d="m 77.655168,61.44126 v 0"
       id="path3937" /><path
       style="display:inline;fill:none;fill-rule:evenodd;stroke:#000000;stroke-width:0.264583px;stroke-linecap:butt;stroke-linejoin:miter;stroke-opacity:1;marker-end:url(#Arrow1L)"
       d="m 115.59683,138.72098 3.46361,-5.04598"
       id="path3979"
       sodipodi:nodetypes="cc" /><path
       style="display:inline;fill:none;fill-rule:evenodd;stroke:#000000;stroke-width:0.264583px;stroke-linecap:butt;stroke-linejoin:miter;stroke-opacity:1;marker-end:url(#marker4169)"
       d="m 157.00275,58.513281 -5.02103,19.92713"
       id="path4165"
       sodipodi:nodetypes="cc" /><path
       style="display:inline;fill:none;fill-rule:evenodd;stroke:#000000;stroke-width:0.264583px;stroke-linecap:butt;stroke-linejoin:miter;stroke-opacity:1;marker-end:url(#marker3947)"
       d="M 97.617309,58.70777 123.72058,75.014211"
       id="path4213"
       sodipodi:nodetypes="cc" /><text
       xml:space="preserve"
       style="font-size:10.5833px;line-height:1.25;font-family:'Libertinus Serif';-inkscape-font-specification:'Libertinus Serif';letter-spacing:0px;stroke-width:0.264583"
       x="97.000488"
       y="49.990963"
       id="text4331"><tspan
         sodipodi:role="line"
         id="tspan4329"
         style="stroke-width:0.264583"
         x="97.000488"
         y="49.990963" /></text><path
       style="fill:none;stroke:#000000;stroke-width:0.264583;stroke-opacity:1"
       d="m 140.82346,91.188694 3.66592,-1.734908 -0.28344,49.490394 -3.78466,1.66373"
       id="path13"
       sodipodi:nodetypes="cccc" /><path
       style="fill:none;stroke:#000000;stroke-width:0.264583;stroke-opacity:1"
       d="M 144.5129,89.411283 129.78572,81.878197 116.5947,74.31143 c 9.95314,4.796108 22.52005,10.347494 29.45506,14.271481 l -0.1524,49.743339 5.04693,-2.75964 0.84465,-50.456355 -12.15098,-5.481686 -17.22935,-7.784214 23.4657,9.242114 7.14995,3.407156"
       id="path14"
       sodipodi:nodetypes="ccccccccccc" /><path
       style="fill:none;stroke:#000000;stroke-width:0.264583;stroke-opacity:1"
       d="m 146.18023,88.617791 5.58662,-3.505082"
       id="path15"
       sodipodi:nodetypes="cc" /><path
       style="fill:none;stroke:#000000;stroke-width:0.264583;stroke-opacity:1"
       d="m 145.83853,138.42018 -1.52303,-1.13585"
       id="path16"
       sodipodi:nodetypes="cc" /><path
       style="fill:none;stroke:#000000;stroke-width:0.264583;stroke-opacity:1"
       d="m 152.54293,134.57136 -1.5835,-1.34829"
       id="path19"
       sodipodi:nodetypes="cc" /><path
       d="m 82.054757,56.678942 c 0.02469,0.400051 0.0049,0.40499 -0.316089,0.419806 -0.02963,0.02963 -0.02963,0.133351 0,0.162984 0.182739,-0.0049 0.380295,-0.0099 0.528462,-0.0099 0.148167,0 0.375356,0.0049 0.53834,0.0099 0.02963,-0.02963 0.02963,-0.13335 0,-0.162984 -0.335845,-0.01482 -0.350662,-0.03457 -0.380295,-0.444501 L 82.277008,54.57497 c -0.01976,-0.2667 0.0049,-0.335845 0.340784,-0.3556 0.02963,-0.02963 0.02963,-0.133351 0,-0.162984 l -0.646996,0.0099 -1.047047,2.504022 c -0.01976,0.04939 -0.03457,0.06915 -0.04445,0.06915 -0.0099,0 -0.02469,-0.0247 -0.03951,-0.06421 l -1.012475,-2.508961 -0.71614,-0.0099 c -0.02963,0.02963 -0.02963,0.13335 0,0.162984 0.340784,0.01976 0.370417,0.02963 0.335845,0.40005 l -0.197556,2.034827 c -0.02963,0.296334 -0.0889,0.419807 -0.370417,0.444501 -0.02963,0.02963 -0.02963,0.133351 0,0.162984 0.148167,-0.0049 0.306211,-0.0099 0.424745,-0.0099 0.118534,0 0.31609,0.0049 0.464257,0.0099 0.02963,-0.02963 0.02963,-0.13335 0,-0.162984 -0.325968,-0.02469 -0.350662,-0.1778 -0.325968,-0.454379 l 0.187678,-1.980498 h 0.0099 l 1.022353,2.563289 c 0.01482,0.03457 0.04445,0.07408 0.07408,0.07408 0.02963,0 0.04939,-0.03457 0.06915,-0.07408 l 1.111252,-2.612678 h 0.0099 z m 2.316339,0.335845 c 0.02963,0.153106 0.08396,0.286456 0.330906,0.286456 0.187678,0 0.365478,-0.08396 0.469195,-0.182739 -0.0099,-0.05927 -0.02963,-0.103717 -0.08396,-0.13335 -0.03457,0.02963 -0.118534,0.07902 -0.182739,0.07902 -0.143228,0 -0.148167,-0.192617 -0.148167,-0.419807 v -0.726018 c 0,-0.701324 -0.385234,-0.834674 -0.745774,-0.834674 -0.40499,0 -0.814919,0.266701 -0.814919,0.548218 0,0.118534 0.05927,0.1778 0.172862,0.1778 0.143228,0 0.232128,-0.103717 0.232128,-0.167922 0,-0.03457 -0.0049,-0.06914 -0.01482,-0.0889 -0.0049,-0.01482 -0.0099,-0.04445 -0.0099,-0.09878 0,-0.153106 0.207433,-0.207434 0.395112,-0.207434 0.167922,0 0.400051,0.08396 0.400051,0.642057 0,0.03457 -0.01482,0.05433 -0.02963,0.05927 L 83.916696,56.0517 c -0.474135,0.118534 -0.814919,0.380296 -0.814919,0.716141 0,0.40499 0.276579,0.533401 0.622302,0.533401 0.172861,0 0.321028,-0.03951 0.53834,-0.207434 l 0.09878,-0.07902 z m 0,-0.913697 v 0.651935 c 0,0.06421 -0.02963,0.09878 -0.06915,0.128412 -0.128411,0.103717 -0.296334,0.217311 -0.434623,0.217311 -0.246945,0 -0.355601,-0.197556 -0.355601,-0.350662 0,-0.22225 0.103717,-0.44944 0.469195,-0.543279 z m 1.703914,0.548218 v -0.982841 c 0,-0.246945 0.01976,-0.563034 0.01976,-0.563034 0,-0.01976 -0.02469,-0.03457 -0.06421,-0.03457 -0.138289,0.05433 -0.335845,0.09878 -0.676629,0.143228 -0.0099,0.02963 0,0.108656 0.0099,0.13829 0.271639,0.02469 0.321028,0.05433 0.321028,0.335845 v 0.963085 c 0,0.409929 -0.05433,0.424746 -0.355601,0.44944 -0.02963,0.02963 -0.02963,0.133351 0,0.162984 0.162984,-0.0049 0.355601,-0.0099 0.553157,-0.0099 0.197556,0 0.385234,0.0049 0.548218,0.0099 0.02963,-0.02963 0.02963,-0.13335 0,-0.162984 -0.301273,-0.01976 -0.355601,-0.03951 -0.355601,-0.44944 z m -0.44944,-2.355855 c 0,0.128411 0.118534,0.256823 0.237067,0.256823 0.13829,0 0.256823,-0.13335 0.256823,-0.237067 0,-0.118534 -0.103717,-0.256823 -0.237067,-0.256823 -0.118534,0 -0.256823,0.118533 -0.256823,0.237067 z m 1.802698,1.190275 c -0.02963,0.03457 -0.05927,0.04445 -0.05927,0 -0.0049,-0.13335 -0.01482,-0.325967 -0.03951,-0.375356 -0.0099,-0.02469 -0.01976,-0.03951 -0.05927,-0.03951 -0.138289,0.05433 -0.2667,0.09878 -0.607484,0.143228 -0.0099,0.02963 0,0.108656 0.0099,0.13829 0.2667,0.02469 0.321028,0.04939 0.321028,0.335845 v 0.963085 c 0,0.40499 -0.04939,0.424746 -0.345723,0.44944 -0.02963,0.02963 -0.02963,0.133351 0,0.162984 0.148167,-0.0049 0.345723,-0.0099 0.543279,-0.0099 0.197556,0 0.345723,0.0049 0.49389,0.0099 0.02963,-0.02963 0.02963,-0.13335 0,-0.162984 -0.251884,-0.02469 -0.301273,-0.04445 -0.301273,-0.44944 v -0.809979 c 0,-0.103717 0.04445,-0.162984 0.08396,-0.207434 0.187679,-0.182739 0.409929,-0.291395 0.602546,-0.291395 0.09878,0 0.202495,0.06421 0.261762,0.1778 0.04939,0.09878 0.05927,0.232129 0.05927,0.380296 v 0.750712 c 0,0.40499 -0.04939,0.424746 -0.306212,0.44944 -0.02469,0.02963 -0.02469,0.133351 0,0.162984 0.148167,-0.0049 0.306212,-0.0099 0.503768,-0.0099 0.197556,0 0.375356,0.0049 0.523523,0.0099 0.02469,-0.02963 0.02469,-0.13335 0,-0.162984 -0.276578,-0.02469 -0.330906,-0.04445 -0.330906,-0.44944 v -0.735896 c 0,-0.271639 -0.01976,-0.508706 -0.13335,-0.661812 -0.08396,-0.108656 -0.237068,-0.167923 -0.409929,-0.167923 -0.242006,0 -0.518585,0.06421 -0.80998,0.400051 z m 3.842454,0 c -0.0049,-0.148167 -0.01482,-0.325967 -0.03951,-0.375356 -0.0099,-0.02469 -0.01976,-0.03951 -0.05927,-0.03951 -0.138289,0.05433 -0.2667,0.09878 -0.607484,0.143228 -0.0099,0.02963 0,0.108656 0.0099,0.13829 0.266701,0.02469 0.321029,0.04939 0.321029,0.335845 v 0.963085 c 0,0.40499 -0.06421,0.429685 -0.335845,0.44944 -0.02963,0.02963 -0.02963,0.133351 0,0.162984 0.148167,-0.0049 0.335845,-0.0099 0.533401,-0.0099 0.197556,0 0.350662,0.0049 0.498829,0.0099 0.02963,-0.02963 0.02963,-0.13335 0,-0.162984 C 91.339888,57.07406 91.28556,57.0543 91.28556,56.64931 v -0.809979 c 0,-0.103717 0.04445,-0.162984 0.08396,-0.207434 0.197556,-0.192617 0.380296,-0.291395 0.533402,-0.291395 0.187678,0 0.325967,0.118533 0.325967,0.44944 v 0.859368 c 0,0.40499 -0.03951,0.429685 -0.306212,0.44944 -0.02469,0.02963 -0.02469,0.133351 0,0.162984 0.123473,-0.0049 0.306212,-0.0099 0.503768,-0.0099 0.197556,0 0.36054,0.0049 0.484012,0.0099 0.02469,-0.02963 0.02469,-0.13335 0,-0.162984 -0.246945,-0.01976 -0.291395,-0.04445 -0.291395,-0.44944 v -0.785287 c 0,-0.06914 0,-0.138289 -0.0049,-0.197556 0.237067,-0.261761 0.459318,-0.325967 0.651935,-0.325967 0.187678,0 0.296334,0.108656 0.296334,0.439562 v 0.869246 c 0,0.40499 -0.04939,0.429685 -0.306212,0.44944 -0.02469,0.02963 -0.02469,0.133351 0,0.162984 0.123473,-0.0049 0.306212,-0.0099 0.503768,-0.0099 0.197556,0 0.370417,0.0049 0.508707,0.0099 0.02469,-0.02963 0.02469,-0.13335 0,-0.162984 -0.27164,-0.01976 -0.31609,-0.04445 -0.31609,-0.44944 v -0.780346 c 0,-0.439562 -0.07408,-0.785285 -0.508707,-0.785285 -0.251884,0 -0.558095,0.09384 -0.814918,0.365479 -0.01482,0.01482 -0.04445,0.03951 -0.05433,-0.0049 -0.04445,-0.202495 -0.237067,-0.36054 -0.49389,-0.36054 -0.286456,0 -0.543279,0.167923 -0.750713,0.400051 -0.02469,0.02469 -0.05433,0.05927 -0.05927,0 z m 4.509211,1.531059 c 0.02963,0.153106 0.08396,0.286456 0.330906,0.286456 0.187678,0 0.365479,-0.08396 0.469196,-0.182739 -0.0099,-0.05927 -0.02963,-0.103717 -0.08396,-0.13335 -0.03457,0.02963 -0.118533,0.07902 -0.182739,0.07902 -0.143228,0 -0.148167,-0.192617 -0.148167,-0.419807 v -0.726018 c 0,-0.701324 -0.385234,-0.834674 -0.745774,-0.834674 -0.40499,0 -0.814918,0.266701 -0.814918,0.548218 0,0.118534 0.05927,0.1778 0.172861,0.1778 0.143228,0 0.232128,-0.103717 0.232128,-0.167922 0,-0.03457 -0.0049,-0.06914 -0.01482,-0.0889 -0.0049,-0.01482 -0.0099,-0.04445 -0.0099,-0.09878 0,-0.153106 0.207434,-0.207434 0.395112,-0.207434 0.167923,0 0.400051,0.08396 0.400051,0.642057 0,0.03457 -0.01482,0.05433 -0.02963,0.05927 L 95.325534,56.0517 c -0.474134,0.118534 -0.814918,0.380296 -0.814918,0.716141 0,0.40499 0.276578,0.533401 0.622301,0.533401 0.172861,0 0.321028,-0.03951 0.53834,-0.207434 l 0.09878,-0.07902 z m 0,-0.913697 v 0.651935 c 0,0.06421 -0.02963,0.09878 -0.06915,0.128412 -0.128411,0.103717 -0.296334,0.217311 -0.434623,0.217311 -0.246945,0 -0.355601,-0.197556 -0.355601,-0.350662 0,-0.22225 0.103717,-0.44944 0.469196,-0.543279 z m 1.022347,-0.968024 c -0.06914,0 -0.0889,0.05927 -0.0889,0.09878 v 0.06421 c 0,0.02469 0.0049,0.02963 0.02469,0.02963 h 0.291395 v 1.486609 c 0,0.350662 0.153106,0.488951 0.380295,0.488951 0.22719,0 0.474132,-0.108656 0.666752,-0.325967 -0.01,-0.04939 -0.0395,-0.07902 -0.0889,-0.08396 -0.128412,0.09878 -0.276582,0.13829 -0.404992,0.13829 -0.13335,0 -0.16298,-0.148167 -0.16298,-0.454379 v -1.249547 h 0.513642 c 0.0494,0 0.11854,-0.01975 0.11854,-0.06421 v -0.09878 c 0,-0.01975 -0.0148,-0.02963 -0.0395,-0.02963 H 97.41965 v -0.192617 c 0,-0.321029 0.0198,-0.518585 0.0198,-0.518585 0,-0.02963 -0.0148,-0.04445 -0.0395,-0.04445 -0.0198,0 -0.0642,0.01976 -0.108654,0.04445 -0.05433,0.02963 -0.103717,0.05433 -0.167922,0.06914 -0.05927,0.01976 -0.108656,0.03457 -0.108656,0.06914 0,0.05927 0.01482,0.02469 0.01482,0.572912 z m 1.560692,0 c -0.0691,0 -0.0889,0.05927 -0.0889,0.09878 v 0.06421 c 0,0.02469 0.005,0.02963 0.0247,0.02963 h 0.291397 v 1.486609 c 0,0.350662 0.1531,0.488951 0.380287,0.488951 0.22719,0 0.47414,-0.108656 0.666747,-0.325967 -0.01,-0.04939 -0.0395,-0.07902 -0.0889,-0.08396 -0.128407,0.09878 -0.276577,0.13829 -0.404987,0.13829 -0.13335,0 -0.16298,-0.148167 -0.16298,-0.454379 v -1.249547 h 0.513647 c 0.0494,0 0.11853,-0.01975 0.11853,-0.06421 v -0.09878 c 0,-0.01975 -0.0148,-0.02963 -0.0395,-0.02963 h -0.592667 v -0.192617 c 0,-0.321029 0.0198,-0.518585 0.0198,-0.518585 0,-0.02963 -0.0148,-0.04445 -0.0395,-0.04445 -0.0198,0 -0.0642,0.01976 -0.108647,0.04445 -0.0543,0.02963 -0.10372,0.05433 -0.16792,0.06914 -0.0593,0.01976 -0.10866,0.03457 -0.10866,0.06914 0,0.05927 0.0148,0.02469 0.0148,0.572912 z m 3.254718,1.65947 c -0.18274,0.187679 -0.32597,0.266701 -0.61242,0.266701 -0.1778,0 -0.38524,-0.103717 -0.53834,-0.355601 -0.0988,-0.162983 -0.15805,-0.390173 -0.15805,-0.676629 l 1.31375,0.0099 c 0.0593,0 0.0938,-0.02963 0.0938,-0.08396 0,-0.414867 -0.14817,-0.859368 -0.83467,-0.859368 -0.42969,0 -0.987777,0.409929 -0.987777,1.160641 0,0.276579 0.0691,0.543279 0.232117,0.730958 0.16793,0.197556 0.40005,0.316089 0.75566,0.316089 0.37535,0 0.64205,-0.172861 0.83961,-0.429684 -0.0148,-0.04939 -0.0444,-0.07408 -0.10372,-0.07902 z m -1.29399,-0.933452 c 0.0938,-0.558095 0.43956,-0.602545 0.5581,-0.602545 0.18767,0 0.40992,0.103716 0.40992,0.518584 0,0.04445 -0.0197,0.06914 -0.0741,0.06914 z m 2.4645,-0.375356 c -0.01,-0.197556 -0.0148,-0.325967 -0.0395,-0.375356 -0.01,-0.02469 -0.0198,-0.03951 -0.0593,-0.03951 -0.13829,0.05433 -0.2667,0.09878 -0.60749,0.143228 -0.01,0.02963 0,0.108656 0.01,0.13829 0.2667,0.02469 0.32103,0.04939 0.32103,0.335845 v 0.963085 c 0,0.409929 -0.0593,0.429685 -0.36548,0.44944 -0.0296,0.02963 -0.0296,0.133351 0,0.162984 0.17286,-0.0049 0.36548,-0.0099 0.56303,-0.0099 0.19756,0 0.42475,0.0049 0.59761,0.0099 0.0296,-0.02963 0.0296,-0.13335 0,-0.162984 -0.34572,-0.02469 -0.40499,-0.03951 -0.40499,-0.44944 v -0.686507 c 0,-0.128411 0.0593,-0.242006 0.11853,-0.330906 0.0543,-0.07902 0.16793,-0.242006 0.22719,-0.242006 0.0444,0 0.0889,0.0099 0.12842,0.06421 0.0346,0.04939 0.0938,0.113594 0.1778,0.113594 0.11853,0 0.23212,-0.123472 0.23212,-0.246945 0,-0.09384 -0.0889,-0.237067 -0.29633,-0.237067 -0.23213,0 -0.43462,0.217312 -0.54822,0.409929 -0.0296,0.05433 -0.0543,0.01482 -0.0543,-0.0099 z"
       id="text13"
       style="-inkscape-font-specification:'Libertinus Serif';stroke-width:0.264583"
       aria-label="Main matter" /><path
       d="m 102.13378,140.98192 c 0.4198,0 0.43462,0.1136 0.44944,0.33585 0.0296,0.0296 0.13335,0.0296 0.16298,0 -0.005,-0.12347 -0.01,-0.2667 -0.01,-0.43462 0,-0.16793 0.005,-0.29634 0.01,-0.42475 -0.0296,-0.0296 -0.13335,-0.0296 -0.16298,0 -0.0148,0.27164 -0.0296,0.33585 -0.44944,0.33585 h -0.45932 v -0.88901 c 0,-0.2667 0.0593,-0.31609 0.27658,-0.31609 h 0.22225 c 0.52352,0 0.64699,0.19756 0.75565,0.53835 0.0593,0 0.1136,-0.01 0.15311,-0.0247 -0.0247,-0.20249 -0.0988,-0.67663 -0.10866,-0.71614 0,-0.01 -0.005,-0.0148 -0.0198,-0.0148 -0.084,0.0148 -0.10865,0.0198 -0.23212,0.0198 h -1.25942 c -0.15805,0 -0.43957,-0.005 -0.63712,-0.01 -0.0296,0.0296 -0.0296,0.13335 0,0.16298 0.34572,0.0148 0.42968,0.0395 0.42968,0.44944 v 1.9805 c 0,0.40993 -0.084,0.43463 -0.42968,0.44944 -0.0296,0.0296 -0.0296,0.13335 0,0.16299 0.17286,-0.005 0.41981,-0.01 0.64206,-0.01 0.22225,0 0.46425,0.005 0.63711,0.01 0.0296,-0.0296 0.0296,-0.13335 0,-0.16299 -0.34572,-0.0148 -0.42968,-0.0395 -0.42968,-0.44944 v -0.99272 z m 1.8669,-0.17286 c -0.01,-0.19755 -0.0148,-0.32596 -0.0395,-0.37535 -0.01,-0.0247 -0.0198,-0.0395 -0.0593,-0.0395 -0.13829,0.0543 -0.2667,0.0988 -0.60749,0.14322 -0.01,0.0296 0,0.10866 0.01,0.13829 0.2667,0.0247 0.32103,0.0494 0.32103,0.33585 v 0.96308 c 0,0.40993 -0.0593,0.42969 -0.36548,0.44944 -0.0296,0.0296 -0.0296,0.13335 0,0.16299 0.17286,-0.005 0.36548,-0.01 0.56303,-0.01 0.19756,0 0.42475,0.005 0.59761,0.01 0.0296,-0.0296 0.0296,-0.13335 0,-0.16299 -0.34572,-0.0247 -0.40499,-0.0395 -0.40499,-0.44944 v -0.6865 c 0,-0.12841 0.0593,-0.24201 0.11854,-0.33091 0.0543,-0.079 0.16792,-0.24201 0.22718,-0.24201 0.0444,0 0.0889,0.01 0.12842,0.0642 0.0346,0.0494 0.0938,0.11359 0.1778,0.11359 0.11853,0 0.23212,-0.12347 0.23212,-0.24694 0,-0.0938 -0.0889,-0.23707 -0.29633,-0.23707 -0.23213,0 -0.43462,0.21731 -0.54822,0.40993 -0.0296,0.0543 -0.0543,0.0148 -0.0543,-0.01 z m 1.131,0.75565 c 0,0.50377 0.33584,1.06187 1.03716,1.06187 0.31609,0 0.5581,-0.1136 0.72602,-0.27658 0.22225,-0.21731 0.32103,-0.52846 0.32103,-0.82974 0,-0.51364 -0.28152,-1.11125 -1.03717,-1.11125 -0.32597,0 -0.59267,0.13335 -0.7754,0.34573 -0.17781,0.21237 -0.27164,0.49882 -0.27164,0.80997 z m 0.97296,-0.98284 c 0.42474,0 0.68651,0.38524 0.68651,1.09644 0,0.6223 -0.32103,0.77541 -0.55316,0.77541 -0.51365,0 -0.68157,-0.6223 -0.68157,-1.0026 0,-0.42968 0.10372,-0.86925 0.54822,-0.86925 z m 2.2225,0.22719 c -0.0296,0.0346 -0.0593,0.0445 -0.0593,0 -0.005,-0.13335 -0.0148,-0.32596 -0.0395,-0.37535 -0.01,-0.0247 -0.0198,-0.0395 -0.0593,-0.0395 -0.13829,0.0543 -0.2667,0.0988 -0.60749,0.14322 -0.01,0.0296 0,0.10866 0.01,0.13829 0.2667,0.0247 0.32103,0.0494 0.32103,0.33585 v 0.96308 c 0,0.40499 -0.0494,0.42475 -0.34572,0.44944 -0.0296,0.0296 -0.0296,0.13335 0,0.16299 0.14816,-0.005 0.34572,-0.01 0.54327,-0.01 0.19756,0 0.34573,0.005 0.49389,0.01 0.0296,-0.0296 0.0296,-0.13335 0,-0.16299 -0.25188,-0.0247 -0.30127,-0.0445 -0.30127,-0.44944 v -0.80998 c 0,-0.10371 0.0444,-0.16298 0.084,-0.20743 0.18768,-0.18274 0.40993,-0.29139 0.60255,-0.29139 0.0988,0 0.20249,0.0642 0.26176,0.1778 0.0494,0.0988 0.0593,0.23212 0.0593,0.38029 v 0.75071 c 0,0.40499 -0.0494,0.42475 -0.30621,0.44944 -0.0247,0.0296 -0.0247,0.13335 0,0.16299 0.14816,-0.005 0.30621,-0.01 0.50376,-0.01 0.19756,0 0.37536,0.005 0.52353,0.01 0.0247,-0.0296 0.0247,-0.13335 0,-0.16299 -0.27658,-0.0247 -0.33091,-0.0445 -0.33091,-0.44944 v -0.73589 c 0,-0.27164 -0.0198,-0.50871 -0.13335,-0.66182 -0.084,-0.10865 -0.23707,-0.16792 -0.40993,-0.16792 -0.242,0 -0.51858,0.0642 -0.80998,0.40005 z m 1.9805,-0.35066 c -0.0691,0 -0.0889,0.0593 -0.0889,0.0988 v 0.0642 c 0,0.0247 0.005,0.0296 0.0247,0.0296 h 0.2914 v 1.48661 c 0,0.35066 0.15311,0.48895 0.38029,0.48895 0.22719,0 0.47414,-0.10866 0.66676,-0.32597 -0.01,-0.0494 -0.0395,-0.079 -0.0889,-0.084 -0.12842,0.0988 -0.27658,0.13829 -0.40499,0.13829 -0.13335,0 -0.16299,-0.14817 -0.16299,-0.45438 v -1.24954 h 0.51365 c 0.0494,0 0.11853,-0.0198 0.11853,-0.0642 v -0.0988 c 0,-0.0197 -0.0148,-0.0296 -0.0395,-0.0296 H 110.925 v -0.19262 c 0,-0.32102 0.0198,-0.51858 0.0198,-0.51858 0,-0.0296 -0.0148,-0.0445 -0.0395,-0.0445 -0.0198,0 -0.0642,0.0198 -0.10866,0.0445 -0.0543,0.0296 -0.10372,0.0543 -0.16792,0.0691 -0.0593,0.0198 -0.10866,0.0346 -0.10866,0.0692 0,0.0593 0.0148,0.0247 0.0148,0.57291 z m 3.42265,0.35066 c -0.005,-0.14816 -0.0148,-0.32596 -0.0395,-0.37535 -0.01,-0.0247 -0.0198,-0.0395 -0.0593,-0.0395 -0.13829,0.0543 -0.2667,0.0988 -0.60748,0.14322 -0.01,0.0296 0,0.10866 0.01,0.13829 0.2667,0.0247 0.32103,0.0494 0.32103,0.33585 v 0.96308 c 0,0.40499 -0.0642,0.42969 -0.33584,0.44944 -0.0296,0.0296 -0.0296,0.13335 0,0.16299 0.14816,-0.005 0.33584,-0.01 0.5334,-0.01 0.19755,0 0.35066,0.005 0.49883,0.01 0.0296,-0.0296 0.0296,-0.13335 0,-0.16299 -0.25189,-0.0247 -0.30621,-0.0445 -0.30621,-0.44944 v -0.80998 c 0,-0.10371 0.0444,-0.16298 0.084,-0.20743 0.19755,-0.19262 0.38029,-0.29139 0.5334,-0.29139 0.18768,0 0.32597,0.11853 0.32597,0.44944 v 0.85936 c 0,0.40499 -0.0395,0.42969 -0.30622,0.44944 -0.0247,0.0296 -0.0247,0.13335 0,0.16299 0.12348,-0.005 0.30622,-0.01 0.50377,-0.01 0.19756,0 0.36054,0.005 0.48401,0.01 0.0247,-0.0296 0.0247,-0.13335 0,-0.16299 -0.24694,-0.0198 -0.29139,-0.0445 -0.29139,-0.44944 v -0.78528 c 0,-0.0692 0,-0.13829 -0.005,-0.19756 0.23707,-0.26176 0.45932,-0.32596 0.65193,-0.32596 0.18768,0 0.29634,0.10865 0.29634,0.43956 v 0.86924 c 0,0.40499 -0.0494,0.42969 -0.30621,0.44944 -0.0247,0.0296 -0.0247,0.13335 0,0.16299 0.12347,-0.005 0.30621,-0.01 0.50376,-0.01 0.19756,0 0.37042,0.005 0.50871,0.01 0.0247,-0.0296 0.0247,-0.13335 0,-0.16299 -0.27164,-0.0198 -0.31609,-0.0445 -0.31609,-0.44944 v -0.78034 c 0,-0.43956 -0.0741,-0.78529 -0.50871,-0.78529 -0.25188,0 -0.55809,0.0938 -0.81491,0.36548 -0.0148,0.0148 -0.0444,0.0395 -0.0543,-0.005 -0.0444,-0.20249 -0.23707,-0.36054 -0.49389,-0.36054 -0.28646,0 -0.54328,0.16792 -0.75071,0.40005 -0.0247,0.0247 -0.0543,0.0593 -0.0593,0 z m 4.50921,1.53106 c 0.0296,0.15311 0.084,0.28646 0.33091,0.28646 0.18767,0 0.36547,-0.084 0.46919,-0.18274 -0.01,-0.0593 -0.0296,-0.10372 -0.084,-0.13335 -0.0346,0.0296 -0.11853,0.079 -0.18274,0.079 -0.14323,0 -0.14817,-0.19262 -0.14817,-0.41981 v -0.72601 c 0,-0.70133 -0.38523,-0.83468 -0.74577,-0.83468 -0.40499,0 -0.81492,0.2667 -0.81492,0.54822 0,0.11853 0.0593,0.1778 0.17286,0.1778 0.14323,0 0.23213,-0.10372 0.23213,-0.16792 0,-0.0346 -0.005,-0.0692 -0.0148,-0.0889 -0.005,-0.0148 -0.01,-0.0445 -0.01,-0.0988 0,-0.15311 0.20743,-0.20743 0.39511,-0.20743 0.16792,0 0.40005,0.084 0.40005,0.64205 0,0.0346 -0.0148,0.0543 -0.0296,0.0593 l -0.42475,0.10372 c -0.47413,0.11853 -0.81492,0.38029 -0.81492,0.71614 0,0.40499 0.27658,0.5334 0.6223,0.5334 0.17287,0 0.32103,-0.0395 0.53834,-0.20744 l 0.0988,-0.079 z m 0,-0.91369 v 0.65193 c 0,0.0642 -0.0296,0.0988 -0.0691,0.12841 -0.12842,0.10372 -0.29634,0.21731 -0.43463,0.21731 -0.24694,0 -0.3556,-0.19755 -0.3556,-0.35066 0,-0.22225 0.10372,-0.44944 0.4692,-0.54328 z m 1.02235,-0.96803 c -0.0691,0 -0.0889,0.0593 -0.0889,0.0988 v 0.0642 c 0,0.0247 0.005,0.0296 0.0247,0.0296 h 0.29139 v 1.48661 c 0,0.35066 0.15311,0.48895 0.3803,0.48895 0.22719,0 0.47413,-0.10866 0.66675,-0.32597 -0.01,-0.0494 -0.0395,-0.079 -0.0889,-0.084 -0.12841,0.0988 -0.27658,0.13829 -0.40499,0.13829 -0.13335,0 -0.16298,-0.14817 -0.16298,-0.45438 v -1.24954 h 0.51364 c 0.0494,0 0.11854,-0.0198 0.11854,-0.0642 v -0.0988 c 0,-0.0197 -0.0148,-0.0296 -0.0395,-0.0296 h -0.59267 v -0.19262 c 0,-0.32102 0.0198,-0.51858 0.0198,-0.51858 0,-0.0296 -0.0148,-0.0445 -0.0395,-0.0445 -0.0198,0 -0.0642,0.0198 -0.10865,0.0445 -0.0543,0.0296 -0.10372,0.0543 -0.16793,0.0691 -0.0593,0.0198 -0.10865,0.0346 -0.10865,0.0692 0,0.0593 0.0148,0.0247 0.0148,0.57291 z m 1.56069,0 c -0.0692,0 -0.0889,0.0593 -0.0889,0.0988 v 0.0642 c 0,0.0247 0.005,0.0296 0.0247,0.0296 h 0.2914 v 1.48661 c 0,0.35066 0.1531,0.48895 0.38029,0.48895 0.22719,0 0.47414,-0.10866 0.66675,-0.32597 -0.01,-0.0494 -0.0395,-0.079 -0.0889,-0.084 -0.12841,0.0988 -0.27658,0.13829 -0.40499,0.13829 -0.13335,0 -0.16298,-0.14817 -0.16298,-0.45438 v -1.24954 h 0.51365 c 0.0494,0 0.11853,-0.0198 0.11853,-0.0642 v -0.0988 c 0,-0.0197 -0.0148,-0.0296 -0.0395,-0.0296 h -0.59267 v -0.19262 c 0,-0.32102 0.0198,-0.51858 0.0198,-0.51858 0,-0.0296 -0.0148,-0.0445 -0.0395,-0.0445 -0.0198,0 -0.0642,0.0198 -0.10865,0.0445 -0.0543,0.0296 -0.10372,0.0543 -0.16792,0.0691 -0.0593,0.0198 -0.10866,0.0346 -0.10866,0.0692 0,0.0593 0.0148,0.0247 0.0148,0.57291 z m 3.25473,1.65947 c -0.18274,0.18768 -0.32596,0.2667 -0.61242,0.2667 -0.1778,0 -0.38523,-0.10371 -0.53834,-0.3556 -0.0988,-0.16298 -0.15804,-0.39017 -0.15804,-0.67663 l 1.31374,0.01 c 0.0593,0 0.0938,-0.0296 0.0938,-0.084 0,-0.41487 -0.14817,-0.85937 -0.83467,-0.85937 -0.42969,0 -0.98778,0.40993 -0.98778,1.16064 0,0.27658 0.0691,0.54328 0.23213,0.73096 0.16792,0.19755 0.40005,0.31609 0.75565,0.31609 0.37535,0 0.64205,-0.17286 0.83961,-0.42969 -0.0148,-0.0494 -0.0444,-0.0741 -0.10372,-0.079 z m -1.29399,-0.93345 c 0.0938,-0.5581 0.43956,-0.60255 0.5581,-0.60255 0.18768,0 0.40993,0.10372 0.40993,0.51859 0,0.0444 -0.0198,0.0691 -0.0741,0.0691 z m 2.46451,-0.37536 c -0.01,-0.19755 -0.0148,-0.32596 -0.0395,-0.37535 -0.01,-0.0247 -0.0198,-0.0395 -0.0593,-0.0395 -0.13829,0.0543 -0.2667,0.0988 -0.60749,0.14322 -0.01,0.0296 0,0.10866 0.01,0.13829 0.2667,0.0247 0.32103,0.0494 0.32103,0.33585 v 0.96308 c 0,0.40993 -0.0593,0.42969 -0.36548,0.44944 -0.0296,0.0296 -0.0296,0.13335 0,0.16299 0.17286,-0.005 0.36548,-0.01 0.56304,-0.01 0.19755,0 0.42474,0.005 0.5976,0.01 0.0296,-0.0296 0.0296,-0.13335 0,-0.16299 -0.34572,-0.0247 -0.40499,-0.0395 -0.40499,-0.44944 v -0.6865 c 0,-0.12841 0.0593,-0.24201 0.11854,-0.33091 0.0543,-0.079 0.16792,-0.24201 0.22719,-0.24201 0.0445,0 0.0889,0.01 0.12841,0.0642 0.0346,0.0494 0.0938,0.11359 0.1778,0.11359 0.11853,0 0.23213,-0.12347 0.23213,-0.24694 0,-0.0938 -0.0889,-0.23707 -0.29634,-0.23707 -0.23213,0 -0.43462,0.21731 -0.54822,0.40993 -0.0296,0.0543 -0.0543,0.0148 -0.0543,-0.01 z"
       id="text14"
       style="-inkscape-font-specification:'Libertinus Serif';stroke-width:0.264583"
       aria-label="Front matter" /><path
       d="m 146.86964,53.846655 c -0.1778,0 -0.4445,-0.0049 -0.63711,-0.0099 -0.0296,0.02963 -0.0296,0.13335 0,0.162983 0.34572,0.01482 0.42968,0.03951 0.42968,0.44944 v 1.980499 c 0,0.409929 -0.084,0.434623 -0.42968,0.44944 -0.0296,0.02963 -0.0296,0.13335 0,0.162984 0.19261,-0.0049 0.45931,-0.0099 0.64205,-0.0099 0.1778,0 0.30622,0.0099 0.72108,0.0099 0.98284,0 1.24461,-0.49389 1.24461,-0.918636 0,-0.474134 -0.33091,-0.745774 -0.7606,-0.869246 v -0.0099 c 0.24695,-0.123472 0.4692,-0.380295 0.4692,-0.646996 0,-0.330906 -0.14323,-0.76059 -1.06186,-0.76059 -0.17286,0 -0.43957,0.0099 -0.61737,0.0099 z m 0.21238,1.545876 h 0.34078 c 0.67663,0 0.95815,0.380295 0.95815,0.824796 0,0.36054 -0.13829,0.661813 -0.889,0.661813 -0.34573,0 -0.40993,-0.128411 -0.40993,-0.429684 z m 0,-1.07668 c 0,-0.261762 0,-0.311151 0.42968,-0.311151 0.27658,0 0.63712,0.148167 0.63712,0.651935 0,0.419806 -0.2914,0.567973 -0.70132,0.567973 h -0.36548 z m 3.40783,2.479328 c 0.0296,0.153106 0.084,0.286456 0.33091,0.286456 0.18768,0 0.36548,-0.08396 0.4692,-0.182739 -0.01,-0.05927 -0.0296,-0.103717 -0.084,-0.133351 -0.0346,0.02963 -0.11854,0.07902 -0.18274,0.07902 -0.14323,0 -0.14817,-0.192617 -0.14817,-0.419807 v -0.726015 c 0,-0.701324 -0.38524,-0.834674 -0.74577,-0.834674 -0.40499,0 -0.81492,0.2667 -0.81492,0.548218 0,0.118533 0.0593,0.1778 0.17286,0.1778 0.14323,0 0.23213,-0.103717 0.23213,-0.167923 0,-0.03457 -0.005,-0.06914 -0.0148,-0.0889 -0.005,-0.01482 -0.01,-0.04445 -0.01,-0.09878 0,-0.153106 0.20744,-0.207434 0.39511,-0.207434 0.16793,0 0.40005,0.08396 0.40005,0.642057 0,0.03457 -0.0148,0.05433 -0.0296,0.05927 l -0.42474,0.103717 c -0.47414,0.118534 -0.81492,0.380295 -0.81492,0.716141 0,0.404989 0.27658,0.533401 0.6223,0.533401 0.17286,0 0.32103,-0.03951 0.53834,-0.207434 l 0.0988,-0.07902 z m 0,-0.913697 v 0.651935 c 0,0.06421 -0.0296,0.09878 -0.0691,0.128411 -0.12841,0.103717 -0.29633,0.217312 -0.43462,0.217312 -0.24695,0 -0.3556,-0.197556 -0.3556,-0.350662 0,-0.22225 0.10371,-0.44944 0.46919,-0.543279 z m 2.77566,0.701324 c -0.0198,-0.04445 -0.0593,-0.06421 -0.10372,-0.06914 -0.16792,0.217312 -0.38029,0.325968 -0.59266,0.325968 -0.36054,0 -0.66182,-0.365479 -0.66182,-0.94333 0,-0.543279 0.23707,-0.869247 0.56304,-0.869247 0.29139,0 0.3309,0.172862 0.35066,0.345723 0.0148,0.133351 0.084,0.177801 0.18768,0.177801 0.10371,0 0.242,-0.06421 0.242,-0.217312 0,-0.271639 -0.28151,-0.469195 -0.75565,-0.469195 -0.48895,0 -1.01247,0.439562 -1.01247,1.140886 0,0.637118 0.3556,1.07668 0.9779,1.07668 0.29633,0 0.5581,-0.09384 0.80504,-0.498829 z m 0.57291,-0.153106 c 0,0.409929 -0.0543,0.429684 -0.33091,0.44944 -0.0296,0.02963 -0.0296,0.13335 0,0.162984 0.16299,-0.0049 0.33091,-0.0099 0.52847,-0.0099 0.17286,0 0.33584,0.0049 0.44944,0.0099 0.0296,-0.02963 0.0296,-0.133351 0,-0.162984 -0.2025,-0.01976 -0.25683,-0.03951 -0.25683,-0.44944 v -0.429684 c 0.0938,0.0049 0.16299,0.0099 0.21238,0.02469 0.0543,0.03951 0.0988,0.08396 0.15804,0.162984 l 0.36054,0.484012 c 0.14323,0.192617 0.2025,0.286456 0.20743,0.345723 0,0.01482 0.005,0.0247 0.0198,0.0247 0.0988,-0.0049 0.20743,-0.0099 0.30621,-0.0099 0.15311,0 0.30621,0.0049 0.40499,0.0099 0.0296,-0.02963 0.0296,-0.133351 0,-0.162984 -0.16792,-0.01976 -0.29139,-0.03951 -0.42474,-0.207434 L 154.8213,55.85185 c -0.0197,-0.0247 -0.0346,-0.04445 -0.0346,-0.06915 0,-0.01975 0,-0.02963 0.0198,-0.04939 l 0.43462,-0.44944 c 0.14817,-0.158045 0.32103,-0.197556 0.51858,-0.217311 0.0296,-0.02963 0.0296,-0.133351 0,-0.162984 -0.11359,0.0049 -0.25188,0.0099 -0.42968,0.0099 -0.18768,0 -0.37042,-0.0049 -0.48401,-0.0099 -0.0296,0.02963 -0.0296,0.13335 0,0.162984 0.27657,0.01975 0.15804,0.192617 0.11359,0.251884 -0.11359,0.143228 -0.2667,0.31115 -0.39511,0.404989 -0.10866,0.07902 -0.24201,0.13829 -0.33585,0.153106 v -1.723676 c 0,-0.321028 0.0198,-0.518584 0.0198,-0.518584 0,-0.03457 -0.0198,-0.04939 -0.0642,-0.04939 -0.12347,0.04939 -0.49389,0.118533 -0.69144,0.13335 -0.01,0.03951 0,0.118534 0.0296,0.148167 0.0148,0 0.0296,0 0.0444,0 0.21731,0.01482 0.27164,0.01482 0.27164,0.40499 z m 4.1783,-1.16558 c -0.005,-0.148167 -0.0148,-0.325968 -0.0395,-0.375357 -0.01,-0.02469 -0.0198,-0.03951 -0.0593,-0.03951 -0.13829,0.05433 -0.2667,0.09878 -0.60749,0.143228 -0.01,0.02963 0,0.108656 0.01,0.138289 0.2667,0.0247 0.32103,0.04939 0.32103,0.335846 v 0.963085 c 0,0.40499 -0.0642,0.429684 -0.33585,0.44944 -0.0296,0.02963 -0.0296,0.13335 0,0.162984 0.14817,-0.0049 0.33585,-0.0099 0.53341,-0.0099 0.19755,0 0.35066,0.0049 0.49882,0.0099 0.0296,-0.02963 0.0296,-0.133351 0,-0.162984 -0.25188,-0.0247 -0.30621,-0.04445 -0.30621,-0.44944 v -0.80998 c 0,-0.103716 0.0444,-0.162983 0.084,-0.207433 0.19756,-0.192617 0.3803,-0.291395 0.53341,-0.291395 0.18767,0 0.32596,0.118533 0.32596,0.449439 v 0.859369 c 0,0.40499 -0.0395,0.429684 -0.30621,0.44944 -0.0247,0.02963 -0.0247,0.13335 0,0.162984 0.12347,-0.0049 0.30621,-0.0099 0.50377,-0.0099 0.19755,0 0.36054,0.0049 0.48401,0.0099 0.0247,-0.02963 0.0247,-0.133351 0,-0.162984 -0.24694,-0.01976 -0.29139,-0.04445 -0.29139,-0.44944 v -0.785285 c 0,-0.06915 0,-0.138289 -0.005,-0.197556 0.23706,-0.261762 0.45931,-0.325967 0.65193,-0.325967 0.18768,0 0.29634,0.108655 0.29634,0.439562 v 0.869246 c 0,0.40499 -0.0494,0.429684 -0.30622,0.44944 -0.0247,0.02963 -0.0247,0.13335 0,0.162984 0.12348,-0.0049 0.30622,-0.0099 0.50377,-0.0099 0.19756,0 0.37042,0.0049 0.50871,0.0099 0.0247,-0.02963 0.0247,-0.133351 0,-0.162984 -0.27164,-0.01976 -0.31609,-0.04445 -0.31609,-0.44944 v -0.780346 c 0,-0.439562 -0.0741,-0.785285 -0.50871,-0.785285 -0.25188,0 -0.55809,0.09384 -0.81492,0.365478 -0.0148,0.01482 -0.0445,0.03951 -0.0543,-0.0049 -0.0445,-0.202494 -0.23707,-0.360539 -0.49389,-0.360539 -0.28646,0 -0.54328,0.167922 -0.75072,0.400051 -0.0247,0.02469 -0.0543,0.05927 -0.0593,0 z m 4.50921,1.531059 c 0.0296,0.153106 0.084,0.286456 0.3309,0.286456 0.18768,0 0.36548,-0.08396 0.4692,-0.182739 -0.01,-0.05927 -0.0296,-0.103717 -0.084,-0.133351 -0.0346,0.02963 -0.11854,0.07902 -0.18274,0.07902 -0.14323,0 -0.14817,-0.192617 -0.14817,-0.419807 v -0.726015 c 0,-0.701324 -0.38523,-0.834674 -0.74577,-0.834674 -0.40499,0 -0.81492,0.2667 -0.81492,0.548218 0,0.118533 0.0593,0.1778 0.17286,0.1778 0.14323,0 0.23213,-0.103717 0.23213,-0.167923 0,-0.03457 -0.005,-0.06914 -0.0148,-0.0889 -0.005,-0.01482 -0.01,-0.04445 -0.01,-0.09878 0,-0.153106 0.20744,-0.207434 0.39512,-0.207434 0.16792,0 0.40005,0.08396 0.40005,0.642057 0,0.03457 -0.0148,0.05433 -0.0296,0.05927 l -0.42474,0.103717 c -0.47414,0.118534 -0.81492,0.380295 -0.81492,0.716141 0,0.404989 0.27658,0.533401 0.6223,0.533401 0.17286,0 0.32103,-0.03951 0.53834,-0.207434 l 0.0988,-0.07902 z m 0,-0.913697 v 0.651935 c 0,0.06421 -0.0296,0.09878 -0.0691,0.128411 -0.12841,0.103717 -0.29633,0.217312 -0.43462,0.217312 -0.24695,0 -0.3556,-0.197556 -0.3556,-0.350662 0,-0.22225 0.10372,-0.44944 0.46919,-0.543279 z m 1.02234,-0.968024 c -0.0691,0 -0.0889,0.05927 -0.0889,0.09878 v 0.0642 c 0,0.0247 0.005,0.02963 0.0247,0.02963 h 0.29139 v 1.486609 c 0,0.350662 0.15311,0.488951 0.3803,0.488951 0.22719,0 0.47413,-0.108656 0.66675,-0.325968 -0.01,-0.04939 -0.0395,-0.07902 -0.0889,-0.08396 -0.12841,0.09878 -0.27658,0.138289 -0.40499,0.138289 -0.13335,0 -0.16298,-0.148167 -0.16298,-0.454378 v -1.249542 h 0.51364 c 0.0494,0 0.11854,-0.01976 0.11854,-0.06421 v -0.09878 c 0,-0.01975 -0.0148,-0.02963 -0.0395,-0.02963 h -0.59266 v -0.192617 c 0,-0.321029 0.0198,-0.518585 0.0198,-0.518585 0,-0.02963 -0.0148,-0.04445 -0.0395,-0.04445 -0.0198,0 -0.0642,0.01976 -0.10865,0.04445 -0.0543,0.02963 -0.10372,0.05433 -0.16793,0.06914 -0.0593,0.01976 -0.10865,0.03457 -0.10865,0.06914 0,0.05927 0.0148,0.0247 0.0148,0.572913 z m 1.5607,0 c -0.0692,0 -0.0889,0.05927 -0.0889,0.09878 v 0.0642 c 0,0.0247 0.005,0.02963 0.0247,0.02963 h 0.2914 v 1.486609 c 0,0.350662 0.1531,0.488951 0.38029,0.488951 0.22719,0 0.47413,-0.108656 0.66675,-0.325968 -0.01,-0.04939 -0.0395,-0.07902 -0.0889,-0.08396 -0.12841,0.09878 -0.27658,0.138289 -0.40499,0.138289 -0.13335,0 -0.16298,-0.148167 -0.16298,-0.454378 v -1.249542 h 0.51364 c 0.0494,0 0.11854,-0.01976 0.11854,-0.06421 v -0.09878 c 0,-0.01975 -0.0148,-0.02963 -0.0395,-0.02963 h -0.59267 v -0.192617 c 0,-0.321029 0.0198,-0.518585 0.0198,-0.518585 0,-0.02963 -0.0148,-0.04445 -0.0395,-0.04445 -0.0197,0 -0.0642,0.01976 -0.10865,0.04445 -0.0543,0.02963 -0.10372,0.05433 -0.16793,0.06914 -0.0593,0.01976 -0.10865,0.03457 -0.10865,0.06914 0,0.05927 0.0148,0.0247 0.0148,0.572913 z m 3.25473,1.65947 c -0.18274,0.187678 -0.32597,0.266701 -0.61242,0.266701 -0.1778,0 -0.38524,-0.103717 -0.53834,-0.355601 -0.0988,-0.162984 -0.15805,-0.390173 -0.15805,-0.676629 l 1.31375,0.0099 c 0.0593,0 0.0938,-0.02963 0.0938,-0.08396 0,-0.414867 -0.14817,-0.859368 -0.83468,-0.859368 -0.42968,0 -0.98778,0.409928 -0.98778,1.160641 0,0.276578 0.0692,0.543279 0.23213,0.730957 0.16793,0.197556 0.40005,0.31609 0.75565,0.31609 0.37536,0 0.64206,-0.172862 0.83962,-0.429684 -0.0148,-0.04939 -0.0445,-0.07408 -0.10372,-0.07902 z m -1.29399,-0.933452 c 0.0938,-0.558096 0.43956,-0.602546 0.55809,-0.602546 0.18768,0 0.40993,0.103717 0.40993,0.518585 0,0.04445 -0.0198,0.06914 -0.0741,0.06914 z m 2.4645,-0.375356 c -0.01,-0.197556 -0.0148,-0.325968 -0.0395,-0.375357 -0.01,-0.02469 -0.0197,-0.03951 -0.0593,-0.03951 -0.13828,0.05433 -0.2667,0.09878 -0.60748,0.143228 -0.01,0.02963 0,0.108656 0.01,0.138289 0.2667,0.0247 0.32103,0.04939 0.32103,0.335846 v 0.963085 c 0,0.409929 -0.0593,0.429684 -0.36548,0.44944 -0.0296,0.02963 -0.0296,0.13335 0,0.162984 0.17286,-0.0049 0.36548,-0.0099 0.56303,-0.0099 0.19756,0 0.42475,0.0049 0.59761,0.0099 0.0296,-0.02963 0.0296,-0.133351 0,-0.162984 -0.34572,-0.0247 -0.40499,-0.03951 -0.40499,-0.44944 v -0.686508 c 0,-0.128411 0.0593,-0.242006 0.11853,-0.330906 0.0543,-0.07902 0.16793,-0.242006 0.22719,-0.242006 0.0445,0 0.0889,0.0099 0.12841,0.06421 0.0346,0.04939 0.0938,0.113595 0.1778,0.113595 0.11854,0 0.23213,-0.123473 0.23213,-0.246945 0,-0.09384 -0.0889,-0.237067 -0.29633,-0.237067 -0.23213,0 -0.43462,0.217311 -0.54822,0.409928 -0.0296,0.05433 -0.0543,0.01482 -0.0543,-0.0099 z"
       id="text15"
       style="-inkscape-font-specification:'Libertinus Serif';stroke-width:0.264583"
       aria-label="Back matter" /></g></svg>
