<?xml version="1.0" encoding="UTF-8" standalone="no"?>
<!-- Created with Inkscape (http://www.inkscape.org/) -->

<svg
   width="400.98312mm"
   height="49.31081mm"
   viewBox="0 0 400.98312 49.31081"
   version="1.1"
   id="svg382"
   inkscape:version="1.1 (ce6663b3b7, 2021-05-25)"
   sodipodi:docname="drawing-1.svg"
   xmlns:inkscape="http://www.inkscape.org/namespaces/inkscape"
   xmlns:sodipodi="http://sodipodi.sourceforge.net/DTD/sodipodi-0.dtd"
   xmlns="http://www.w3.org/2000/svg"
   xmlns:svg="http://www.w3.org/2000/svg">
  <sodipodi:namedview
     id="namedview384"
     pagecolor="#ffffff"
     bordercolor="#666666"
     borderopacity="1.0"
     inkscape:pageshadow="2"
     inkscape:pageopacity="0.0"
     inkscape:pagecheckerboard="0"
     inkscape:document-units="mm"
     showgrid="false"
     inkscape:zoom="0.75187991"
     inkscape:cx="408.97489"
     inkscape:cy="212.13494"
     inkscape:window-width="1848"
     inkscape:window-height="1016"
     inkscape:window-x="72"
     inkscape:window-y="27"
     inkscape:window-maximized="1"
     inkscape:current-layer="layer1"
     fit-margin-top="0"
     fit-margin-left="0"
     fit-margin-right="0"
     fit-margin-bottom="0" />
  <defs
     id="defs379" />
  <g
     inkscape:label="Layer 1"
     inkscape:groupmode="layer"
     id="layer1"
     transform="translate(124.13018,-92.525874)">
    <path
       style="fill:#000000;stroke-width:0.264583"
       d="m -96.246934,141.59305 c -7.342836,-0.45091 -12.710696,-2.27321 -17.790366,-6.03956 -4.20505,-3.11785 -7.23046,-6.85392 -8.75819,-10.81545 -1.12584,-2.91941 -1.46526,-5.19307 -1.29203,-8.65497 0.32421,-6.47931 3.5615,-12.61856 8.51948,-16.156497 3.3547,-2.39386 6.51189,-3.3021 11.47872,-3.3021 9.166776,0 15.843619,3.760637 17.389378,9.794317 0.534837,2.08767 0.377275,4.04269 -0.537895,6.67427 -0.795208,2.28662 -1.184961,2.64365 -2.130887,1.95197 -0.48501,-0.35465 -0.47821,-0.43253 0.24316,-2.78413 0.585929,-1.91008 0.703547,-2.68253 0.55883,-3.67004 -0.44191,-3.01543 -2.07192,-4.98227 -5.53559,-6.67949 -3.0168,-1.47824 -5.06581,-1.963387 -8.230016,-1.948637 -4.88531,0.0228 -8.74893,1.578777 -12.06515,4.859027 -3.39601,3.35919 -4.89982,7.23115 -4.67676,12.04166 0.22884,4.9354 2.33211,9.34512 6.54391,13.71995 3.69064,3.8335 7.32132,5.84914 12.828106,7.12177 1.98869,0.45959 3.27577,0.55504 7.55635,0.56039 8.973404,0.0112 16.134135,-1.43165 43.020358,-8.66835 10.616893,-2.85764 16.83458,-4.44632 21.340744,-5.45276 l 2.580894,-0.57644 -1.60006,-1.76394 c -0.880031,-0.97017 -1.922373,-2.27987 -2.316311,-2.91044 l -0.716253,-1.1465 -1.322917,0.16301 c -11.83762,1.45864 -21.859288,-1.83897 -24.220715,-7.96978 -1.653098,-4.29183 0.171508,-10.531017 3.910774,-13.372777 5.162635,-3.9235 14.530504,-5.05115 25.887776,-3.11625 6.823646,1.16252 10.399215,2.46125 22.203415,8.064797 14.377823,6.82527 25.743694,11.70054 31.74656,13.61735 9.647153,3.08048 20.437028,4.53345 27.746355,3.73635 3.529618,-0.38492 8.175937,-1.53519 10.543092,-2.61011 2.954137,-1.34146 5.187204,-3.79467 5.637102,-6.19283 0.3639,-1.93975 -1.355604,-4.34229 -3.586075,-5.01055 -2.115196,-0.63373 -4.357169,0.82093 -5.042303,3.27159 -0.389323,1.39257 -1.09593,2.05491 -2.192255,2.05491 -2.122591,0 -2.662804,-1.90281 -1.242973,-4.37816 3.142224,-5.47817 10.743425,-6.419347 14.186927,-1.75662 0.503661,0.68199 1.142338,1.95436 1.419283,2.82748 0.484928,1.52884 0.510794,1.55817 0.699989,0.79375 0.322258,-1.30203 1.442713,-3.37946 2.331414,-4.32266 3.011942,-3.19666 8.440864,-3.03755 11.925919,0.34954 1.86659,1.81412 3.01308,4.56368 2.32969,5.58716 -0.59687,0.89389 -2.64041,1.19382 -3.3435,0.49073 -0.22483,-0.22483 -0.5284,-0.84991 -0.67461,-1.38907 -0.71617,-2.64103 -2.927967,-4.15781 -5.109774,-3.50412 -3.036231,0.90967 -4.387749,3.74881 -3.117016,6.54792 2.798701,6.16486 16.11271,8.97334 30.968224,6.53248 11.11223,-1.82581 20.7061,-5.50211 47.75729,-18.300247 8.30953,-3.9313 12.57289,-5.41036 18.41995,-6.39029 9.75325,-1.63458 18.08128,-1.12514 23.39607,1.43117 4.84351,2.32963 7.54435,6.908117 7.20394,12.212207 -0.37751,5.88256 -5.80697,9.82116 -15.12752,10.9737 -2.36332,0.29224 -7.59172,0.16021 -9.81536,-0.24785 -1.02417,-0.18796 -1.08032,-0.15985 -1.73961,0.87068 -0.3747,0.5857 -1.40882,1.8961 -2.29804,2.91201 -0.88921,1.0159 -1.57556,1.8883 -1.52519,1.93866 0.0503,0.0504 1.36142,0.37858 2.91346,0.72937 4.46112,1.0083 11.752,2.87181 20.77334,5.30953 12.23574,3.30631 22.02386,5.76425 27.11979,6.81015 13.91087,2.85511 22.25519,2.64554 29.36875,-0.7376 9.0564,-4.30713 14.98756,-14.43579 13.25997,-22.64409 -1.64487,-7.81532 -8.36661,-13.072197 -16.69955,-13.060257 -5.43735,0.008 -10.75378,2.439357 -12.7386,5.826227 -0.9769,1.66692 -1.12679,4.15496 -0.37854,6.28326 0.72583,2.06452 0.71853,2.97811 -0.0257,3.21432 -0.40182,0.12754 -0.68082,0.038 -0.92585,-0.29707 -0.74968,-1.02524 -1.48527,-3.50801 -1.60833,-5.42855 -0.30353,-4.73655 2.00869,-8.29669 6.94579,-10.694407 3.47276,-1.68656 4.93461,-2.01464 9.67753,-2.17191 4.57872,-0.15183 6.90084,0.23588 9.89418,1.65195 7.53602,3.565107 12.40144,13.545507 10.87829,22.314537 -1.01068,5.81849 -4.13541,10.58596 -9.66044,14.7391 -5.3662,4.03375 -10.3496,5.68958 -18.63503,6.19188 -9.74468,0.59076 -21.65395,-1.58879 -47.71506,-8.73246 -10.30725,-2.82535 -15.99243,-4.29248 -21.97921,-5.67201 l -3.77515,-0.86991 -0.98735,0.79761 c -1.8883,1.52545 -6.29483,4.31608 -8.57205,5.42861 -2.87649,1.40532 -7.71604,3.02621 -11.333,3.7957 -4.07072,0.86603 -11.13906,0.87801 -14.10843,0.0239 -2.75429,-0.79224 -3.96518,-1.442 -5.64118,-3.02709 -2.53482,-2.39734 -3.33722,-5.0823 -2.24047,-7.49698 0.94234,-2.07467 4.28673,-3.99793 8.54618,-4.91466 4.68542,-1.0084 14.25516,-0.93165 22.9689,0.18423 3.20506,0.41044 9.35942,1.38238 10.08451,1.59261 0.25578,0.0742 0.98957,-0.38174 1.82867,-1.13616 1.41886,-1.27567 3.96396,-4.18208 3.95928,-4.52133 -0.003,-0.10158 -1.0432,-0.68034 -2.3151,-1.28612 -3.92502,-1.8694 -5.72289,-4.17764 -5.73673,-7.36524 -0.0138,-3.17719 1.90807,-5.14656 5.03068,-5.15503 2.28624,-0.006 3.96246,0.64463 5.42367,2.10585 1.60523,1.60523 2.22639,3.36078 2.22412,6.2859 0,1.69672 0.0869,2.21547 0.39907,2.3461 0.22045,0.0922 1.83737,0.22853 3.59317,0.30285 8.15425,0.34517 13.78794,-2.78673 14.32208,-7.96194 0.46453,-4.50074 -2.94222,-8.011347 -9.0478,-9.323707 -2.86808,-0.61647 -8.40822,-0.61322 -11.90625,0.007 -7.04397,1.24892 -13.79175,3.669247 -29.36875,10.534177 -21.71991,9.57215 -31.45853,12.88103 -42.7302,14.51838 -3.51349,0.51037 -12.549784,0.42687 -15.742714,-0.14548 -8.81408,-1.57997 -15.60219,-5.64708 -16.842528,-10.09124 l -0.290711,-1.04161 -0.329361,1.10485 C 74.056922,118.39173 61.89809,123.12006 48.808298,122.45756 36.368867,121.82799 25.822478,118.57361 1.5165828,107.8644 -9.362497,103.07107 -14.497713,100.99487 -19.295079,99.450113 c -9.521124,-3.06581 -16.368578,-3.71918 -22.495397,-2.14646 -3.608723,0.92633 -6.496092,3.121307 -7.331638,5.573497 -1.760673,5.1673 1.574453,9.67493 8.196239,11.07775 1.902764,0.4031 6.609596,0.50306 8.443499,0.17932 l 1.058334,-0.18683 0.155315,-2.64219 c 0.162936,-2.77182 0.54283,-4.01621 1.682078,-5.50983 1.933975,-2.53558 6.978788,-3.41059 9.146627,-1.58647 2.506642,2.1092 2.466462,6.38421 -0.08493,9.03667 -1.006612,1.04649 -3.26949,2.44204 -5.012112,3.09105 -0.691224,0.25744 -1.256771,0.57129 -1.256771,0.69746 0,0.12617 1.220391,1.48047 2.711979,3.00955 l 2.711979,2.78016 2.910416,-0.53639 c 9.745266,-1.79609 21.6306438,-2.57545 27.7812508,-1.82171 2.8820532,0.35318 6.4127192,1.34388 8.1402902,2.28414 2.620912,1.42648 4.169629,3.94775 3.765285,6.12978 -0.271475,1.46501 -1.444924,3.40901 -2.768534,4.58651 -2.938433,2.61407 -7.401192,3.80265 -13.3703742,3.56095 -9.2331278,-0.37386 -18.1125348,-3.67147 -25.7989078,-9.58113 l -1.457238,-1.1204 -5.55422,1.28657 c -3.054818,0.70762 -11.685936,2.95209 -19.180259,4.98773 -18.87382,5.12658 -26.111753,6.81771 -35.057292,8.19109 -3.219603,0.4943 -9.738224,1.12688 -10.687904,1.03718 -0.23353,-0.0221 -1.85335,-0.12784 -3.5996,-0.23507 z M 11.433873,133.5302 c 3.837628,-0.8129 6.090447,-2.56579 6.089621,-4.73826 -5.29e-4,-1.2752 -0.776393,-2.4998 -2.103593,-3.32006 -2.621841,-1.62039 -10.2647252,-2.53988 -17.506247,-2.10613 -5.272381,0.3158 -15.150766,1.71383 -15.652086,2.21516 -0.196096,0.19609 3.799822,2.73331 6.215452,3.94652 4.112691,2.06551 7.919736,3.28843 12.411898,3.98699 3.1782138,0.49423 8.2503668,0.50182 10.544955,0.0158 z m 141.953577,-0.26017 c 3.07382,-0.60494 6.7986,-1.82525 9.69862,-3.17747 2.34273,-1.09237 7.62722,-4.32419 7.41603,-4.53539 -0.45654,-0.45653 -10.69914,-1.89618 -15.56364,-2.18755 -6.67956,-0.40008 -14.2884,0.36912 -16.94645,1.71317 -1.84462,0.93274 -2.86081,2.32899 -2.86081,3.93079 0,1.83272 2.51844,3.76256 5.92714,4.54191 2.12969,0.48692 9.24113,0.32226 12.32911,-0.28546 z M -25.356765,112.85255 c 2.916098,-1.01896 4.672791,-3.82974 3.468291,-5.54941 -0.552828,-0.78927 -1.821828,-1.24503 -2.902252,-1.04234 -2.13052,0.39969 -4.491397,4.80197 -3.692173,6.88472 0.181086,0.4719 1.214308,0.37508 3.126134,-0.29297 z m 206.393175,-1.17406 c 0,-1.46986 -0.12248,-1.93279 -0.80198,-3.03159 -1.62975,-2.63534 -3.90014,-3.22137 -5.50823,-1.42177 -0.60063,0.67216 -0.72157,1.00558 -0.59476,1.63963 0.39601,1.98007 2.18083,3.56048 4.86133,4.30461 1.96739,0.54616 2.04364,0.49053 2.04364,-1.49088 z"
       id="path39" />
  </g>
</svg>
