<?xml version="1.0" encoding="UTF-8" standalone="no"?>
<!-- Created with Inkscape (http://www.inkscape.org/) -->

<svg
   width="400.83673mm"
   height="44.571846mm"
   viewBox="0 0 400.83673 44.571846"
   version="1.1"
   id="svg464"
   sodipodi:docname="cul-de-lampe-5.svg"
   inkscape:version="1.1 (ce6663b3b7, 2021-05-25)"
   xmlns:inkscape="http://www.inkscape.org/namespaces/inkscape"
   xmlns:sodipodi="http://sodipodi.sourceforge.net/DTD/sodipodi-0.dtd"
   xmlns="http://www.w3.org/2000/svg"
   xmlns:svg="http://www.w3.org/2000/svg">
  <sodipodi:namedview
     id="namedview466"
     pagecolor="#ffffff"
     bordercolor="#666666"
     borderopacity="1.0"
     inkscape:pageshadow="2"
     inkscape:pageopacity="0.0"
     inkscape:pagecheckerboard="0"
     inkscape:document-units="mm"
     showgrid="false"
     inkscape:zoom="0.75187991"
     inkscape:cx="729.5048"
     inkscape:cy="-79.134978"
     inkscape:window-width="1848"
     inkscape:window-height="1016"
     inkscape:window-x="72"
     inkscape:window-y="27"
     inkscape:window-maximized="1"
     inkscape:current-layer="layer1"
     fit-margin-top="0"
     fit-margin-left="0"
     fit-margin-right="0"
     fit-margin-bottom="0" />
  <defs
     id="defs461" />
  <g
     inkscape:label="Layer 1"
     inkscape:groupmode="layer"
     id="layer1"
     transform="translate(339.06528,-123.39891)">
    <path
       style="fill:#000000;stroke-width:0.264583"
       d="m -326.53131,167.81724 c -3.26776,-0.51626 -5.73397,-1.69661 -8.01291,-3.83504 -3.08431,-2.89414 -4.52741,-6.33489 -4.52104,-10.77947 0.005,-3.20827 0.45637,-5.35171 1.69142,-8.02481 2.24756,-4.86455 5.49287,-8.11654 10.66913,-10.69108 4.58611,-2.28102 9.72801,-3.33695 15.1522,-3.11162 4.75731,0.19762 6.87058,0.68724 15.61042,3.61674 4.29286,1.43893 8.87677,2.82302 10.18646,3.07577 3.14547,0.60702 8.68242,0.56646 11.77395,-0.0862 l 2.24896,-0.47482 0.18028,-2.24896 c 0.30086,-3.7533 1.69793,-6.80647 4.25964,-9.30905 3.67447,-3.58966 9.75709,-3.34459 12.0005,0.48351 2.27812,3.8873 -0.94271,8.19356 -9.46613,12.65627 l -2.56589,1.34345 0.93632,1.77368 c 1.33743,2.53351 4.2991,5.29671 7.23687,6.7519 4.5208,2.23933 11.06512,3.29164 16.9856,2.73124 8.33417,-0.78886 15.11729,-2.8826 28.37656,-8.75899 12.97304,-5.74954 18.76056,-7.70835 24.99619,-8.46006 8.64086,-1.04168 17.07677,1.07895 23.39797,5.88181 1.00512,0.76369 1.96334,1.49182 2.12937,1.61805 0.18452,0.14029 1.31076,-0.14835 2.89709,-0.7425 3.35138,-1.25524 8.71081,-2.61253 12.72521,-3.2227 4.37933,-0.66563 13.58126,-0.67448 17.85938,-0.0172 4.23264,0.65032 7.99764,1.57774 12.11548,2.98438 l 3.51652,1.20123 0.90633,-0.79577 c 5.04026,-4.42541 12.79983,-7.1763 20.23875,-7.17498 7.4536,0.001 14.1324,1.9332 28.21339,8.16086 3.90967,1.72914 8.4777,3.68328 10.15119,4.34254 9.98443,3.93326 18.91221,5.65485 25.88961,4.99242 9.05227,-0.85941 15.34843,-4.30437 18.10433,-9.90582 l 0.67096,-1.36373 -2.58212,-1.35196 c -8.44998,-4.42424 -11.70517,-8.784 -9.442,-12.64583 2.11685,-3.61212 7.61642,-4.07356 11.53744,-0.96805 1.34528,1.06548 3.31272,3.99566 4.00103,5.95882 0.3061,0.87313 0.63405,2.59954 0.72877,3.83646 l 0.17219,2.24896 2.24896,0.47908 c 3.07557,0.65517 8.60562,0.69374 11.77396,0.0821 1.30968,-0.25282 5.89359,-1.63698 10.18645,-3.07591 8.49469,-2.84733 10.78201,-3.39123 15.24172,-3.62431 9.82147,-0.51331 19.36044,3.492 24.04261,10.09526 2.68928,3.79266 3.84472,7.29253 3.83961,11.63035 -0.005,4.3532 -1.07402,7.21433 -3.77852,10.11392 -1.91987,2.05837 -3.62391,3.16065 -6.07568,3.93009 -2.59154,0.81331 -4.98408,1.02307 -7.59385,0.66574 -3.05565,-0.41838 -5.26307,-1.15988 -7.06242,-2.37237 -2.19303,-1.47776 -2.84255,-2.55029 -2.95622,-4.88145 -0.0503,-1.03172 0.0376,-2.21082 0.19526,-2.62023 0.24459,-0.63494 0.41318,-0.73219 1.14681,-0.66146 l 0.86006,0.0829 0.13229,1.8655 c 0.15084,2.12699 0.59542,2.98002 2.0573,3.94744 2.42278,1.60334 7.19108,2.418 10.13774,1.73205 5.71061,-1.32937 9.34876,-6.71784 8.90519,-13.18944 -0.44495,-6.4916 -5.09939,-11.94609 -12.58697,-14.7505 -3.6408,-1.36363 -6.03851,-1.78092 -10.23305,-1.78092 -4.49802,0 -6.38826,0.36736 -12.17083,2.36535 -2.32834,0.80448 -6.07881,2.1007 -8.33438,2.88049 -5.80046,2.00532 -7.78055,2.37888 -12.56771,2.37098 -3.21918,-0.005 -4.35924,-0.11343 -6.03628,-0.57244 -1.48447,-0.4063 -2.09746,-0.479 -2.17371,-0.25782 -1.75472,5.09025 -4.42502,8.57107 -8.42727,10.98522 -7.64744,4.61292 -20.63422,5.1878 -32.93888,1.45809 -4.63844,-1.40598 -8.61761,-2.98723 -17.89261,-7.11024 -17.16328,-7.62958 -21.58523,-8.98949 -29.23645,-8.99127 -4.72763,-0.001 -5.76644,0.18175 -9.74191,1.71486 -2.20681,0.85104 -6.26538,3.37515 -6.26538,3.89658 0,0.16752 0.89296,0.93007 1.98437,1.69457 2.64319,1.85148 4.79907,4.04093 5.7136,5.80257 0.59192,1.14023 0.74977,1.79999 0.75631,3.16081 0.0114,2.3898 -0.79502,3.81531 -2.76926,4.89479 -1.27077,0.69482 -1.71548,0.79375 -3.56836,0.79375 -1.78162,0 -2.35495,-0.11702 -3.62217,-0.73931 -4.77732,-2.346 -6.84411,-8.69304 -4.39854,-13.50769 0.28435,-0.5598 0.46358,-1.07126 0.39825,-1.13657 -0.26709,-0.26711 -5.52066,-1.96927 -7.98795,-2.5881 -5.37821,-1.34895 -7.51002,-1.58552 -14.2875,-1.58552 -6.78301,0 -8.92807,0.23846 -14.2875,1.58827 -2.34358,0.59025 -7.73665,2.33404 -7.98423,2.58161 -0.0512,0.0513 0.21271,0.76134 0.58658,1.57798 2.21553,4.83935 0.12923,10.75205 -4.61616,13.08253 -1.23963,0.60878 -1.82364,0.7268 -3.59661,0.7268 -1.84901,0 -2.29482,-0.0987 -3.52554,-0.78044 -1.98234,-1.09811 -2.83159,-2.58455 -2.80414,-4.9081 0.0363,-3.07356 2.05901,-5.87923 6.46197,-8.96338 1.09141,-0.7645 1.98438,-1.52944 1.98438,-1.69986 0,-0.49755 -3.4613,-2.73453 -5.65547,-3.65504 -3.37608,-1.41634 -5.41722,-1.86318 -9.20094,-2.01423 -7.3823,-0.29471 -13.20304,1.41079 -29.32901,8.59354 -9.78916,4.36024 -12.97911,5.65804 -17.43015,7.09128 -15.27492,4.91854 -30.07435,3.59052 -37.63321,-3.377 -2.17552,-2.00531 -4.02668,-5.00954 -5.20763,-8.45138 -0.13755,-0.40088 -0.31225,-0.39154 -2.08644,0.11159 -1.56263,0.44314 -2.72776,0.5529 -6.03736,0.56873 -4.91787,0.0235 -6.78766,-0.32409 -12.7,-2.36104 -2.25557,-0.77711 -6.00604,-2.07113 -8.33437,-2.87561 -5.78257,-1.99799 -7.67283,-2.36535 -12.17084,-2.36535 -7.45463,0 -13.74791,2.37302 -18.32839,6.91113 -7.69779,7.62658 -5.19264,20.57351 4.41355,22.80973 3.70194,0.86177 9.40992,-0.48904 11.23581,-2.65899 0.79153,-0.94068 0.92699,-1.39501 1.02295,-3.43079 0.0675,-1.43206 0.0823,-1.45653 0.92865,-1.53813 0.72177,-0.0696 0.90258,0.0289 1.12448,0.61253 0.38307,1.00756 0.32429,3.7097 -0.10294,4.73222 -0.83311,1.9939 -3.47507,3.78187 -6.87192,4.65064 -2.35475,0.60225 -5.85119,0.85268 -7.73953,0.55435 z m 160.48826,-11.34409 c 2.34079,-1.08927 3.97204,-4.04069 3.57854,-6.47467 -0.24251,-1.50006 -1.07543,-3.36426 -1.50177,-3.3612 -1.35342,0.01 -5.90976,3.78944 -6.81013,5.64935 -0.59703,1.2333 -0.71004,2.80944 -0.26152,3.64751 0.67456,1.26043 2.92316,1.50308 4.99488,0.53901 z m 58.60377,0.3705 c 2.43745,-1.01842 1.87976,-4.29291 -1.21986,-7.16261 -1.57035,-1.45387 -3.99899,-3.03891 -4.6637,-3.04376 -0.3901,-0.003 -1.21468,1.78801 -1.47905,3.21226 -0.54626,2.94281 1.74736,6.37003 4.73009,7.06792 1.49193,0.34908 1.62965,0.34522 2.63252,-0.0738 z m -157.32897,-22.18882 c 2.801,-1.59165 4.84853,-3.31778 5.52626,-4.65879 0.53675,-1.06205 0.55251,-1.21833 0.19293,-1.91367 -0.9495,-1.83614 -3.109,-2.03996 -5.35743,-0.50564 -2.18165,1.48875 -3.24095,3.5028 -3.60491,6.854 l -0.18317,1.68656 0.74447,-0.18078 c 0.40946,-0.0994 1.61629,-0.67618 2.68185,-1.28168 z m 255.63247,0.93361 c -0.005,-1.13238 -0.60155,-3.99448 -1.03883,-4.983 -0.97504,-2.20429 -3.55534,-4.06109 -5.66023,-4.07317 -1.28617,-0.007 -2.55934,1.14445 -2.55934,2.31539 0,1.67639 2.69613,4.17458 6.74687,6.25158 2.08704,1.07011 2.51442,1.15336 2.51153,0.4892 z"
       id="path690" />
  </g>
</svg>
