<?xml version="1.0" encoding="UTF-8" standalone="no"?>
<!-- Created with Inkscape (http://www.inkscape.org/) -->

<svg
   width="398.56906mm"
   height="44.916241mm"
   viewBox="0 0 398.56906 44.916241"
   version="1.1"
   id="svg121"
   inkscape:version="1.1 (ce6663b3b7, 2021-05-25)"
   sodipodi:docname="cul-de-lampe-3.svg"
   xmlns:inkscape="http://www.inkscape.org/namespaces/inkscape"
   xmlns:sodipodi="http://sodipodi.sourceforge.net/DTD/sodipodi-0.dtd"
   xmlns="http://www.w3.org/2000/svg"
   xmlns:svg="http://www.w3.org/2000/svg">
  <sodipodi:namedview
     id="namedview123"
     pagecolor="#ffffff"
     bordercolor="#666666"
     borderopacity="1.0"
     inkscape:pageshadow="2"
     inkscape:pageopacity="0.0"
     inkscape:pagecheckerboard="0"
     inkscape:document-units="mm"
     showgrid="false"
     fit-margin-top="0"
     fit-margin-left="0"
     fit-margin-right="0"
     fit-margin-bottom="0"
     inkscape:zoom="0.37593996"
     inkscape:cx="695.5898"
     inkscape:cy="315.20991"
     inkscape:window-width="1848"
     inkscape:window-height="1016"
     inkscape:window-x="72"
     inkscape:window-y="27"
     inkscape:window-maximized="1"
     inkscape:current-layer="layer1" />
  <defs
     id="defs118" />
  <g
     inkscape:label="Layer 1"
     inkscape:groupmode="layer"
     id="layer1"
     transform="translate(96.179081,-96.834539)">
    <path
       style="fill:#000000;stroke-width:0.264583"
       d="m -60.213347,141.54456 c -10.674255,-0.78542 -21.298957,-3.65346 -30.41345,-8.20983 -3.528587,-1.76396 -3.96951,-2.05785 -3.96951,-2.64584 0,-0.93155 1.067657,-0.99905 2.702087,-0.17082 3.30274,1.67362 15.314242,5.44677 21.771872,6.83915 2.560727,0.55214 3.440668,0.59891 11.244792,0.59773 4.946439,-7.9e-4 9.731749,-0.13839 11.509376,-0.33104 12.708305,-1.37726 25.570021,-4.16831 46.460185,-10.08209 16.922245,-4.79049 24.798291,-6.58449 35.428357,-8.06983 8.080796,-1.12914 20.954206,-2.25656 21.551476,-1.88743 0.15216,0.094 0.27665,0.46455 0.27665,0.82337 0,0.83655 -0.56987,1.04536 -3.43958,1.26028 -5.38214,0.40307 -18.569489,2.27758 -25.664587,3.64808 -3.606269,0.69659 -20.589654,5.42165 -37.438543,10.41604 -11.17577,3.31274 -25.585516,6.396 -34.528125,7.388 -4.549846,0.5047 -11.726283,0.70123 -15.491,0.42423 z m 315.263927,-0.0401 c -9.59215,-0.6409 -23.95344,-3.53445 -38.62917,-7.78312 -34.67198,-10.03765 -34.21941,-9.9175 -42.73021,-11.34393 -5.438,-0.91142 -14.89461,-2.17879 -19.05,-2.55306 -4.24402,-0.38226 -4.73723,-0.51355 -4.85105,-1.29133 -0.15838,-1.08247 0.18518,-1.14207 4.75787,-0.82532 18.44479,1.27765 29.92559,3.42705 52.34839,9.80051 20.57181,5.84734 33.94948,8.75297 46.56667,10.11429 1.7412,0.18786 6.60773,0.33132 11.37708,0.33538 7.76336,0.007 8.54284,-0.036 11.37709,-0.62227 6.11764,-1.26542 17.16812,-4.70008 21.40516,-6.65305 2.10362,-0.96962 3.0688,-0.97513 3.0688,-0.0175 0,0.53724 -0.4163,0.85925 -2.64584,2.04658 -9.04944,4.81925 -20.86192,8.07012 -32.01006,8.8094 -4.67635,0.31011 -6.12841,0.30792 -10.98473,-0.0166 z M -62.449431,131.0442 c -0.509323,-0.049 -2.295261,-0.21571 -3.96875,-0.37035 -6.452598,-0.59629 -13.324171,-2.34013 -18.1564,-4.60766 -4.496046,-2.10979 -7.354168,-4.38965 -9.383183,-7.48478 -1.779342,-2.71427 -2.227046,-4.16688 -2.221262,-7.2071 0.0041,-2.16056 0.10369,-2.72601 0.709099,-4.02645 3.114064,-6.68915 12.674818,-9.67762 20.879301,-6.52638 1.955363,0.75103 4.788956,2.48984 5.460465,3.35078 0.486196,0.62335 0.403995,1.48129 -0.21764,2.27158 -0.725779,0.92268 -1.589374,0.89009 -3.05035,-0.11508 -5.750153,-3.95621 -13.001183,-3.76848 -17.21538,0.44572 -4.681402,4.68141 -2.233258,10.86587 5.858696,14.80016 9.452882,4.59597 29.849398,6.52461 46.073653,4.3566 7.419915,-0.9915 16.199348,-2.97055 32.952866,-7.42819 32.60039,-8.67406 54.120874,-12.15088 75.232014,-12.15437 11.64402,-0.002 18.23775,1.09669 24.20673,4.03321 2.28175,1.12254 3.13149,1.72056 4.77677,3.36174 1.391382,1.38791 2.236912,2.50202 2.774422,3.65567 l 0.77313,1.65937 0.90038,-1.79166 c 1.22821,-2.44401 4.00194,-5.13806 6.80665,-6.6111 5.7926,-3.0423 13.10153,-4.30918 24.84942,-4.30723 21.19641,0.004 42.75154,3.49581 75.67084,12.25995 22.55401,6.00459 30.20287,7.49836 41.53352,8.11118 12.12951,0.65604 27.88381,-1.26791 35.32794,-4.31432 4.39332,-1.79791 7.83608,-4.53291 9.19504,-7.30472 1.8452,-3.76355 0.10178,-8.04511 -4.15402,-10.20168 -4.56649,-2.31403 -9.99971,-1.78459 -14.67146,1.42967 -1.46098,1.00517 -2.32458,1.03776 -3.05035,0.11508 -0.77166,-0.981 -0.69067,-1.81782 0.25767,-2.66281 4.04403,-3.60323 10.63631,-5.11283 16.36133,-3.74667 3.82554,0.91289 7.79524,3.89598 9.32815,7.00979 1.55057,3.14966 1.28858,7.01193 -0.71921,10.60218 -4.10612,7.34246 -14.9833,12.02244 -30.90797,13.29836 -4.37951,0.3509 -17.87003,0.3486 -21.98814,-0.004 -10.10335,-0.86444 -19.34925,-2.75238 -35.58646,-7.26649 -21.9546,-6.10359 -42.26232,-10.27754 -62.30938,-12.80673 -9.23396,-1.16498 -19.00317,-1.48926 -25.00312,-0.82995 -11.7144,1.28724 -19.08713,5.82595 -19.14787,11.78758 -0.0204,1.99736 0.61645,3.36923 2.04395,4.4033 1.64993,1.19521 3.57378,1.64702 6.12998,1.43961 2.37138,-0.19242 2.89354,0.0408 2.72603,1.21765 -0.14169,0.99529 -1.34705,1.38406 -4.3198,1.39327 -2.36365,0.007 -2.82176,-0.0728 -4.29533,-0.75135 -1.83648,-0.84567 -3.82615,-2.76269 -4.47221,-4.30894 l -0.40149,-0.9609 -0.74482,1.30413 c -1.05174,1.84154 -2.25562,2.94954 -4.241362,3.90361 -1.58,0.75912 -1.93485,0.82543 -4.36562,0.81577 -2.97246,-0.0118 -4.17828,-0.40138 -4.31979,-1.39559 -0.16751,-1.17683 0.35464,-1.41007 2.72601,-1.21765 4.99907,0.40562 8.243102,-1.9102 8.184842,-5.84291 -0.0824,-5.56142 -6.386412,-9.86116 -16.872822,-11.50832 -3.35625,-0.52719 -10.22879,-0.7509 -15.38283,-0.50075 -6.17314,0.29962 -11.961,0.95941 -21.96042,2.5034 -18.320397,2.82881 -33.275256,6.07844 -52.255208,11.35485 -16.129871,4.48409 -25.142392,6.33109 -35.454167,7.26589 -2.730108,0.24749 -18.59189,0.32624 -20.902084,0.10378 z m 4.233334,-10.82956 c -4.60706,-0.31045 -8.104172,-0.71178 -8.409369,-0.96507 -0.191897,-0.15926 -0.313058,-0.64737 -0.269247,-1.0847 l 0.07966,-0.79513 7.9375,-0.0432 c 10.24717,-0.0558 18.592067,-0.95911 33.072917,-3.58003 6.029566,-1.09131 8.09955,-1.58519 23.415626,-5.5867 25.828112,-6.74791 36.726919,-9.10346 48.947919,-10.57906 6.61919,-0.79923 20.03798,-0.87321 25.92917,-0.14295 9.44938,1.17131 18.66621,3.35395 27.19091,6.4391 l 3.246131,1.17479 4.61534,-1.59093 c 18.5395,-6.39065 35.50276,-8.06269 55.09555,-5.43066 11.64969,1.56497 21.56828,3.81231 52.46249,11.88685 10.08197,2.63503 18.21624,4.28567 27.97794,5.67739 10.28332,1.46609 13.63646,1.73047 21.96536,1.73184 7.14055,0.001 7.75367,0.0373 7.88919,0.4643 0.20942,0.65999 -0.10369,1.4709 -0.62989,1.6313 -2.54061,0.77448 -17.88594,1.05773 -24.39427,0.45028 -13.55288,-1.26495 -23.09662,-3.13309 -47.49271,-9.29647 -26.53432,-6.70359 -35.54024,-8.52173 -48.68333,-9.82836 -4.52975,-0.45032 -18.14629,-0.45114 -21.96042,-0.001 -8.19391,0.96635 -15.83727,2.72353 -22.73361,5.22635 l -4.11275,1.4926 -2.84869,-1.06092 c -16.032331,-5.97079 -31.834791,-7.48097 -51.796621,-4.95002 -10.651641,1.35052 -17.337673,2.77567 -42.333334,9.02349 -24.315376,6.07778 -34.412643,8.09085 -46.302084,9.23113 -4.12728,0.39584 -14.946051,0.70243 -17.859375,0.50612 z"
       id="path21" />
  </g>
</svg>
