<?xml version="1.0" encoding="UTF-8" standalone="no"?>
<!-- Created with Inkscape (http://www.inkscape.org/) -->

<svg
   width="399.51733mm"
   height="48.823349mm"
   viewBox="0 0 399.51733 48.823349"
   version="1.1"
   id="svg464"
   sodipodi:docname="cul-de-lampe-6.svg"
   inkscape:version="1.1 (ce6663b3b7, 2021-05-25)"
   xmlns:inkscape="http://www.inkscape.org/namespaces/inkscape"
   xmlns:sodipodi="http://sodipodi.sourceforge.net/DTD/sodipodi-0.dtd"
   xmlns="http://www.w3.org/2000/svg"
   xmlns:svg="http://www.w3.org/2000/svg">
  <sodipodi:namedview
     id="namedview466"
     pagecolor="#ffffff"
     bordercolor="#666666"
     borderopacity="1.0"
     inkscape:pageshadow="2"
     inkscape:pageopacity="0.0"
     inkscape:pagecheckerboard="0"
     inkscape:document-units="mm"
     showgrid="false"
     inkscape:zoom="0.37593996"
     inkscape:cx="706.2298"
     inkscape:cy="-19.949994"
     inkscape:window-width="1848"
     inkscape:window-height="1016"
     inkscape:window-x="72"
     inkscape:window-y="27"
     inkscape:window-maximized="1"
     inkscape:current-layer="layer1"
     fit-margin-top="0"
     fit-margin-left="0"
     fit-margin-right="0"
     fit-margin-bottom="0" />
  <defs
     id="defs461" />
  <g
     inkscape:label="Layer 1"
     inkscape:groupmode="layer"
     id="layer1"
     transform="translate(436.2326,-234.58359)">
    <path
       style="fill:#000000;stroke-width:0.264583"
       d="m -336.82998,282.85369 c -3.68766,-0.96611 -6.79282,-3.138 -9.25155,-6.47097 l -1.16707,-1.58204 -5.46685,-0.0244 c -4.69088,-0.0209 -5.77406,-0.10502 -7.63111,-0.59233 -2.69512,-0.70724 -5.15171,-1.855 -7.20406,-3.36585 -6.79145,-4.99958 -8.7112,-16.25037 -4.05567,-23.76843 0.34644,-0.55945 0.57038,-1.07669 0.49765,-1.14942 -0.22047,-0.22047 -5.69484,1.23127 -8.37263,2.22033 -4.55877,1.68381 -11.01992,5.24745 -12.52066,6.90575 -0.46685,0.51586 -0.4541,0.56323 0.4816,1.78906 2.70056,3.53793 3.66523,7.68722 2.36968,10.19255 -0.53409,1.03282 -2.09121,2.29257 -3.22182,2.60654 -1.40059,0.38895 -4.16204,0.34824 -5.17511,-0.0763 -4.33459,-1.81643 -4.9456,-6.73543 -1.499,-12.06799 0.58014,-0.89759 0.98636,-1.74271 0.90272,-1.87805 -0.29385,-0.47546 -4.71319,-2.93594 -6.89707,-3.83996 -4.03416,-1.66993 -6.26225,-2.07377 -11.48201,-2.08108 -3.91338,-0.005 -4.98722,0.0838 -6.93632,0.5766 -3.3622,0.8501 -5.6072,2.02318 -7.55592,3.9482 -3.00087,2.96438 -3.72861,6.01916 -2.18979,9.19184 0.77498,1.59782 3.67485,4.7174 5.23514,5.63179 0.9483,0.55574 1.14231,0.79937 1.07634,1.3516 -0.11758,0.98416 -1.21866,1.28309 -2.51596,0.68305 -1.71597,-0.79369 -4.64025,-3.98719 -5.79847,-6.33231 -0.9966,-2.01787 -1.02642,-2.15958 -1.02462,-4.86878 0.002,-2.55888 0.065,-2.91116 0.7634,-4.24562 1.64799,-3.14912 5.69563,-6.17365 10.21496,-7.63296 5.92155,-1.9121 14.22035,-1.81537 20.4266,0.23807 2.60742,0.86271 5.75355,2.38455 7.84425,3.79441 0.77861,0.52506 1.46844,0.95464 1.53295,0.95464 0.0645,0 0.83158,-0.59443 1.70459,-1.32096 3.24223,-2.69821 8.60687,-5.43958 14.13223,-7.22167 3.16479,-1.02074 8.25143,-2.15935 10.98021,-2.45784 1.26208,-0.13806 2.02353,-0.39571 2.86107,-0.9681 3.59665,-2.45801 9.87544,-4.62398 16.73415,-5.77271 4.23049,-0.70854 12.28163,-0.84619 16.38811,-0.28019 14.22087,1.96009 27.61385,7.11866 51.99062,20.02522 14.38229,7.61486 22.15017,10.5741 28.575,10.88588 3.18245,0.15444 5.15565,-0.19467 7.71207,-1.36445 4.03251,-1.84522 5.82446,-6.37728 4.03393,-10.20226 -0.92133,-1.96817 -1.78052,-2.9225 -3.45588,-3.83856 -1.97298,-1.07879 -4.40644,-1.08537 -6.75937,-0.0183 -1.903,0.86303 -2.45679,0.7763 -2.45679,-0.38477 0,-0.74856 0.14275,-0.88338 1.66732,-1.57465 5.81879,-2.63837 11.62443,-0.99215 14.02846,3.97783 l 0.88191,1.82322 0.61013,-1.47206 c 2.11695,-5.10753 8.31083,-7.00733 14.1758,-4.34802 1.71969,0.77974 2.14468,1.31761 1.69904,2.1503 -0.35987,0.67241 -0.69002,0.6456 -2.53746,-0.20613 -2.245,-1.03501 -4.71411,-1.01602 -6.66601,0.0513 -2.53484,1.38602 -4.1127,4.07731 -4.1127,7.01488 0,6.17336 6.92517,9.71374 15.74459,8.04917 5.78273,-1.09143 13.49483,-4.33267 25.75996,-10.82641 23.25476,-12.31217 36.54049,-17.45581 50.66771,-19.61626 4.53104,-0.69292 12.53077,-0.63118 17.03993,0.13151 7.54372,1.27597 13.02168,3.1623 16.92193,5.82705 0.78999,0.53975 1.57493,0.80088 2.81522,0.93655 5.20584,0.56946 12.99663,2.82187 17.83861,5.15736 2.8911,1.39451 7.02024,4.03286 8.07053,5.15674 0.35279,0.37751 0.73133,0.68637 0.84119,0.68637 0.10985,0 0.92498,-0.48171 1.81136,-1.07046 5.2523,-3.48866 11.4495,-5.27953 18.26956,-5.27953 5.45306,0 9.52942,0.89962 13.62604,3.00713 2.54119,1.30733 5.26883,3.86829 6.3785,5.98871 0.69834,1.33446 0.76168,1.68674 0.7634,4.24562 0.003,2.7092 -0.028,2.85091 -1.02463,4.86878 -1.7228,3.48827 -5.76924,7.11115 -7.38087,6.6083 -1.37101,-0.42777 -1.30077,-1.46466 0.15711,-2.31904 1.54798,-0.90716 4.44881,-4.03169 5.22081,-5.62339 0.38741,-0.79874 0.67067,-1.93783 0.73647,-2.96152 0.0933,-1.45245 0.003,-1.87743 -0.72297,-3.34927 -1.54734,-3.14308 -4.90411,-5.55953 -9.46129,-6.81095 -1.78538,-0.49026 -2.77622,-0.56989 -7.10195,-0.57074 -4.60668,-8e-4 -5.24835,0.0579 -7.67291,0.70336 -2.71137,0.72181 -8.79687,3.55248 -10.28578,4.78444 l -0.76079,0.62949 0.79135,1.15423 c 3.19238,4.65637 3.44151,8.77973 0.68831,11.3928 -1.10106,1.04501 -2.5023,1.53558 -4.38137,1.53391 -2.24499,-0.002 -3.34259,-0.34907 -4.65413,-1.4717 -2.71623,-2.32501 -2.27861,-7.03728 1.06482,-11.46561 l 1.09194,-1.44629 -1.152,-0.99219 c -1.70987,-1.47265 -6.08843,-3.98729 -9.38985,-5.39264 -3.87816,-1.65087 -11.23601,-3.75494 -10.93131,-3.12594 0.0574,0.1186 0.60076,1.22767 1.20734,2.4646 1.4758,3.00933 2.0369,5.86905 1.84081,9.38189 -0.46077,8.25459 -5.41961,14.15224 -13.73063,16.3301 -1.89619,0.49688 -2.95095,0.57951 -7.66556,0.60056 l -5.46687,0.0244 -1.16708,1.58204 c -1.55488,2.10776 -3.71999,4.04601 -5.69605,5.09924 -8.13673,4.33683 -20.13112,1.00613 -23.73662,-6.59137 -1.18809,-2.50356 -1.61843,-5.39138 -1.225,-8.22013 1.42778,-10.26535 9.47788,-18.55107 21.89676,-22.53767 4.91943,-1.57919 12.0568,-2.81282 16.27399,-2.81282 1.98652,0 1.78417,-0.30103 -0.59227,-0.88112 -7.37594,-1.80048 -16.1227,-1.94727 -24.32105,-0.40815 -12.08461,2.26869 -22.48408,6.45559 -45.37604,18.26866 -16.92698,8.73493 -22.30727,10.87372 -29.10241,11.56891 -7.71561,0.78936 -14.51474,-2.14697 -16.95866,-7.32392 l -0.78462,-1.66207 -0.76177,1.66207 c -1.47869,3.22631 -5.0709,5.84333 -9.54254,6.952 -3.84017,0.95211 -9.55333,0.48368 -14.86924,-1.21916 -4.95327,-1.58669 -7.75079,-2.90075 -27.59638,-12.96276 -18.63767,-9.44961 -28.30025,-13.19566 -39.42292,-15.28377 -8.19835,-1.53912 -16.94512,-1.39233 -24.32106,0.40815 -0.95722,0.23366 -1.83493,0.50892 -1.95047,0.61169 -0.11553,0.10277 1.19808,0.26257 2.91915,0.35511 7.16638,0.38534 15.57823,2.4775 21.03164,5.23091 4.02967,2.03456 8.39057,5.56795 10.7712,8.72728 6.23369,8.27273 6.61476,17.59727 0.94629,23.15523 -2.07271,2.03231 -5.56734,3.83122 -8.65799,4.45684 -2.76612,0.55992 -6.47861,0.50886 -8.88747,-0.12222 z m 8.54558,-5.036 c 2.71695,-0.84299 4.28096,-1.71907 6.00546,-3.36397 1.9424,-1.85273 2.83344,-3.63298 3.03768,-6.06907 0.3835,-4.57448 -2.3085,-10.57402 -6.44741,-14.369 -4.62749,-4.24296 -11.23636,-7.16223 -20.19052,-8.91856 -3.26258,-0.63994 -4.14658,-0.70207 -10.20908,-0.71751 l -6.6372,-0.0169 -1.11915,0.77556 c -2.70692,1.8759 -5.14874,5.5791 -5.82141,8.8286 -1.26619,6.11669 1.91828,12.3422 7.72724,15.10644 3.03917,1.44621 4.48416,1.72912 8.88259,1.7391 l 3.80319,0.009 0.0333,-3.175 c 0.0315,-3.00183 0.0766,-3.25326 0.82702,-4.60981 1.70386,-3.07996 5.8265,-4.73938 9.94561,-4.00325 3.72721,0.66608 5.45076,2.68586 5.20639,6.10122 -0.15505,2.16698 -0.97141,3.74179 -2.65476,5.12116 -1.33546,1.09431 -4.46515,2.63977 -6.29601,3.10901 -0.71854,0.18416 -1.30644,0.45441 -1.30644,0.60056 0,0.14616 0.63633,0.88208 1.41407,1.63538 1.41088,1.36654 3.19318,2.24976 5.59739,2.77377 1.75011,0.38145 6.13901,0.0837 8.20208,-0.55637 z m 191.59725,0.56165 c 2.40702,-0.45648 4.27366,-1.33111 5.78104,-2.70877 0.80084,-0.73193 1.45608,-1.47274 1.45608,-1.64623 0,-0.1735 -0.56554,-0.46518 -1.25677,-0.64819 -1.74265,-0.46137 -5.29007,-2.2234 -6.48255,-3.21994 -1.56049,-1.30407 -2.36696,-2.9126 -2.51788,-5.02204 -0.1083,-1.51358 -0.0309,-2.01464 0.47175,-3.05291 1.16496,-2.40649 4.64135,-3.69602 8.26352,-3.06525 3.44972,0.60074 5.30945,1.83865 6.55098,4.36054 0.75829,1.54033 0.84142,1.94118 0.81264,3.9187 -0.0177,1.21156 -0.0593,2.5005 -0.0926,2.8643 l -0.0605,0.66146 3.83645,-0.009 c 4.43233,-0.01 5.87137,-0.29038 8.90993,-1.73623 4.82039,-2.29371 8.03187,-7.20637 8.01949,-12.2675 -0.0111,-4.48835 -2.43893,-9.12768 -6.10759,-11.6704 l -1.119,-0.77557 -6.37275,0.002 c -5.49577,0.002 -6.83922,0.086 -9.7622,0.61269 -13.31331,2.39903 -21.86091,7.59858 -25.63736,15.59533 -2.50195,5.29791 -2.31881,9.88734 0.52065,13.0486 3.37288,3.7551 9.56651,5.74812 14.78671,4.75813 z m -206.90826,-8.58759 c 3.06007,-0.8148 6.97664,-3.5987 6.97664,-4.959 0,-1.36925 -2.42767,-2.87528 -4.63485,-2.87528 -2.33344,0 -4.24714,1.70847 -4.72402,4.21742 -0.21024,1.1061 0.31645,3.98588 0.72819,3.98152 0.16297,-0.002 0.90729,-0.16582 1.65404,-0.36466 z m 216.36426,-0.3598 c 0.41577,-2.09684 0.44471,-2.72184 0.17277,-3.73166 -0.33366,-1.23915 -1.56546,-2.78189 -2.68237,-3.35946 -2.21599,-1.14593 -6.58844,0.50784 -6.58844,2.49192 0,1.3227 3.88591,4.12532 6.85583,4.9446 1.83737,0.50685 2.08068,0.46937 2.24221,-0.3454 z m -265.82305,-2.77813 c 1.28667,-1.41264 1.47656,-2.99731 0.59267,-4.94573 -0.58221,-1.2834 -2.25007,-3.45479 -2.65364,-3.45479 -0.48103,0 -2.32912,3.21656 -2.63602,4.58796 -0.25665,1.14681 -0.23968,1.54134 0.10139,2.35762 0.78117,1.86962 3.44869,2.71414 4.5956,1.45494 z m 316.47062,0.0594 c 1.29416,-0.78904 1.77581,-2.13374 1.38682,-3.87193 -0.30692,-1.3714 -2.15501,-4.58796 -2.63602,-4.58796 -0.40357,0 -2.07145,2.17139 -2.65364,3.45479 -1.61936,3.56961 0.91871,6.82447 3.90284,5.0051 z"
       id="path929" />
  </g>
</svg>
