<?xml version="1.0" encoding="UTF-8" standalone="no"?>
<!-- Created with Inkscape (http://www.inkscape.org/) -->

<svg
   width="406.90802mm"
   height="55.001862mm"
   viewBox="0 0 406.90802 55.001862"
   version="1.1"
   id="svg85"
   inkscape:version="1.1 (ce6663b3b7, 2021-05-25)"
   sodipodi:docname="cul-de-lampe-2.svg"
   xmlns:inkscape="http://www.inkscape.org/namespaces/inkscape"
   xmlns:sodipodi="http://sodipodi.sourceforge.net/DTD/sodipodi-0.dtd"
   xmlns="http://www.w3.org/2000/svg"
   xmlns:svg="http://www.w3.org/2000/svg">
  <sodipodi:namedview
     id="namedview87"
     pagecolor="#ffffff"
     bordercolor="#666666"
     borderopacity="1.0"
     inkscape:pageshadow="2"
     inkscape:pageopacity="0.0"
     inkscape:pagecheckerboard="0"
     inkscape:document-units="mm"
     showgrid="false"
     fit-margin-top="0"
     fit-margin-left="0"
     fit-margin-right="0"
     fit-margin-bottom="0"
     inkscape:zoom="0.75187991"
     inkscape:cx="946.29473"
     inkscape:cy="241.39493"
     inkscape:window-width="1848"
     inkscape:window-height="1016"
     inkscape:window-x="72"
     inkscape:window-y="27"
     inkscape:window-maximized="1"
     inkscape:current-layer="layer1" />
  <defs
     id="defs82" />
  <g
     inkscape:label="Layer 1"
     inkscape:groupmode="layer"
     id="layer1"
     transform="translate(145.39122,-84.753811)">
    <path
       style="fill:#000000;stroke-width:0.264583"
       d="m -116.17829,139.58107 c -4.74692,-0.75162 -7.72616,-1.68617 -11.47637,-3.60001 -6.40637,-3.26935 -11.85244,-8.82102 -15.11248,-15.40549 -2.02387,-4.08772 -2.63037,-6.56447 -2.62403,-10.71563 0.006,-3.90936 0.4034,-5.64902 2.08532,-9.12812 1.415,-2.926964 3.12667,-5.208974 5.85728,-7.808924 4.16166,-3.96254 8.67198,-6.29609 14.6557,-7.58257 3.06126,-0.65816 11.63305,-0.65461 15.47812,0.006 12.630089,2.17128 26.084292,6.48108 46.963541,15.043874 30.960255,12.69711 40.589943,16.19777 53.006261,19.26922 9.670357,2.39217 15.714758,2.4221 20.792681,0.10295 0.801986,-0.36628 1.327388,-0.75055 1.190625,-0.8708 -0.134628,-0.11838 -1.256808,-0.60856 -2.493735,-1.0893 -8.249303,-3.20613 -13.967997,-7.3362 -16.082703,-11.61502 -0.879605,-1.77976 -0.976217,-2.1854 -0.979398,-4.11206 -0.0031,-1.86549 0.09025,-2.297054 0.733325,-3.391044 1.368605,-2.32824 4.336767,-3.64128 8.231267,-3.64128 3.572507,0 7.009587,1.18008 10.318278,3.54266 5.869877,4.191404 9.203627,11.691644 7.719793,17.367914 -0.208002,0.7957 -0.297299,1.52713 -0.198437,1.6254 0.09886,0.0983 2.025218,0.56958 4.280796,1.04737 3.87406,0.82064 4.40855,0.86932 9.65729,0.87967 6.21852,0.0122 7.40026,-0.19103 10.93728,-1.88151 2.36291,-1.12932 5.20096,-3.81304 6.11287,-5.78045 1.45911,-3.14799 0.84913,-6.32423 -1.75463,-9.1366 -4.05525,-4.380164 -10.51222,-4.954424 -17.3385,-1.54202 -0.83259,0.41621 -1.75114,0.75674 -2.04121,0.75674 -0.62189,0 -1.16714,-0.88097 -0.95634,-1.54515 0.24585,-0.774594 4.42239,-3.350864 6.92613,-4.272334 2.76726,-1.01845 6.75639,-1.36522 9.3207,-0.81023 4.56909,0.98888 8.90068,4.62902 10.57232,8.884674 l 0.49901,1.2704 0.41862,-1.22858 c 0.59921,-1.75857 2.13623,-3.95645 3.81019,-5.448434 4.52211,-4.03049 10.72993,-4.85525 17.11937,-2.27444 1.92695,0.77833 5.66749,3.25752 5.86799,3.889254 0.20799,0.65535 -0.3419,1.53484 -0.95962,1.53484 -0.29006,0 -1.20862,-0.34053 -2.04121,-0.75674 -6.82628,-3.412404 -13.28325,-2.838144 -17.33851,1.54202 -1.89731,2.04933 -2.66711,3.98369 -2.49095,6.2593 0.33504,4.32802 4.60535,8.4192 10.51044,10.06956 1.42008,0.39689 2.6881,0.47857 7.27604,0.46867 5.22708,-0.0113 5.79914,-0.063 9.65639,-0.87224 2.2551,-0.47314 4.19429,-0.95437 4.30933,-1.06941 0.11504,-0.11504 0.0829,-0.5413 -0.0715,-0.94726 -0.52893,-1.39117 -0.60605,-4.40083 -0.16634,-6.49182 0.82023,-3.9007 3.64535,-8.34811 6.983196,-10.993274 1.89317,-1.5003 5.21798,-3.15907 7.4531,-3.71842 1.88971,-0.47292 5.99694,-0.39993 7.73374,0.13742 1.61949,0.50106 3.46504,1.91168 4.18296,3.19719 0.55655,0.99656 0.66493,1.537874 0.66493,3.321014 0,1.93149 -0.0934,2.31932 -1.00008,4.15392 -2.11389,4.27717 -7.43918,8.12841 -16.01184,11.57975 -1.35289,0.54468 -2.5319,1.06239 -2.61998,1.15048 -0.22979,0.22978 2.40001,1.38596 4.41835,1.9425 2.81123,0.77517 9.22147,0.64083 13.62028,-0.28543 12.07508,-2.54269 24.33156,-6.8176 51.46722,-17.95114 14.53433,-5.963314 20.57712,-8.295924 27.9999,-10.808364 19.85799,-6.72149 32.22586,-8.50307 41.93784,-6.04112 4.84756,1.22883 9.0814,3.63577 12.975,7.37628 3.67898,3.53433 5.88047,7.038764 7.10232,11.305824 0.81878,2.85932 0.80793,7.98011 -0.0233,11.05733 -1.68815,6.2488 -6.71195,13.3105 -12.54744,17.63725 -2.56442,1.9014 -7.74576,4.48863 -10.50465,5.24535 -7.39923,2.02949 -15.11017,1.71756 -21.43125,-0.86698 -3.34947,-1.36951 -5.54003,-2.81808 -8.08564,-5.34686 -1.98316,-1.97003 -2.61795,-2.81595 -3.67591,-4.89845 l -1.27881,-2.5172 -2.88412,0.58049 c -4.2731,0.86006 -7.85368,1.14731 -14.21783,1.14061 -5.51561,-0.006 -11.64786,-0.33134 -12.51588,-0.66442 -0.55515,-0.21304 -0.81801,-1.32307 -0.46812,-1.97683 0.26855,-0.50179 0.5907,-0.51889 9.33296,-0.49544 5.23269,0.014 10.2275,-0.10441 11.83293,-0.28061 3.52761,-0.38717 7.48213,-1.05226 7.7365,-1.30117 0.10774,-0.10541 0.0744,-0.60358 -0.0741,-1.10703 -1.5023,-5.09429 -0.28871,-10.67943 2.95405,-13.59493 2.14053,-1.92453 4.40145,-2.87572 7.16026,-3.01241 1.97297,-0.0978 2.4688,-0.0315 3.49956,0.46746 3.15818,1.52885 4.70832,5.89112 3.42829,9.64772 -1.03113,3.02628 -7.00215,7.62125 -12.35096,9.50468 -0.43611,0.15356 -0.39233,0.33283 0.49271,2.01707 2.46184,4.6849 7.02971,8.04012 13.16841,9.67256 10.58545,2.81495 21.03128,-0.0557 28.88628,-7.93823 5.33133,-5.35004 8.3275,-11.65054 8.33253,-17.522 0.003,-2.97675 -0.37095,-4.55524 -1.76522,-7.46063 -1.00267,-2.08933 -1.55927,-2.853324 -3.48345,-4.781374 -4.77036,-4.77997 -10.41567,-7.41143 -17.65483,-8.2295 -6.30388,-0.71238 -14.61262,0.68474 -27.49777,4.62378 -9.4006,2.87378 -17.2161,5.78495 -36.64479,13.649684 -28.90915,11.70241 -39.56013,15.30849 -50.9323,17.24408 -4.87272,0.82936 -12.01713,0.82942 -15.08125,1.4e-4 -2.72711,-0.73808 -5.532186,-2.12041 -7.095856,-3.4968 l -1.23772,-1.08949 -2.3155,0.53714 c -6.54428,1.51813 -13.8216,2.16399 -18.91445,1.67867 -6.17795,-0.58873 -9.91091,-2.10265 -13.22958,-5.36529 -1.55887,-1.53256 -2.25576,-2.46281 -2.92117,-3.8994 l -0.87389,-1.88667 -0.77319,1.77793 c -0.59504,1.36832 -1.2631,2.26947 -2.89965,3.91141 -2.36835,2.37613 -4.57635,3.63422 -8.07961,4.60367 -5.72405,1.584 -15.16139,1.26336 -24.143622,-0.82032 l -2.315498,-0.53714 -1.256376,1.11715 c -1.533687,1.36375 -4.250616,2.69385 -7.077208,3.46473 -3.058403,0.8341 -10.193842,0.83612 -15.081249,0.004 -11.2995,-1.92295 -22.211874,-5.61065 -50.37952,-17.02487 -28.028112,-11.357684 -41.249986,-15.810744 -53.358741,-17.970994 -4.19388,-0.7482 -11.14838,-0.81049 -14.26592,-0.12778 -8.01143,1.75443 -15.06344,6.47465 -17.92939,12.000914 -1.65559,3.19239 -1.91621,4.30892 -1.8977,8.13008 0.0152,3.13278 0.0915,3.66379 0.85514,5.95313 3.0862,9.25165 11.61795,17.15019 21.17449,19.60297 6.6212,1.69939 14.04247,0.93785 20.154752,-2.06819 2.085993,-1.0259 2.897362,-1.62099 4.770009,-3.4985 1.578549,-1.58264 2.556999,-2.83931 3.256785,-4.18285 0.910312,-1.74774 0.957249,-1.9357 0.521655,-2.08908 -4.917688,-1.73162 -10.470861,-5.80393 -12.030971,-8.82269 -0.94161,-1.82199 -1.01276,-4.80606 -0.15888,-6.6636 1.35796,-2.95411 3.180138,-4.21667 6.110075,-4.23357 2.20612,-0.0127 4.19417,0.58481 6.142662,1.84626 2.901289,1.87829 4.60212,4.57277 5.153623,8.16444 0.296961,1.93395 0.01611,5.38797 -0.561652,6.90762 -0.142113,0.37378 -0.164666,0.76549 -0.05012,0.87046 0.258561,0.23694 4.099581,0.91776 7.616602,1.35004 1.600033,0.19667 6.287246,0.33155 11.858453,0.34126 8.411218,0.0147 9.234697,0.0555 9.466405,0.46907 0.330973,0.59081 0.04154,1.71345 -0.494805,1.91927 -0.868005,0.33308 -7.00025,0.65862 -12.515871,0.66442 -6.375802,0.007 -9.944333,-0.28047 -14.247447,-1.14657 l -2.913748,-0.58645 -0.572497,1.33253 c -3.013705,7.01464 -10.424951,12.04537 -19.68466,13.36186 -1.77936,0.25298 -7.22582,0.31442 -8.59895,0.097 z m 27.263141,-20.11711 c 0.172236,-0.82966 0.264211,-2.5263 0.204383,-3.77031 -0.09008,-1.87318 -0.241432,-2.50531 -0.880816,-3.67882 -1.316662,-2.41658 -4.166063,-4.27156 -6.561453,-4.27156 -1.154874,0 -1.415753,0.11366 -2.307354,1.00526 -2.327681,2.32768 -1.424522,5.39288 2.534743,8.60253 1.315661,1.06657 5.907653,3.61735 6.517658,3.62047 0.09882,5.2e-4 0.320601,-0.6779 0.492839,-1.50757 z m 296.437989,0.61532 c 4.83828,-2.23543 8.32398,-5.76153 8.34512,-8.4419 0.009,-1.11034 -0.61677,-2.38012 -1.56602,-3.17885 -2.38614,-2.00782 -7.52507,0.56296 -9.02187,4.51327 -0.5003,1.32033 -0.55604,1.86341 -0.42759,4.16418 0.14004,2.5082 0.35417,3.83646 0.61846,3.83646 0.0653,0 0.98867,-0.40192 2.0519,-0.89316 z M 18.624266,112.22124 c 0.0024,-2.15019 -0.0583,-2.39245 -1.162256,-4.6302 -2.654843,-5.38147 -8.522227,-9.375744 -13.76593,-9.371294 -2.414563,0.002 -3.531904,0.37329 -4.523848,1.50305 -0.741064,0.844024 -0.829223,1.103314 -0.716161,2.106394 0.54855,4.86673 6.643418,9.90239 16.459922,13.59941 l 2.652588,0.999 0.526518,-0.96873 c 0.408554,-0.75169 0.527111,-1.47705 0.529167,-3.23763 z m 83.686224,2.77343 c 9.08851,-3.5632 14.76655,-8.40003 15.31702,-13.04776 0.13507,-1.14045 0.0702,-1.34677 -0.69816,-2.221904 -0.99399,-1.13211 -2.10973,-1.50321 -4.52578,-1.50526 -5.24309,-0.004 -11.08905,3.979554 -13.765706,9.381294 -1.07866,2.17681 -1.15814,2.48364 -1.16054,4.48068 -0.003,2.27304 0.60735,4.12822 1.3576,4.12822 0.20669,0 1.770716,-0.54687 3.475566,-1.21527 z"
       id="path21" />
  </g>
</svg>
