<?xml version="1.0" encoding="UTF-8" standalone="no"?>
<!-- Created with Inkscape (http://www.inkscape.org/) -->

<svg
   width="408.63785mm"
   height="70.79052mm"
   viewBox="0 0 408.63785 70.79052"
   version="1.1"
   id="svg464"
   sodipodi:docname="cul-de-lampe-7.svg"
   inkscape:version="1.1 (ce6663b3b7, 2021-05-25)"
   xmlns:inkscape="http://www.inkscape.org/namespaces/inkscape"
   xmlns:sodipodi="http://sodipodi.sourceforge.net/DTD/sodipodi-0.dtd"
   xmlns="http://www.w3.org/2000/svg"
   xmlns:svg="http://www.w3.org/2000/svg">
  <sodipodi:namedview
     id="namedview466"
     pagecolor="#ffffff"
     bordercolor="#666666"
     borderopacity="1.0"
     inkscape:pageshadow="2"
     inkscape:pageopacity="0.0"
     inkscape:pagecheckerboard="0"
     inkscape:document-units="mm"
     showgrid="false"
     inkscape:zoom="0.37593996"
     inkscape:cx="448.20987"
     inkscape:cy="97.089973"
     inkscape:window-width="1848"
     inkscape:window-height="1016"
     inkscape:window-x="72"
     inkscape:window-y="27"
     inkscape:window-maximized="1"
     inkscape:current-layer="layer1"
     fit-margin-top="0"
     fit-margin-left="0"
     fit-margin-right="0"
     fit-margin-bottom="0" />
  <defs
     id="defs461" />
  <g
     inkscape:label="Layer 1"
     inkscape:groupmode="layer"
     id="layer1"
     transform="translate(-68.048393,31.172513)">
    <path
       style="fill:#000000;stroke-width:0.264583"
       d="M 112.64387,39.39115 C 103.00969,38.73662 94.397195,35.92071 86.984142,31.00155 83.65305,28.79111 78.31503,23.35002 75.89511,19.69843 72.464,14.52097 69.91887,8.56982 68.66996,2.80419 67.90581,-0.72357 67.8303,-8.38766 68.53211,-11.18832 c 1.95602,-7.80572 6.57771,-13.49916 13.91414,-17.14076 11.435103,-5.67608 24.57266,-2.6546 31.66342,7.2822 1.40582,1.97008 3.06923,5.2532 3.71034,7.32323 0.44076,1.42308 0.4413,1.53983 0.0102,2.19783 -0.37747,0.57609 -0.62224,0.68103 -1.43157,0.61375 -0.909,-0.0756 -0.99963,-0.16318 -1.31581,-1.2718 -0.72832,-2.55367 -0.9468,-3.09571 -1.86626,-4.6302 -1.28649,-2.14702 -4.75037,-5.59395 -7.26399,-7.22846 -6.336793,-4.12055 -13.287852,-4.54628 -20.16352,-1.23494 -5.29706,2.55109 -9.23323,7.18393 -11.12462,13.0936 -0.97409,3.04356 -1.19992,8.4241 -0.52385,12.48068 0.52348,3.14092 2.06926,8.06466 3.31243,10.55097 5.04611,10.09209 15.531118,17.79581 28.97354,21.28794 5.91863,1.53756 8.52812,1.85103 15.34584,1.84339 5.16217,-0.006 6.5541,-0.0959 9.17465,-0.59402 7.03468,-1.33718 13.64723,-3.89268 19.86337,-7.67645 0.83674,-0.50933 1.51807,-0.99843 1.51406,-1.08688 -0.004,-0.0885 -0.72666,-0.63708 -1.60588,-1.21917 -3.99873,-2.64733 -7.30719,-7.35545 -7.9635,-11.33251 -0.74652,-4.52365 1.7385,-9.33558 5.80109,-11.23311 1.35237,-0.63165 1.84427,-0.71331 4.30938,-0.71538 2.62784,-0.002 2.88374,0.0474 4.59672,0.89022 2.31678,1.13996 4.49594,3.30579 5.75805,5.72283 1.40369,2.68817 1.8123,4.33023 1.80585,7.25712 -0.007,3.02817 -0.66694,5.19514 -2.35166,7.71803 -0.60143,0.90064 -1.06123,1.6659 -1.02178,1.70056 0.0394,0.0347 1.08218,0.56861 2.31717,1.18655 5.14626,2.57499 10.49342,4.13037 16.8645,4.90553 5.34658,0.65051 13.86843,0.42449 19.20704,-0.50942 7.37749,-1.29058 14.67797,-3.45693 24.00748,-7.124 3.41091,-1.34069 11.19206,-4.75327 11.5628,-5.0711 0.0377,-0.0323 -1.13507,-1.6891 -2.60612,-3.68178 -1.96592,-2.66303 -2.79031,-3.58703 -3.11122,-3.48714 -1.06311,0.33094 -4.33979,0.66668 -6.55349,0.67149 -8.99383,0.0195 -19.78702,-5.08696 -22.99548,-10.87966 -0.69928,-1.2625 -0.78518,-1.66517 -0.78236,-3.66719 0.003,-1.80806 0.11781,-2.4645 0.58793,-3.34842 1.95114,-3.66857 7.25908,-4.22968 15.40659,-1.62867 6.89038,2.19969 12.62006,6.31279 17.17308,12.32782 1.88876,2.49527 1.37627,2.37217 5.72838,1.37591 6.02467,-1.37914 12.06855,-4.65439 18.78002,-10.17711 3.65656,-3.0089 9.68697,-9.30782 11.88345,-12.41258 1.0061,-1.42214 2.11231,-2.77116 2.45823,-2.99782 0.87338,-0.57226 1.70851,-0.14524 2.79223,1.42771 4.4396,6.44382 12.37308,14.11022 19.114,18.47053 5.05319,3.2686 8.99858,4.96153 13.88235,5.95678 1.43271,0.29197 2.66858,0.53085 2.74634,0.53085 0.0778,0 0.70898,-0.74414 1.40264,-1.65364 5.0745,-6.65338 10.45107,-10.58705 17.56474,-12.85095 3.77912,-1.2027 6.89877,-1.72071 9.3831,-1.55805 4.44532,0.29106 6.42485,2.12809 6.69139,6.20966 0.11507,1.76239 0.0548,2.06444 -0.73012,3.65883 -2.92938,5.95042 -13.83469,11.23631 -23.13966,11.216 -2.19967,-0.005 -5.47984,-0.34103 -6.53704,-0.67006 -0.31459,-0.0979 -1.12413,0.80498 -2.97656,3.31984 -1.39946,1.89988 -2.54447,3.5521 -2.54447,3.6716 0,0.34236 6.42525,3.31483 11.28599,5.22115 9.45248,3.70714 16.6964,5.85774 24.08348,7.15 5.33863,0.93391 13.86047,1.15993 19.20706,0.50942 6.37106,-0.77516 11.71824,-2.33054 16.86449,-4.90553 1.235,-0.61794 2.29182,-1.16598 2.34847,-1.21786 0.0567,-0.0519 -0.19431,-0.48453 -0.55777,-0.96143 -0.94718,-1.24285 -2.08121,-3.5636 -2.49235,-5.10043 -0.47442,-1.77338 -0.45307,-5.22087 0.0442,-7.12992 1.01489,-3.89645 3.87093,-7.55457 7.16272,-9.17428 1.71569,-0.8442 1.97053,-0.89359 4.59909,-0.89139 2.4565,0.002 2.95947,0.0849 4.28996,0.70649 2.74092,1.28054 4.8434,3.91936 5.65888,7.10245 0.77859,3.03915 0.0912,6.28191 -2.05391,9.68961 -1.14715,1.82233 -4.19883,4.84612 -6.10389,6.04812 -0.69095,0.43597 -1.2565,0.87264 -1.25677,0.97039 -2.6e-4,0.0977 1.33898,0.95502 2.97609,1.90506 5.52955,3.20889 12.05323,5.63341 18.40817,6.84138 4.17084,0.79281 13.70103,0.85706 18.17048,0.12251 13.95415,-2.29338 25.34015,-8.46071 32.02479,-17.34657 6.67626,-8.87469 8.96274,-21.96538 5.3208,-30.46288 -2.16165,-5.04367 -5.83007,-8.88426 -10.62268,-11.12124 -8.31866,-3.88279 -16.96585,-2.20214 -23.83075,4.63168 -2.44203,2.43098 -4.14793,4.91625 -4.60516,6.70911 -0.72387,2.83844 -0.87148,3.08233 -1.91849,3.17023 -0.79928,0.0671 -1.04574,-0.0393 -1.42216,-0.61375 -0.4314,-0.6584 -0.43053,-0.77388 0.0164,-2.19783 0.63828,-2.03309 2.34053,-5.39194 3.71158,-7.32376 1.56736,-2.2084 4.99404,-5.40793 7.18735,-6.71096 9.62988,-5.72102 22.3361,-4.10382 31.1666,3.96675 4.05055,3.70199 6.7079,8.88784 7.56779,14.76873 0.47176,3.22639 0.17939,8.95116 -0.63648,12.46219 -0.90239,3.88348 -1.82459,6.48129 -3.61153,10.17371 -7.1664,14.80805 -19.70003,23.34678 -37.50665,25.55196 -3.28226,0.40648 -11.53589,0.40742 -15.14467,0.002 -11.00365,-1.23703 -22.42439,-5.12936 -30.0917,-10.25565 l -2.52494,-1.68815 -2.22692,0.95649 c -9.64369,4.14204 -20.03076,5.9824 -30.44685,5.3945 -10.68152,-0.60289 -20.64451,-3.0515 -32.99209,-8.10849 -2.33394,-0.95588 -6.61892,-2.61657 -9.52217,-3.69043 l -5.27865,-1.95247 -1.95897,1.99745 c -4.59921,4.68954 -10.58266,7.27106 -16.85304,7.27106 -4.36672,0 -6.4393,-1.02314 -7.84124,-3.87089 -0.7539,-1.53138 -0.8159,-1.84967 -0.70149,-3.60084 0.21996,-3.36664 1.90673,-6.09567 4.68186,-7.5748 2.12683,-1.13359 4.54525,-1.61205 8.17648,-1.61762 3.28298,-0.005 5.69743,0.29117 8.88574,1.09013 1.1485,0.2878 2.17908,0.42712 2.29017,0.30959 0.11109,-0.11753 1.16443,-1.40432 2.34076,-2.85952 1.77837,-2.19997 2.06124,-2.67434 1.67857,-2.81499 -0.2531,-0.093 -1.88894,-0.67316 -3.63519,-1.28916 -10.91812,-3.85144 -21.68325,-11.90236 -29.00931,-21.69522 -1.19876,-1.60239 -2.26301,-2.8229 -2.36501,-2.71224 -0.102,0.11065 -1.12029,1.45135 -2.26285,2.97931 -4.10149,5.48499 -10.1373,11.12223 -16.23678,15.16461 -3.59818,2.38465 -9.77792,5.41474 -13.62194,6.67918 l -3.03775,0.99924 0.97006,1.21234 c 0.86716,1.08374 3.06104,3.77994 3.52853,4.33645 0.0987,0.11753 1.1192,-0.0218 2.2677,-0.30959 4.61382,-1.15618 10.18622,-1.44398 13.66895,-0.70598 4.8423,1.02611 7.78272,4.21712 8.07442,8.76256 0.11626,1.81156 0.0591,2.10295 -0.72435,3.69443 -1.39291,2.8294 -3.42475,3.82301 -7.81767,3.82301 -4.54095,0 -9.38922,-1.52716 -13.28039,-4.1832 -0.84532,-0.577 -2.41949,-1.96268 -3.49816,-3.07929 l -1.96121,-2.03019 -4.12421,1.50777 c -2.2683,0.82927 -6.86263,2.60893 -10.20961,3.95478 -11.80306,4.74615 -20.03558,6.97961 -29.76563,8.07533 -3.97673,0.44783 -12.48452,0.38491 -15.95574,-0.118 -6.09375,-0.88287 -12.93515,-2.76263 -18.09391,-4.97152 l -2.43194,-1.04132 -2.06598,1.44081 c -5.34888,3.73031 -13.06801,6.94863 -21.37634,8.9124 -4.29997,1.01635 -7.71088,1.52082 -12.43963,1.83984 -4.35379,0.29372 -4.7006,0.29344 -9.12848,-0.007 z M 260.81103,24.52707 c 1.14241,-0.7798 1.85195,-2.15863 1.85195,-3.59887 0,-0.98887 -0.14726,-1.307 -0.99948,-2.15922 -1.4272,-1.4272 -3.12742,-1.89191 -7.48051,-2.04464 -3.43635,-0.12055 -6.05053,0.11415 -8.28764,0.74407 l -1.02491,0.28859 1.02491,1.06175 c 3.05654,3.16638 9.27793,6.28569 12.56131,6.29805 1.10876,0.004 1.70198,-0.14441 2.35437,-0.58973 z m 28.35545,0.0509 c 3.48848,-1.17518 7.37457,-3.48955 9.44743,-5.62645 l 1.15821,-1.19399 -1.02592,-0.28888 c -2.23816,-0.6302 -4.85181,-0.86491 -8.28866,-0.74434 -4.29976,0.15085 -5.92304,0.59208 -7.42111,2.01717 -0.90706,0.86286 -1.05887,1.16639 -1.05887,2.11711 0,1.43302 0.85247,3.08765 1.9289,3.74399 1.12386,0.68525 3.18142,0.67562 5.26002,-0.0246 z M 158.59396,19.40044 c 0.62691,-0.67319 1.46866,-1.89358 1.87057,-2.71198 0.65112,-1.32586 0.73036,-1.77626 0.72723,-4.13381 -0.003,-2.29616 -0.0952,-2.84236 -0.69722,-4.1328 -1.37649,-2.95048 -3.68639,-4.73075 -6.13818,-4.73075 -3.86886,0 -6.10485,3.04709 -5.43633,7.40834 0.3632,2.36942 1.21537,4.09612 2.9405,5.95816 1.40333,1.5147 4.40037,3.56684 5.20919,3.56684 0.21142,0 0.89733,-0.5508 1.52424,-1.224 z m 230.95229,0.28245 c 3.46699,-2.07662 5.66446,-5.1283 6.18085,-8.58345 0.69019,-4.61803 -1.80944,-7.69505 -5.97075,-7.34996 -4.86873,0.40375 -8.03291,7.73749 -5.56845,12.90621 0.76528,1.60503 2.78908,3.96875 3.39805,3.96875 0.2136,0 1.09574,-0.4237 1.9603,-0.94155 z M 227.87869,6.58789 c 0.28044,-0.45375 -1.45644,-3.0578 -3.53331,-5.29741 -6.01517,-6.48649 -17.57566,-10.16058 -20.05679,-6.37434 -1.15209,1.75811 -0.0243,5.07287 2.37016,6.96656 2.4106,1.90642 7.12869,3.72315 11.93803,4.59682 2.31893,0.42126 9.04004,0.49973 9.28191,0.10837 z m 98.05119,-0.1118 c 7.35999,-1.29458 13.08701,-4.261 14.43038,-7.47452 0.5679,-1.35853 0.56414,-3.21184 -0.008,-4.0854 -2.22818,-3.40023 -12.46819,-0.66489 -18.6573,4.9838 -2.50502,2.28629 -5.29937,6.09483 -4.92099,6.70705 0.24734,0.40022 6.65766,0.30856 9.15623,-0.13093 z"
       id="path1107" />
  </g>
</svg>
