<?xml version="1.0" encoding="UTF-8" standalone="no"?>
<svg id="svg74875" xmlns:rdf="http://www.w3.org/1999/02/22-rdf-syntax-ns#" xmlns="http://www.w3.org/2000/svg" height="266.79pt" width="1076.8pt" version="1.1" xmlns:cc="http://creativecommons.org/ns#" xmlns:dc="http://purl.org/dc/elements/1.1/" viewBox="0 0 1076.7507 266.78943">
 <metadata id="metadata74885">
  <rdf:RDF>
   <cc:Work rdf:about="">
    <dc:format>image/svg+xml</dc:format>
    <dc:type rdf:resource="http://purl.org/dc/dcmitype/StillImage"/>
    <dc:title/>
   </cc:Work>
  </rdf:RDF>
 </metadata>
 <path id="path74901" d="m576.47 8.3294c-9.84-19.6-39.61-0.86-35.65 17.66 1.7 13.33 16.04 10.4 25.13 8.92 30.37 50.55 54.24 107.11 57.44 166.67 1.11 26.31-15.39 59.21-45.88 55.66-30.95 2.86-47.51-47.7-19.87-61.58 17.78-12.16 44.32 6.31 37.5 27.26-1.78 19.3-36.98 17.79-32.85-2.95 6.99 9.99 25.7 4.74 18.11-7.76-13.01-17.16-34.03 13.61-18.19 23.97 16.41 15.48 45.44-2.47 41.02-23.76 0.56-22.75-29.01-34.32-46.95-24.01-27.91 16.53-21.73 65.07 8.71 75.11 25.6 8.54 51.37-11.4 59.44-34.91 7.03-17.65 3.36-37 3.45-55.42 2.95 0.55 8.93-1.51 9.66 2.96 4.33 15.52 3.81 34.02-7.66 46.44-0.85 8.95-0.83 17.99-1.9 26.93 4.71 1.23 5.36-4.92 8.04-7.42 19.06-12.84 8.54-36.17 8.03-54.77 0.04-4.04-4.93-16 3.18-14.47 7.63 17.59 15.62 41.04 2.87 57.99-0.63 9.82 4.24 19.33 0.92 29.14-1.9 4.64 6.13 7.08 6.89 1.94 2.25-8.86 5.28-17.69 13.52-22.86-7.09-20.69-9.15-43.44-18.38-63.82-1.08-7.89 7.45 1.18 7.75 4.5 8.87 19.8 21.55 39.41 18.45 62.2 17.63-1.14 18.16 18.79 30.14 24.84h2.76c2.65-10.35-9.59-16.79-8.79-27.22 1.46-10.1-3.94-18.66-13.23-22.31-12.73-13.09-22.11-29.49-28.87-46.34-3.67-6.34 3.95-6.06 5.31-2.04 11.89 19.75 31.44 33.88 40.87 55.19 12.26-1.22 23.99 1.35 35.91 3.67 6.53-1.57 0.94-9.67-4.07-8.73-12-1.19-16.76-14.6-28.02-16.8-19.94-5.62-33.26-23.46-44.03-40.04-2.21-6.4 7.48-6.47 9.36-1.4 12.45 15.91 33.35 22.34 44.67 38.85 11.23-2.2 22.49-3.16 33.94-2.18 0.83-12.62-23.33-6.37-25.57-21.03-20.92 4.4-39.36-8.53-53.02-22.78-4.72-4 0.08-13.84 5.93-9.88 36.76 20.6 77.2 42.29 120.98 34.93 27.36-2.92 49.47-20.27 74.58-29.46 18.13-5.78 3.61 21.64 20.33 17.4 19.72-0.28 23.43-29.85 4.65-35.2 5.7-9.13 19.37-12.21 29.46-16.8 17.09-4.22 37.22-10.82 53.18 0.11 10.49 6.17 18.36 22.01 10.07 33.02-5.58 10.89-27.06 9.97-27.75-3.7 5.3-0.28 11.44 3.83 16.04-0.04 5.25-5.98-1.6-18.41-9.57-15.53-18.11 1.61-14.93 29.88 0.68 33.06 21.08 7.07 38.64-20.98 27.96-39.02-14.02-24.61-48.79-25.9-72.18-15.33-15.23 4.2-26.24 15.78-39.54 23.5-2.97 4.47 5.33 6.14 7.99 7.24 10.52 0.55 10.9 17.82 1.27 19.89-4.65-4.61-2.47-13.85-10.14-16.11-6.94-5.18-15.03-0.35-22.58-0.15 0.69-13.55 15.36-21.72 15.77-35.82 6.45-17.48 0.26-35.41-1.51-52.6 55.75-0.02 111.48 3.91 167.25 3.02 10.59-0.64 23.07-6.01 26.19-17.11 0 0 1.0815-5.2126 1.0808-7.8559-0.0008-2.6328-1.0808-7.8241-1.0808-7.8241-4.08-20.07-34.69-25.89-45.79-9.16-12.29 17.43 15.78 38.97 30.82 26.34 3.89-8.84 3.01-29.5-12.14-23.53-7.21 2.54-5.91 14.64 2.32 14.8 5.05-1.08 4.78 6.15 0.95 6.28-9.31 3-18.38-7.81-14.43-16.72 5.62-17.63 34.81-6.2 31.23 10.18 1.38 8.58-8.25 13.6-15.04 15.68-27.93-0.16-55.98-0.12-83.85-0.51 6.69-6.96 18.62-14.69 11.4-27.11-4.62-17.41-33.61-13.82-37.42 1.97 8.07 2.31 16.67 9.91 9.32 18.52-22.37 8.22-47.08 4.33-70.39 4.44-6.47-0.23-9.35-6.68-12.91-11-16.98-23.17-46.41-37.41-75.29-32.08-23.15-0.55-39.58 17.23-59.29 25.92-11.67 3.16-12.08-9.62-12.51-17.29-11.89-8.61-34.12 12.39-21.57 24.2 1.66 3.07 6.4 5.14 5.46 9.07-13.61 5.88-29.77 7.66-43.48 1.17-11.83-7.64-14.69-32.5 1.87-35.75 3.66-2.23 18.58 6.66 10.61 8.25-12.14-4.18-16.58 18.39-3.71 17.77 20.76 2.41 18.27-31.75-0.05-32.84-20.84-4.55-33.58 23.34-20.79 38.46 16.3 20.64 47.89 16.3 67.91 3.61 4.74-4.49-4.4-5.88-6.79-8.64-7.4-3.79-9.54-17.05-0.25-19.73 0.2 14.68 14.46 20.18 27.02 17.55 2.21 4.67-4.54 7.94-5.81 12.14-8.07 24.22-5.04 55.07 17.09 70.95 23.39 24.65 68.85 16.91 84.61-12.45 6.71-15.1 6.84-35.18-5.91-47.22-1.35-1.62-5.61-5.69-1.04-5.6 15.18 1.48 30.56-0.35 45.65 1.62 13.3 37.32 0.9 86.56-36.12 105.8-42.28 23.88-95.71 14.29-135.82-9.53-51.98-27.25-91.83-71.85-129.25-116.04-2.32-8.72 8.98-15.54 4.19-24.56m-10.49-0.34c9.12 8.62-12.84 26.17-20.16 15.27-1.13-10.36 10.88-17.51 20.16-15.27m248.1 1.31c20.21 1.46 39.09 12.84 51.29 28.74 1.29 1.58 4.09 5.29 0.95 6.56-22 1.61-44.05-2.86-65.91-0.03-18.85-1.6-38.63 17.57-32.79 36.79 2.81 13.96 19.31 24.69 32.98 20.23 3.55-7.53-5.16-6.61-9.24-7.4-16.04-2.68-22.38-29.3-7.63-37.4 5.09 2.38 2.17 10.59 6.7 14.16 6.46 11.16 20.7 6.13 30.84 8.94 8.9 9.34 5.19 27.59-5.67 33.9-22.15 20.79-64.69 8.37-73.86-20.03-10.97-20.57-6.37-46.97 8.51-64.4 16.57-16.54 40.94-22.88 63.83-20.06m148.31 8.81c14.7 3.49 7.39 28.4-6.27 25.33 7.85-2.69 11.44-13.01 4.53-18.66-4.5-1.68-2.39-7.42 1.74-6.67m-165.85 36.94c3.85 2.27 2.12 11.14 8.54 10.76 7.08 0.55 25.05-1.98 24.33 9.69-8.58-1.17-16.79-5.62-26.01-4.2-7.83 0.51-14.73-12.62-6.86-16.25m-202.53 12.35c17.14 15.18 30.42 34.53 48.96 48.21 7.48 13.72-13.14 23.51-23.15 17.04-7.92-19.15-14.86-38.92-25.16-57.04-0.27-1.74-4.73-9.41-0.65-8.21m57.5 56.55c9.81 12.52-20.43 32.68-30.09 18.79 3.37-5.52 11.65-1.85 16.36-5.68 6.4-2.43 6.98-11.61 13.73-13.11m18.83 12.97c5.22 4.27-0.22 9.83-3.07 13.52-5.94 10.76-18.45 15.41-29.74 18.2-4.3 0.15-13.42-0.96-9.01-6.91 13.06-2.11 27.82-5.62 34.94-18.14 2.16-2.17 2.88-7.7 6.88-6.67zm-170.06-128.59c9.84-19.6 39.61-0.86 35.65 17.66-1.7 13.33-16.04 10.4-25.13 8.92-30.37 50.55-54.24 107.11-57.44 166.67-1.11 26.31 15.39 59.21 45.88 55.66 30.95 2.86 47.51-47.7 19.87-61.58-17.78-12.16-44.32 6.31-37.5 27.26 1.78 19.3 36.98 17.79 32.85-2.95-6.99 9.99-25.7 4.74-18.11-7.76 13.01-17.16 34.03 13.61 18.19 23.97-16.41 15.48-45.44-2.47-41.02-23.76-0.56-22.75 29.01-34.32 46.95-24.01 27.91 16.53 21.73 65.07-8.71 75.11-25.6 8.54-51.37-11.4-59.44-34.91-7.03-17.65-3.36-37-3.45-55.42-2.95 0.55-8.93-1.51-9.66 2.96-4.33 15.52-3.81 34.02 7.66 46.44 0.85 8.95 0.83 17.99 1.9 26.93-4.71 1.23-5.36-4.92-8.04-7.42-19.06-12.84-8.54-36.17-8.03-54.77-0.04-4.04 4.93-16-3.18-14.47-7.63 17.59-15.62 41.04-2.87 57.99 0.63 9.82-4.24 19.33-0.92 29.14 1.9 4.64-6.13 7.08-6.89 1.94-2.25-8.86-5.28-17.69-13.52-22.86 7.09-20.69 9.15-43.44 18.38-63.82 1.08-7.89-7.45 1.18-7.75 4.5-8.87 19.8-21.55 39.41-18.45 62.2-17.63-1.14-18.16 18.79-30.14 24.84h-2.76c-2.65-10.35 9.59-16.79 8.79-27.22-1.46-10.1 3.94-18.66 13.23-22.31 12.73-13.09 22.11-29.49 28.87-46.34 3.67-6.34-3.95-6.06-5.31-2.04-11.89 19.75-31.44 33.88-40.87 55.19-12.26-1.22-23.99 1.35-35.91 3.67-6.53-1.57-0.94-9.67 4.07-8.73 12-1.19 16.76-14.6 28.02-16.8 19.94-5.62 33.26-23.46 44.03-40.04 2.21-6.4-7.48-6.47-9.36-1.4-12.45 15.91-33.35 22.34-44.67 38.85-11.23-2.2-22.49-3.16-33.94-2.18-0.83-12.62 23.33-6.37 25.57-21.03 20.92 4.4 39.36-8.53 53.02-22.78 4.72-4-0.08-13.84-5.93-9.88-36.76 20.6-77.2 42.29-120.98 34.93-27.36-2.92-49.47-20.27-74.58-29.46-18.13-5.78-3.61 21.64-20.33 17.4-19.72-0.28-23.43-29.85-4.65-35.2-5.7-9.13-19.37-12.21-29.46-16.8-17.09-4.22-37.22-10.82-53.18 0.11-10.49 6.17-18.36 22.01-10.07 33.02 5.58 10.89 27.06 9.97 27.75-3.7-5.3-0.28-11.44 3.83-16.04-0.04-5.25-5.98 1.6-18.41 9.57-15.53 18.11 1.61 14.93 29.88-0.68 33.06-21.08 7.07-38.64-20.98-27.96-39.02 14.02-24.61 48.79-25.9 72.18-15.33 15.23 4.2 26.24 15.78 39.54 23.5 2.97 4.47-5.33 6.14-7.99 7.24-10.52 0.55-10.9 17.82-1.27 19.89 4.65-4.61 2.47-13.85 10.14-16.11 6.94-5.18 15.03-0.35 22.58-0.15-0.69-13.55-15.36-21.72-15.77-35.82-6.45-17.48-0.26-35.41 1.51-52.6-55.75-0.02-111.48 3.91-167.25 3.02-10.59-0.64-23.07-6.01-26.19-17.11 0 0-1.0814-5.2126-1.0807-7.8559 0.00072236-2.629 1.0807-7.821 1.0807-7.821 4.08-20.07 34.69-25.89 45.79-9.16 12.29 17.43-15.78 38.97-30.82 26.34-3.89-8.84-3.01-29.5 12.14-23.53 7.21 2.54 5.91 14.64-2.32 14.8-5.05-1.08-4.78 6.15-0.95 6.28 9.31 3 18.38-7.81 14.43-16.72-5.62-17.63-34.81-6.2-31.23 10.18-1.38 8.58 8.25 13.6 15.04 15.68 27.93-0.16 55.98-0.12 83.85-0.51-6.69-6.96-18.62-14.69-11.4-27.11 4.62-17.41 33.61-13.82 37.42 1.97-8.07 2.31-16.67 9.91-9.32 18.52 22.37 8.22 47.08 4.33 70.39 4.44 6.47-0.23 9.35-6.68 12.91-11 16.98-23.17 46.41-37.41 75.29-32.08 23.15-0.55 39.58 17.23 59.29 25.92 11.67 3.16 12.08-9.62 12.51-17.29 11.89-8.61 34.12 12.39 21.57 24.2-1.66 3.07-6.4 5.14-5.46 9.07 13.61 5.88 29.77 7.66 43.48 1.17 11.83-7.64 14.69-32.5-1.87-35.75-3.66-2.23-18.58 6.66-10.61 8.25 12.14-4.18 16.58 18.39 3.71 17.77-20.76 2.41-18.27-31.75 0.05-32.84 20.84-4.55 33.58 23.34 20.79 38.46-16.3 20.64-47.89 16.3-67.91 3.61-4.74-4.49 4.4-5.88 6.79-8.64 7.4-3.79 9.54-17.05 0.25-19.73-0.2 14.68-14.46 20.18-27.02 17.55-2.21 4.67 4.54 7.94 5.81 12.14 8.07 24.22 5.04 55.07-17.09 70.95-23.39 24.65-68.85 16.91-84.61-12.45-6.71-15.1-6.84-35.18 5.91-47.22 1.35-1.62 5.61-5.69 1.04-5.6-15.18 1.48-30.56-0.35-45.65 1.62-13.3 37.32-0.9 86.56 36.12 105.8 42.28 23.88 95.71 14.29 135.82-9.53 51.98-27.25 91.83-71.85 129.25-116.04 2.32-8.72-8.98-15.54-4.19-24.56m10.49-0.34c-9.12 8.62 12.84 26.17 20.16 15.27 1.13-10.36-10.88-17.51-20.16-15.27m-248.1 1.31c-20.21 1.46-39.09 12.84-51.29 28.74-1.29 1.58-4.09 5.29-0.95 6.56 22 1.61 44.05-2.86 65.91-0.03 18.85-1.6 38.63 17.57 32.79 36.79-2.81 13.96-19.31 24.69-32.98 20.23-3.55-7.53 5.16-6.61 9.24-7.4 16.04-2.68 22.38-29.3 7.63-37.4-5.09 2.38-2.17 10.59-6.7 14.16-6.46 11.16-20.7 6.13-30.84 8.94-8.9 9.34-5.19 27.59 5.67 33.9 22.15 20.79 64.69 8.37 73.86-20.03 10.97-20.57 6.37-46.97-8.51-64.4-16.57-16.54-40.94-22.88-63.83-20.06m-148.31 8.81c-14.7 3.49-7.39 28.4 6.27 25.33-7.85-2.69-11.44-13.01-4.53-18.66 4.5-1.68 2.39-7.42-1.74-6.67m165.85 36.94c-3.85 2.27-2.12 11.14-8.54 10.76-7.08 0.55-25.05-1.98-24.33 9.69 8.58-1.17 16.79-5.62 26.01-4.2 7.83 0.51 14.73-12.62 6.86-16.25m202.53 12.35c-17.14 15.18-30.42 34.53-48.96 48.21-7.48 13.72 13.14 23.51 23.15 17.04 7.92-19.15 14.86-38.92 25.16-57.04 0.27-1.74 4.73-9.41 0.65-8.21m-57.5 56.55c-9.81 12.52 20.43 32.68 30.09 18.79-3.37-5.52-11.65-1.85-16.36-5.68-6.4-2.43-6.98-11.61-13.73-13.11m-18.83 12.97c-5.22 4.27 0.22 9.83 3.07 13.52 5.94 10.76 18.45 15.41 29.74 18.2 4.3 0.15 13.42-0.96 9.01-6.91-13.06-2.11-27.82-5.62-34.94-18.14-2.16-2.17-2.88-7.7-6.88-6.67z"/>
</svg>