<?xml version="1.0" encoding="UTF-8" standalone="no"?>
<!-- Created with Inkscape (http://www.inkscape.org/) -->

<svg
   width="417.19077mm"
   height="43.788128mm"
   viewBox="0 0 417.19077 43.788128"
   version="1.1"
   id="svg464"
   inkscape:version="1.1 (ce6663b3b7, 2021-05-25)"
   sodipodi:docname="cul-de-lampe-4.svg"
   xmlns:inkscape="http://www.inkscape.org/namespaces/inkscape"
   xmlns:sodipodi="http://sodipodi.sourceforge.net/DTD/sodipodi-0.dtd"
   xmlns="http://www.w3.org/2000/svg"
   xmlns:svg="http://www.w3.org/2000/svg">
  <sodipodi:namedview
     id="namedview466"
     pagecolor="#ffffff"
     bordercolor="#666666"
     borderopacity="1.0"
     inkscape:pageshadow="2"
     inkscape:pageopacity="0.0"
     inkscape:pagecheckerboard="0"
     inkscape:document-units="mm"
     showgrid="false"
     fit-margin-top="0"
     fit-margin-left="0"
     fit-margin-right="0"
     fit-margin-bottom="0"
     inkscape:zoom="0.75187991"
     inkscape:cx="899.74475"
     inkscape:cy="387.69489"
     inkscape:window-width="1848"
     inkscape:window-height="1016"
     inkscape:window-x="72"
     inkscape:window-y="27"
     inkscape:window-maximized="1"
     inkscape:current-layer="layer1" />
  <defs
     id="defs461" />
  <g
     inkscape:label="Layer 1"
     inkscape:groupmode="layer"
     id="layer1"
     transform="translate(132.93779,-46.021812)">
    <path
       style="fill:#000000;stroke-width:0.264583"
       d="m -96.91406,89.663678 c -18.40036,-1.55095 -30.96353,-7.94609 -34.64042,-17.63331 -2.84739,-7.50182 -1.24081,-15.321986 4.2825,-20.84529 3.2264,-3.226401 6.67593,-4.852334 10.82995,-5.104681 6.31155,-0.38341 13.66234,3.523949 16.28534,8.656569 0.759812,1.486781 1.013291,5.122222 0.469911,6.739522 -0.572711,1.70462 -2.414291,2.13433 -3.307131,0.77169 -0.34526,-0.52693 -0.35939,-0.82656 -0.0916,-1.94279 0.41023,-1.710021 0.15433,-3.132456 -0.83124,-4.620383 -1.74766,-2.638488 -5.57662,-4.586269 -10.18671,-5.181941 -3.8939,-0.503134 -6.73723,0.558292 -9.90646,3.698126 -2.92807,2.900913 -4.2859,6.088298 -4.2859,10.060778 0,6.31501 4.59501,12.46513 12.11636,16.21696 3.84606,1.9185 7.999,3.14932 13.76942,4.08086 2.33228,0.37651 4.529361,0.46796 11.233704,0.46758 7.317978,-5.3e-4 8.834506,-0.0744 12.435416,-0.60698 11.967408,-1.76989 20.896349,-4.3635 42.730207,-12.41196 24.474094,-9.02171 36.098075,-12.36324 48.509169,-13.944903 3.692903,-0.47062 9.855567,-0.548404 11.951845,-0.150852 l 1.398862,0.26529 1.34923,-1.271982 c 3.83975,-3.61991 10.024168,-6.568477 16.827351,-8.022836 2.279417,-0.487286 3.609306,-0.593757 7.408333,-0.59312 5.27598,7.94e-4 7.868545,0.451851 11.790828,2.05095 5.210762,2.124403 10.449262,6.805983 11.917502,10.650503 l 0.44269,1.15918 0.94561,-1.92091 c 0.72711,-1.477031 1.52866,-2.501728 3.46876,-4.434448 3.67882,-3.66481 7.4381,-5.70487 12.79404,-6.942971 3.5524,-0.82119 10.551903,-0.806281 14.467653,0.03082 6.83874,1.461963 12.96675,4.383283 16.82531,8.020891 l 1.34715,1.270035 1.56326,-0.292981 c 2.26542,-0.424583 10.35648,-0.128625 14.42135,0.52751 12.40124,2.001754 21.90967,4.807934 44.95335,13.266874 22.72318,8.34128 31.80215,10.99178 43.65625,12.74491 3.60206,0.53271 5.11508,0.60648 12.43541,0.60628 6.78884,-1.8e-4 8.89863,-0.09 11.37708,-0.4842 8.94506,-1.42281 15.29924,-4.08472 19.85738,-8.31869 3.84699,-3.57342 5.8324,-7.46725 5.88724,-11.54628 0.0573,-4.26379 -1.24732,-7.455884 -4.28812,-10.49157 -3.14894,-3.14366 -5.97774,-4.18556 -9.98459,-3.677539 -6.94137,0.880075 -12.09524,5.287875 -10.9946,9.402999 0.43249,1.61709 0.39968,2.07656 -0.18613,2.60672 -0.61772,0.55903 -2.05296,0.63356 -2.52135,0.13093 -1.06095,-1.13848 -1.27706,-4.903451 -0.41185,-7.174539 2.27494,-5.971503 11.42156,-10.549822 18.42365,-9.221902 5.29278,1.00375 10.09187,4.869038 12.66939,10.204165 2.31714,4.796156 2.58321,9.867136 0.78896,15.037486 -0.87894,2.53282 -2.07235,4.41385 -4.33422,6.83152 -5.23904,5.5999 -14.3837,9.32713 -26.93416,10.97797 -4.8142,0.63324 -15.32924,0.63126 -20.32889,-0.004 -11.89109,-1.5105 -24.28713,-4.96028 -41.93645,-11.67078 -26.21172,-9.96605 -42.5599,-14.95589 -52.51979,-16.03029 -2.68457,-0.28959 -8.46347,-0.2064 -8.7965,0.12663 -0.0788,0.0788 0.077,0.83057 0.34618,1.67061 2.01808,6.29771 -1.99038,12.24297 -8.25452,12.24297 -2.11037,0 -3.335,-0.52634 -4.20561,-1.80755 -2.24475,-3.30346 -1.04021,-9.06112 2.5813,-12.3384 0.93872,-0.8495 1.52178,-1.5631 1.37885,-1.68757 -5.84226,-5.08806 -15.75958,-8.14458 -24.085493,-7.423151 -4.61709,0.400063 -9.0043,1.997284 -12.71399,4.628703 -2.76132,1.958688 -4.30711,4.401098 -4.52814,7.154598 -0.16987,2.11624 0.56637,3.77435 2.13578,4.8101 0.98814,0.65213 1.29357,0.71015 3.73826,0.71015 h 2.66221 v 0.92247 c 0,1.31278 -0.91183,1.70647 -3.96875,1.71352 -1.9277,0.004 -2.63918,-0.11084 -3.73545,-0.60524 -1.53205,-0.69092 -2.71523,-1.82172 -3.46176,-3.30849 l -0.50872,-1.01317 -0.47632,1.0563 c -1.34592,2.98471 -5.23319,4.57892 -9.14232,3.74934 -1.80587,-0.38323 -2.196217,-0.71637 -2.075276,-1.77113 l 0.08527,-0.7436 h 2.66221 c 2.44469,0 2.75012,-0.058 3.73825,-0.71015 2.32015,-1.53119 2.84419,-4.78714 1.27037,-7.89293 -2.18066,-4.303326 -9.160893,-8.033065 -16.289218,-8.703786 -8.000156,-0.752753 -18.137631,2.280809 -23.748621,7.106596 l -0.617035,0.53068 1.597295,1.47881 c 3.346932,3.09867 4.602512,7.94278 2.998584,11.56873 -0.783831,1.77198 -1.88826,2.4242 -4.287853,2.53218 -6.413984,0.28863 -10.60422,-5.57362 -8.6227,-12.06339 0.277982,-0.91044 0.439024,-1.72174 0.357865,-1.8029 -0.08116,-0.0811 -1.43969,-0.21445 -3.018964,-0.29622 -5.409319,-0.28006 -11.703643,0.79023 -22.08758,3.75578 -10.931819,3.12201 -17.60171,5.41585 -36.743203,12.6363 -22.527328,8.49764 -35.893564,11.6951 -50.006248,11.96245 -2.983177,0.0565 -6.636711,5.3e-4 -8.118965,-0.1244 z M 31.484485,71.299888 c 0.790138,-0.79014 0.899583,-1.06535 0.899583,-2.2621 0,-0.74938 -0.191712,-1.74356 -0.426027,-2.20927 -0.549272,-1.09171 -2.139272,-2.76313 -3.115664,-3.27521 -0.733989,-0.38495 -0.787681,-0.37129 -1.386181,0.35254 -2.008511,2.4291 -1.460617,6.23994 1.106159,7.69381 1.412457,0.80004 1.86917,0.75319 2.92213,-0.29977 z m 91.254055,0.29192 c 2.27039,-1.28584 3.02704,-4.50171 1.6229,-6.89769 -0.38632,-0.65921 -0.81656,-1.2691 -0.95607,-1.35533 -0.66601,-0.41162 -3.2249,1.79853 -4.1057,3.54614 -0.32676,0.64833 -0.42111,1.31413 -0.33444,2.35956 0.10142,1.22284 0.25527,1.57653 0.95941,2.20568 1.0096,0.90207 1.43351,0.92341 2.8139,0.14164 z"
       id="path192" />
  </g>
</svg>
